<?xml version="1.0" encoding="UTF-8"?>
<svg id="Capa_2" data-name="Capa 2" xmlns="http://www.w3.org/2000/svg" viewBox="0 0 32 29.92">
  <g id="Capa_3" data-name="Capa 3">
    <path d="M26.08,16.59v.02c0,.21-.06.41-.18.57-.19.25-.47.41-.81.41-.18,0-.35-.05-.49-.14s-.26-.2-.35-.35c-.02-.04-.05-.08-.07-.14-.22-.42-.67-.7-1.17-.7s-.94.27-1.17.67c-.02.06-.05.13-.09.18-.08.13-.2.23-.34.3-.14.08-.3.13-.47.13-.34,0-.63-.17-.81-.42-.11-.16-.18-.35-.18-.55h0c0-.23.43-2.41,3.06-2.41,2.49,0,3.07,2.21,3.07,2.43h0Z"/>
    <path d="M12.05,16.59v.02c0,.21-.06.41-.18.57-.19.25-.47.41-.81.41-.18,0-.35-.05-.49-.14s-.26-.2-.35-.35c-.02-.04-.05-.08-.07-.14-.22-.42-.67-.7-1.17-.7s-.94.27-1.17.67c-.02.06-.05.13-.09.18-.08.13-.2.23-.34.3-.14.08-.3.13-.47.13-.34,0-.63-.17-.81-.42-.11-.16-.18-.35-.18-.55h0c0-.23.43-2.41,3.06-2.41,2.49,0,3.07,2.21,3.07,2.43h0Z"/>
    <path d="M17.69,20.39l-.97.47c-.45.22-.97.22-1.42,0l-.97-.47c-.74-.36-.91-1.34-.33-1.93l1.04-1.04c.53-.53,1.4-.53,1.94,0l1.04,1.04c.58.58.42,1.57-.33,1.93h0Z"/>
    <path d="M32,16.27c-.09,5.53-3.05,10.18-7.47,12.98-.33.21-.67.41-1.02.57-1.2.55-2.3-1.27-1.14-1.89,2.15-1.15,6.64-5.19,6.64-9.44,0-2.81-.92-8.35-6.93-8.35-2.52,0-4.73,1.38-5.91,3.42-.05.08-.1.18-.15.26-.04-.08-.09-.18-.15-.26-1.18-2.04-3.39-3.42-5.91-3.42-6.03,0-6.96,6-6.96,8.35,0,4.35,4.06,7.99,6.57,9.61.99.64.03,2.23-1.04,1.74-.35-.16-.69-.36-1.04-.58C2.99,26.41,0,21.69,0,16.01,0,6.81,7.79-.59,17.11.04c8.1.55,15.02,8.12,14.88,16.23Z"/>
  </g>
</svg>