<?xml version="1.0" encoding="UTF-8"?>
<svg id="Capa_2" data-name="Capa 2" xmlns="http://www.w3.org/2000/svg" viewBox="0 0 84.52 83.14">
  <path d="M68.34,44.86v.05c0,.54-.16,1.06-.46,1.46-.49.65-1.22,1.06-2.09,1.06-.46,0-.89-.14-1.27-.35-.38-.22-.68-.51-.89-.89-.05-.11-.14-.22-.19-.35-.57-1.08-1.73-1.82-3.03-1.82s-2.44.7-3.03,1.73c-.05.16-.14.33-.24.46-.22.33-.51.6-.87.79-.35.22-.79.33-1.22.33-.87,0-1.63-.43-2.09-1.08-.3-.41-.46-.89-.46-1.44v-.03c0-.57,1.11-6.2,7.91-6.2,6.44,0,7.94,5.72,7.94,6.29Z"/>
  <path d="M32.03,44.86v.05c0,.54-.16,1.06-.46,1.46-.49.65-1.22,1.06-2.09,1.06-.46,0-.89-.14-1.27-.35-.38-.22-.68-.51-.89-.89-.05-.11-.14-.22-.19-.35-.57-1.08-1.73-1.82-3.03-1.82s-2.44.7-3.03,1.73c-.05.16-.14.33-.24.46-.22.33-.51.6-.87.79-.35.22-.79.33-1.22.33-.87,0-1.63-.43-2.09-1.08-.3-.41-.46-.89-.46-1.44v-.03c0-.57,1.11-6.2,7.91-6.2,6.44,0,7.94,5.72,7.94,6.29Z"/>
  <path d="M46.62,54.69l-2.52,1.21c-1.16.56-2.52.56-3.68,0l-2.52-1.21c-1.92-.93-2.36-3.47-.85-4.98l2.7-2.7c1.38-1.38,3.63-1.38,5.01,0l2.7,2.7c1.51,1.51,1.08,4.06-.85,4.98Z"/>
  <path d="M83.67,44.03c-.24,14.32-7.91,26.36-19.35,33.58-.86.54-1.75,1.05-2.65,1.47-3.1,1.43-5.96-3.28-2.95-4.89,5.56-2.96,17.2-13.44,17.2-24.43,0-7.26-2.38-21.62-17.94-21.62-6.53,0-12.25,3.58-15.31,8.86-.14.22-.27.46-.38.68-.11-.22-.24-.46-.38-.68-3.06-5.28-8.78-8.86-15.31-8.86-15.61,0-18.02,15.53-18.02,21.62,0,11.27,10.5,20.67,17.01,24.86,2.58,1.66.09,5.78-2.69,4.5-.9-.41-1.79-.94-2.7-1.51C8.59,70.27.85,58.06.85,43.34.85,19.55,21.01.38,45.14,2.01c20.96,1.42,38.88,21.01,38.53,42.01Z"/>
</svg>