<?xml version="1.0" encoding="UTF-8"?>
<svg id="Capa_2" xmlns="http://www.w3.org/2000/svg" version="1.1" viewBox="0 0 62.64 62.64">
  <!-- Generator: Adobe Illustrator 29.8.7, SVG Export Plug-In . SVG Version: 2.1.1 Build 1)  -->
  <path d="M31.32,0C14.02,0,0,14.02,0,31.32s14.02,31.32,31.32,31.32,31.32-14.02,31.32-31.32S48.62,0,31.32,0ZM24.3,32.59v.03c0,.37-.11.73-.32,1-.34.45-.84.73-1.43.73-.32,0-.61-.1-.87-.24-.26-.15-.47-.35-.61-.61-.03-.08-.1-.15-.13-.24-.39-.74-1.19-1.25-2.08-1.25s-1.67.48-2.08,1.19c-.03.11-.1.23-.16.32-.15.23-.35.41-.6.54-.24.15-.54.23-.84.23-.6,0-1.12-.3-1.43-.74-.21-.28-.32-.61-.32-.99v-.02c0-.39.76-4.25,5.43-4.25,4.42,0,5.45,3.93,5.45,4.32v-.02ZM34.31,39.34l-1.73.83c-.8.38-1.73.38-2.53,0l-1.73-.83c-1.32-.64-1.62-2.38-.58-3.42l1.85-1.85c.95-.95,2.49-.95,3.44,0l1.85,1.85c1.04,1.04.74,2.78-.57,3.42ZM41.53,33.52c-.15.23-.35.41-.6.54-.24.15-.54.23-.84.23-.6,0-1.12-.3-1.43-.74-.21-.28-.32-.61-.32-.99v-.02c0-.39.76-4.25,5.43-4.25,4.42,0,5.45,3.93,5.45,4.32v-.02s0,.03,0,.03c0,.37-.11.73-.32,1-.34.45-.84.73-1.43.73-.32,0-.61-.1-.87-.24-.26-.15-.47-.35-.61-.61-.03-.08-.1-.15-.13-.24-.39-.74-1.19-1.25-2.08-1.25s-1.67.48-2.08,1.19c-.03.11-.1.23-.16.32ZM46.45,55.06c-.59.37-1.2.72-1.82,1.01-2.13.98-4.09-2.25-2.02-3.36,3.82-2.03,11.8-9.22,11.8-16.76,0-4.98-1.63-14.84-12.31-14.84-4.48,0-8.41,2.46-10.51,6.08-.1.15-.19.32-.26.47-.08-.15-.16-.32-.26-.47-2.1-3.62-6.03-6.08-10.51-6.08-10.71,0-12.37,10.66-12.37,14.84,0,7.73,7.21,14.18,11.67,17.06,1.77,1.14.06,3.97-1.85,3.09-.62-.28-1.23-.65-1.85-1.04-7.97-5.04-13.28-13.42-13.28-23.52.02-16.32,13.85-29.47,30.41-28.35,14.38.97,26.68,14.42,26.44,28.83-.16,9.83-5.43,18.09-13.28,23.04Z"/>
</svg>