<?xml version="1.0" encoding="UTF-8"?>
<svg id="Capa_3" data-name="Capa 3" xmlns="http://www.w3.org/2000/svg" viewBox="0 0 484.63 449.22">
  <path d="M388.8,249.62v.31c0,3.06-.92,5.97-2.6,8.27-2.75,3.67-6.89,5.97-11.79,5.97-2.6,0-5.05-.77-7.19-1.99-2.14-1.22-3.83-2.91-5.05-5.05-.31-.61-.76-1.22-1.07-1.99-3.22-6.12-9.8-10.26-17.15-10.26s-13.78,3.98-17.14,9.8c-.31.92-.77,1.84-1.38,2.6-1.23,1.84-2.91,3.37-4.9,4.44-1.99,1.22-4.44,1.84-6.89,1.84-4.9,0-9.18-2.45-11.79-6.12-1.68-2.3-2.6-5.05-2.6-8.11v-.15c0-3.22,6.25-35.06,44.7-35.06,36.39,0,44.86,32.3,44.86,35.52Z"/>
  <path d="M183.63,249.62v.31c0,3.06-.92,5.97-2.6,8.27-2.75,3.67-6.89,5.97-11.79,5.97-2.6,0-5.05-.77-7.19-1.99-2.14-1.22-3.83-2.91-5.05-5.05-.31-.61-.76-1.22-1.07-1.99-3.22-6.12-9.8-10.26-17.15-10.26s-13.78,3.98-17.14,9.8c-.31.92-.77,1.84-1.38,2.6-1.23,1.84-2.91,3.37-4.9,4.44-1.99,1.22-4.44,1.84-6.89,1.84-4.9,0-9.18-2.45-11.79-6.12-1.68-2.3-2.6-5.05-2.6-8.11v-.15c0-3.22,6.25-35.06,44.7-35.06,36.39,0,44.86,32.3,44.86,35.52Z"/>
  <path d="M266.09,305.14l-14.25,6.86c-6.57,3.16-14.23,3.16-20.8,0l-14.25-6.86c-10.87-5.23-13.32-19.63-4.79-28.16l15.28-15.28c7.82-7.82,20.49-7.82,28.31,0l15.28,15.28c8.53,8.53,6.08,22.93-4.79,28.16Z"/>
  <path d="M475.4,244.92c-1.36,80.91-44.67,148.93-109.31,189.76-4.87,3.08-9.87,5.95-14.98,8.31-17.53,8.08-33.67-18.54-16.64-27.63,31.41-16.75,97.18-75.94,97.18-138.02,0-41.03-13.47-122.16-101.35-122.16-36.89,0-69.2,20.21-86.49,50.06-.77,1.22-1.53,2.6-2.14,3.83-.61-1.22-1.38-2.6-2.14-3.83-17.3-29.85-49.6-50.06-86.5-50.06-88.18,0-101.8,87.72-101.8,122.16,0,63.66,59.31,116.78,96.12,140.47,14.55,9.37.51,32.66-15.21,25.41-5.07-2.34-10.11-5.29-15.28-8.54C51.19,393.19,7.44,324.18,7.44,241.05,7.44,106.63,121.37-1.71,257.72,7.53c118.42,8.02,219.68,118.72,217.68,237.39Z"/>
</svg>