<?xml version="1.0" encoding="UTF-8"?>
<svg id="Capa_2" data-name="Capa 2" xmlns="http://www.w3.org/2000/svg" viewBox="0 0 84.52 83.14">
  <path d="M56.88,26.88c-6.04,0-11.34,3.31-14.17,8.2-.13.2-.25.43-.35.63-.1-.2-.23-.43-.35-.63-2.83-4.89-8.13-8.2-14.17-8.2-14.46,0-16.68,14.36-16.68,20,0,14.25,8.63,26.82,22.72,31.44,2.66.87,5.52,1.18,8.45,1.18s5.83-.37,8.5-1.18c14.7-4.45,22.65-17.22,22.65-31.44,0-6.71-2.2-20-16.6-20ZM32.86,42.41c0,.5-.15.98-.43,1.35-.45.6-1.13.98-1.93.98-.43,0-.83-.13-1.18-.33s-.63-.48-.83-.83c-.05-.1-.12-.2-.18-.33-.53-1-1.61-1.68-2.81-1.68s-2.26.65-2.81,1.61c-.05.15-.13.3-.23.43-.2.3-.48.55-.8.73-.33.2-.73.3-1.13.3-.8,0-1.51-.4-1.93-1-.28-.38-.43-.83-.43-1.33v-.02c0-.53,1.02-5.74,7.32-5.74,5.96,0,7.35,5.29,7.35,5.82v.05ZM46.37,51.46l-2.33,1.12c-1.08.52-2.33.52-3.41,0l-2.33-1.12c-1.78-.86-2.18-3.22-.78-4.61l2.5-2.5c1.28-1.28,3.36-1.28,4.64,0l2.5,2.5c1.4,1.4,1,3.76-.78,4.61ZM66.47,42.41c0,.5-.15.98-.43,1.35-.45.6-1.13.98-1.93.98-.43,0-.83-.13-1.18-.33-.35-.2-.63-.48-.83-.83-.05-.1-.13-.2-.18-.33-.53-1-1.61-1.68-2.81-1.68s-2.26.65-2.81,1.61c-.05.15-.13.3-.23.43-.2.3-.48.55-.8.73-.33.2-.73.3-1.13.3-.8,0-1.5-.4-1.93-1-.28-.38-.43-.83-.43-1.33v-.02c0-.53,1.02-5.74,7.32-5.74,5.96,0,7.35,5.29,7.35,5.82v.05Z"/>
  <path d="M42.29,82.53C19.71,82.53,1.34,64.15,1.34,41.57S19.71.61,42.29.61s40.96,18.37,40.96,40.96-18.37,40.96-40.96,40.96ZM42.29,5.63C22.48,5.63,6.35,21.75,6.35,41.57s16.12,35.94,35.94,35.94,35.94-16.12,35.94-35.94S62.11,5.63,42.29,5.63Z"/>
</svg>