<?xml version="1.0" encoding="UTF-8"?>
<svg id="Capa_2" data-name="Capa 2" xmlns="http://www.w3.org/2000/svg" viewBox="0 0 84.52 83.14">
  <path d="M57.27,13.6c-6.48,0-12.62,2.84-16.53,7.5-3.98-4.68-10.07-7.5-16.55-7.5C7.33,13.6,2.84,28.26,2.84,36.92c0,16.36,10.8,30.19,27.49,35.26,2.98.9,6.38,1.36,10.36,1.36,3.69,0,7.16-.46,10.39-1.36,16.94-4.73,27.47-18.25,27.47-35.26,0-5.46-1.55-23.32-21.28-23.32ZM65.1,40.38c0,.5-.15.98-.43,1.36-.45.6-1.13.98-1.93.98-.43,0-.83-.13-1.18-.33-.35-.2-.63-.48-.83-.83-.05-.1-.13-.2-.18-.33-.53-1-1.61-1.68-2.81-1.68s-2.26.65-2.81,1.61c-.05.15-.13.3-.23.43-.2.3-.48.55-.8.73-.33.2-.73.3-1.13.3-.8,0-1.51-.4-1.93-1-.28-.38-.43-.83-.43-1.33v-.02c0-.53,1.02-5.75,7.33-5.75,5.97,0,7.36,5.3,7.36,5.82v.05ZM44.97,49.43l-2.34,1.12c-1.08.52-2.33.52-3.41,0l-2.34-1.12c-1.78-.86-2.18-3.22-.78-4.62l2.51-2.51c1.28-1.28,3.36-1.28,4.64,0l2.51,2.51c1.4,1.4,1,3.76-.79,4.62ZM31.45,40.38c0,.5-.15.98-.43,1.36-.45.6-1.13.98-1.93.98-.43,0-.83-.13-1.18-.33-.35-.2-.63-.48-.83-.83-.05-.1-.13-.2-.18-.33-.53-1-1.61-1.68-2.81-1.68s-2.26.65-2.81,1.61c-.05.15-.13.3-.23.43-.2.3-.48.55-.8.73-.33.2-.73.3-1.13.3-.8,0-1.51-.4-1.93-1-.28-.38-.43-.83-.43-1.33v-.02c0-.53,1.02-5.75,7.33-5.75,5.97,0,7.36,5.3,7.36,5.82v.05Z"/>
</svg>