<?xml version="1.0" encoding="UTF-8"?>
<svg id="Capa_2" xmlns="http://www.w3.org/2000/svg" version="1.1" viewBox="0 0 76.17 60.3">
  <!-- Generator: Adobe Illustrator 29.8.7, SVG Export Plug-In . SVG Version: 2.1.1 Build 1)  -->
  <path d="M62.63,26.89v.05c0,.51-.15.99-.43,1.36-.45.61-1.14.99-1.94.99-.43,0-.83-.13-1.19-.33-.35-.2-.63-.48-.83-.83-.05-.1-.13-.2-.18-.33-.53-1.01-1.62-1.69-2.83-1.69s-2.27.66-2.83,1.62c-.05.15-.13.3-.23.43-.2.3-.48.56-.81.73-.33.2-.73.3-1.14.3-.81,0-1.52-.4-1.94-1.01-.28-.38-.43-.83-.43-1.34v-.03c0-.53,1.03-5.78,7.37-5.78,6,0,7.4,5.33,7.4,5.86h.01Z"/>
  <path d="M28.78,26.89v.05c0,.51-.15.99-.43,1.36-.45.61-1.14.99-1.94.99-.43,0-.83-.13-1.19-.33-.35-.2-.63-.48-.83-.83-.05-.1-.13-.2-.18-.33-.53-1.01-1.62-1.69-2.83-1.69s-2.27.66-2.83,1.62c-.05.15-.13.3-.23.43-.2.3-.48.56-.81.73-.33.2-.73.3-1.14.3-.81,0-1.52-.4-1.94-1.01-.28-.38-.43-.83-.43-1.34v-.03c0-.53,1.03-5.78,7.37-5.78,6,0,7.4,5.33,7.4,5.86h0Z"/>
  <path d="M42.39,36.05l-2.35,1.13c-1.08.52-2.35.52-3.43,0l-2.35-1.13c-1.79-.86-2.2-3.24-.79-4.65l2.52-2.52c1.29-1.29,3.38-1.29,4.67,0l2.52,2.52c1.41,1.41,1,3.78-.79,4.65Z"/>
  <path d="M38.09,60.3c-4.02,0-7.43-.45-10.43-1.36C10.86,53.83,0,39.91,0,23.46,0,14.75,4.53,0,21.49,0c6.51,0,12.65,2.83,16.64,7.54C42.08,2.85,48.24,0,54.77,0,74.62,0,76.17,17.96,76.17,23.46c0,17.12-10.59,30.71-27.64,35.49-3.22.89-6.73,1.35-10.43,1.35h0ZM21.48,4.41C5.55,4.41,4.74,20.29,4.74,23.47c0,14.51,9.58,26.79,24.4,31.29,2.52.77,5.44,1.14,8.95,1.14,3.24,0,6.28-.39,9.06-1.16,14.96-4.19,24.26-16.17,24.26-31.27,0-5.73-1.62-19.06-16.65-19.06-5.81,0-11.25,2.92-14.18,7.62-.15.22-.25.4-.34.55l-2.14,3.93-2.11-3.95c-.08-.15-.18-.32-.29-.47-2.98-4.76-8.41-7.68-14.23-7.68h.01Z"/>
</svg>