<?xml version="1.0" encoding="UTF-8"?>
<svg xmlns="http://www.w3.org/2000/svg" version="1.1" viewBox="0 0 353 276">
  <defs>
    <style>
      .cls-1 {
        fill: #47b4d2;
      }

      .cls-2 {
        fill: #141127;
      }
    </style>
  </defs>
  <!-- Generator: Adobe Illustrator 28.7.9, SVG Export Plug-In . SVG Version: 1.2.0 Build 218)  -->
  <g>
    <g id="Capa_1">
      <g id="Capa_3">
        <rect class="cls-1" x="-20.3" y="-20.6" width="393.7" height="317.2"/>
      </g>
      <g id="Capa_2">
        <g>
          <g>
            <path class="cls-2" d="M223.4,56.8h0c.2-.2.4-.3.6-.6-.2.2-.4.4-.6.6ZM188.8,193.9c.2.2.4.4.5.5,0,0,0,0,0,0l.8-1.1-1.3.6h0ZM149.4,210.4c-.5-1.2-1-2.3-1.6-3.2.5.9,1,2,1.5,3.2.2.5.6,1,1.1,1.4-.5-.4-.9-.9-1.1-1.4Z"/>
            <path class="cls-2" d="M188.8,193.9c.2.2.4.4.5.5,0,0,0,0,0,0l.8-1.1-1.3.6h0ZM105.8,209.1c2.2,1.9,4.6,3.3,6.8,4.5-2.2-1.2-4.6-2.7-6.8-4.5Z"/>
            <path class="cls-2" d="M223.4,56.8h0c.2-.2.4-.3.6-.6-.2.2-.4.4-.6.6Z"/>
            <path class="cls-2" d="M253.9,95.9c-.3-4.1-7.8-32.9-17.1-42.8,0,0-.2-.1-.3-.1s-.1,0-.2,0c-.2,0-.2.2-.2.4.1.6.2,1.2.2,1.9s-.1,1.5-.3,2.3c-.1.5-.3.9-.5,1.2,0,.1,0,.3,0,.4,6.6,10.2,13.5,33.4,13.5,36.8s0,.4,0,.4c.2.8,19,78.9-26.9,101.6l-.8.6-.2.7c-.3,1.2-3.5,12.1-22.3,21.2-4.1,2-7.9,3-10.9,3s-3.6-.4-4.9-1.3c-2.3-1.6-3.5-4.7-3.2-8.6.4-4.4,4.8-10.3,7.6-14.1,2.2-3,3-4,2.2-5.4-.1-.2-.3-.5-.6-.7-.3-.2-.7-.4-1.5-.4-2.6,0-12.6,5.1-16.3,12.4-1,1.9-1.9,3.8-2.6,5.6h-.7c-6.2,0-13.7-2-14.4-2.6-5.1-12.1-12-13.9-14-14.2-.4,0-.8,0-1.2,0-1.5,0-2.7.5-3.5,1.4l-.3.6c-.9,2.7,1.2,4.9,3.1,7,1.1,1.2,2.3,2.4,3,3.8,1.2,2.4,1.6,4.3,1.2,5.8-.2.8-.7,1.3-1.4,1.7-1.3.6-3,1-5,1-4.9,0-10.7-1.9-12.9-2.6-4.9-1.5-16.7-6.2-21.1-16.2-2.7-6.2-2.1-13.6,1.8-22,14.8-31.3,47.4-36.9,51.1-37.4.1,0,.7,0,1.6,0,6.2,0,27.1-.7,36.2-9.9,6.2-6.4,6.9-16,6.3-23.1-.9-2.7-1.4-5.4-1.4-8.2,0-12,8.1-22.3,19.8-25.1l1.1-.4.3-.8c.7-2.2,2.8-7.5,5.9-11.7-.1-.4-.2-.9-.3-1.4,0-.5-.1-.9-.1-1.3s0-.7,0-1c0-.6.1-1.2.3-1.7,0-.2,0-.3-.1-.5,0,0-.1,0-.2,0s-.2,0-.2,0c-5,3.9-8.2,11.5-9.1,14.4-13,3.7-22.1,15.9-22.1,29.5s.5,6.4,1.4,9.2c.4,5.8-.1,13.7-5,18.6-8,8-28.8,8.5-32.9,8.5h-1.7c-4,.6-39.2,6.7-55.1,40.2-4.6,9.6-5.2,18.4-1.9,26,1.7,4,4.5,7.6,8.4,10.8,2,1.6,4.2,3.1,6.9,4.6,3.8,2,7.1,3.1,8.7,3.6,3.8,1.2,9.3,2.9,14.4,2.9s5.2-.5,7.2-1.5c1.9-.9,3.3-2.5,3.9-4.6.6-1.9.9-5.1-1.5-9.6-.8-1.5-1.9-2.8-2.9-3.9,1.1.8,2.4,2.1,3.7,4,.5.7,1,1.6,1.6,2.5.6.9,1.1,2,1.6,3.2.2.6.6,1.1,1.2,1.5,3.7,3.1,14.2,4.1,17.6,4.1s1.7,0,2.4-.1c1.2,0,2.3-.9,2.6-2,.7-2.2,1.7-4.2,2.7-6.2.6-1.3,1.6-2.6,2.9-3.9-2.1,3.6-3.3,6.7-3.6,9.5-.3,4.6.9,8.6,3.4,11.3,2.3,2.5,5.6,3.8,9.6,3.8s8.1-1.2,13-3.5c18.3-8.8,23.3-19.2,24.4-23.1,48.2-25.1,28.6-105.4,28.4-106.1h0Z"/>
            <path class="cls-2" d="M225.3,201.6c-1.3,3.9-6.2,14.3-24.4,23.1-4.8,2.3-9.1,3.5-12.9,3.5s-7.1-1.3-9.3-3.7c-2.5-2.7-3.7-6.6-3.3-11,.4-3.9,2.6-8.1,5-11.6-2,1.6-4,3.6-5.1,5.8-.9,1.8-2,4-2.7,6.2-.3,1-1.2,1.7-2.3,1.8-.7,0-1.5.1-2.4.1-3.7,0-13.8-1-17.4-4-.5-.4-.9-.9-1.1-1.4-.5-1.2-1-2.3-1.6-3.2-.5-1-1.1-1.8-1.6-2.6-2.3-3.3-4.5-4.7-6-5.3.3.3.6.6.8.8,1.3,1.4,2.8,2.9,3.8,4.8,2.3,4.3,2,7.4,1.4,9.3-.6,1.9-1.9,3.5-3.7,4.4-1.9,1-4.3,1.4-7,1.4-5.1,0-10.6-1.6-14.3-2.9-2-.6-5.2-1.8-8.6-3.6-2.2-1.2-4.6-2.7-6.8-4.5-3.4-2.8-6.4-6.2-8.3-10.6-3.3-7.5-2.6-16.1,1.9-25.7,16.7-35.2,54.5-39.9,54.9-40h1.6c4.1,0,25.1-.4,33.2-8.6,4.9-5,5.5-13.1,5.1-18.9-.9-2.8-1.4-6-1.4-9.2,0-13.6,8.9-25.4,21.8-29.1,1.5-4,4.7-10.8,9.3-14.4-.2.5-.3,1.1-.4,1.8,0,.3,0,.7,0,1s0,.9.1,1.4h0c0,.6.2,1,.3,1.5-3.1,4-5.3,9.8-5.9,11.5l-.3.8-.8.2c-11.8,2.8-20.1,13.2-20.1,25.5s.5,5.6,1.4,8.3c.6,7.2,0,16.5-6.2,22.7-10.4,10.5-36.4,9.8-37.5,9.8-.2,0-35.7,4.5-51.4,37.6-4,8.4-4.6,16-1.8,22.3,4.4,10.1,16.3,14.9,21.3,16.5,3.2,1.1,12.9,4.3,18.2,1.6.6-.3,1.3-.8,1.6-1.9.5-1.6,0-3.7-1.2-6.1-.8-1.4-2-2.7-3.1-3.9-1.9-2-3.8-4.1-3-6.5l.3-.5c.8-1,2.4-1.4,4.2-1.1,2,.3,8.6,2.2,13.7,13.9.9,1,9.6,3.1,15.7,2.9.8-2.2,1.7-4.2,2.6-5.9,3.6-7.2,13.4-12.1,16-12.2h.1c.5,0,.9.2,1.1.3.2.2.4.4.5.5,0,0,0,0,0,0,.7,1.2,0,2.1-2.4,5.3-2.6,3.5-7.1,9.5-7.5,14-.3,4.1.9,7.3,3.4,9,3.4,2.3,9.2,1.7,16.2-1.7,20.1-9.7,22.5-21.4,22.6-21.5l.2-.7.6-.3c46.3-22.9,27.3-101.2,27.1-102v-.3c0-3.6-6.9-26.8-13.6-37,.2-.4.4-.9.5-1.3.2-.8.3-1.6.3-2.4h0c0-.7,0-1.3-.2-2,9.3,9.8,16.7,38.7,17,42.5,1.2,4.8,18.3,81.4-28.2,105.7h0Z"/>
            <path class="cls-2" d="M221.1,79.8c-.4-.2-.7-.3-1.2-.3-.2-.1-.4-.1-.6-.1-4.6-.3-8.5,3.1-8.8,7.7-.2,3.1,1.4,5.9,3.8,7.4.2.2.4.3.6.3.1.1.3.1.6.2,1.1,0,2.1-.7,2.2-2,0-.5-.1-.8-.3-1.2-.1-.1-.2-.2-.2-.4-.7-.9-1.1-2.1-.9-3.4.1-2.2,1.7-4.1,3.9-4.7.1,0,.3-.1.5-.1.7-.2,1.3-.9,1.3-1.7.1-.8-.3-1.5-.9-1.8h0Z"/>
            <path class="cls-2" d="M236.7,55.3h0c0,.9-.1,1.7-.3,2.4-.1.5-.3.9-.5,1.3-1.1,2.5-3.3,4.2-5.9,4.2s-5.3-2.1-6.2-5.1c-.1-.4-.2-.9-.3-1.4.2-.2.4-.4.6-.7-.2.2-.4.4-.6.6,0-.5-.1-.9-.1-1.4s0-.7,0-1c0-.6.2-1.2.4-1.8.9-3,3.4-5.2,6.2-5.2s5.8,2.5,6.5,6c.1.6.2,1.3.2,1.9h0Z"/>
            <path class="cls-2" d="M224,56.2c-.2.2-.4.4-.6.7h0c.2-.3.4-.5.6-.7Z"/>
          </g>
          <path class="cls-2" d="M220.4,126.8c-.3.3-.9.4-1.3.3-.5-.2-.7-.8-.3-1.2,2.9-3.6,12.2-15.9,13.2-29.6.6-8.3-1-16.5-4.8-24.4,0-.4.2-.7.6-.8.4-.1.9,0,1.2.3,1.7,3.6,3.8,8.8,4.6,15.2.4,3.2.5,6.5.3,9.8-1,13.8-7.9,24.1-13.6,30.4h0Z"/>
          <path class="cls-2" d="M237.8,112.2c-.2.4-.7.6-1.2.5-.4-.1-.8-.5-.7-.9,1.4-4.3,3-10.9,2.3-19.1-.2-2.3-.6-4.6-1.1-6.8-1.7-6.8-4.9-13.4-9.6-19.4-.1-.4,0-.7.4-.9.4-.2.9-.2,1.2,0,2,2.5,4.2,5.8,6.1,9.7,1.6,3.3,2.9,6.8,3.8,10.3,2.1,8.8,1.7,17.7-1.2,26.7Z"/>
        </g>
      </g>
    </g>
  </g>
</svg>