<?xml version="1.0" encoding="UTF-8"?>
<svg xmlns="http://www.w3.org/2000/svg" viewBox="0 0 353 276">
  <defs>
    <style>
      .cls-1 {
        fill: #f4a5a5;
      }

      .cls-2 {
        fill: #141127;
      }
    </style>
  </defs>
  <g id="Capa_3" data-name="Capa 3">
    <rect class="cls-1" x="-29.79" y="-20.61" width="393.65" height="317.22"/>
  </g>
  <g id="Capa_2" data-name="Capa 2">
    <g>
      <path class="cls-2" d="M125.11,90.48c.07-.3.12-.61.14-.93.02-.16.02-.33.02-.5,0-3.52-2.85-6.37-6.37-6.37-2.42,0-4.54,1.36-5.61,3.35-.09.16-.17.32-.24.49-.04.15-.06.3-.06.45,0,.91.74,1.65,1.65,1.65.34,0,.66-.1.92-.28h0c.08-.08.17-.16.27-.23.69-.55,1.57-.87,2.52-.87,1.78,0,3.3,1.14,3.86,2.74.05.15.1.3.13.46.24.53.77.89,1.39.89s1.12-.35,1.38-.85Z"/>
      <path class="cls-2" d="M156.55,192.44s-.05,0-.07,0c-.38,0-.98,1.96-1.91,3.09-.7,1.09-1.85,2.15-3.4,3.13-1.26.78-5.18,2.78-8.1,2.78-1.12,0-1.96-.31-2.57-1.2.01-.42.38-1.05.81-1.44.24-.2.88-.72.42-1.94-.18-.18-.36-.53-.3-.99.11-.84.96-1.74,2.75-2.75.78-.47,3.56-1.99,3.52-2.34-.04-.36-3.42-1.66-4.65-2.11-1.11.45-2.01.92-2.77,1.38-3.36,1.92-4.2,3.87-4.31,5.17-.12,1.34.5,2.37,1.02,2.46,0,0-.07.18-.52.57-1.49,1.32-2.07,3.43-1.42,5.08.32,1.08,3,2.66,7.01,2.66,1.73,0,3.56-.29,5.45-.85,5.95-1.73,10.88-5.32,12.84-9.36.01-.02.85-1.94.71-3.19-.33-.03-1.44-.03-2.03-.04-.76-.01-1.67-.03-2.48-.11Z"/>
      <path class="cls-2" d="M196.55,99.82c-.38-.15-.76-.3-1.14-.46-.08-.08-.15-.08-.23-.08-.04-.01-.07-.03-.1-.04-5.06-2.52-10.42-4.38-16.06-5.58-.05-.02-.11-.03-.16-.05-.53-.15-1.14-.23-1.6-.38-.15-.08-.3-.15-.46-.15-.38-.15-.84-.23-1.37-.3l-.91-.23h-.15s-.1-.01-.15-.02c-2.79-.64-4.42-.79-5.38-.8-.02-.01-.04,0-.06-.02h-.15c-3.46-.34-7.27-.57-11.34-.42.23-1.45.38-2.82.38-4.19,0-15.91-12.94-28.86-28.86-28.86s-28.86,12.94-28.86,28.86c0,.38,0,.84.08,1.22,0,.53.08,1.22.08,1.9.38,4.76,1.22,12.64,3.16,16.71-2.63,5.18-10.96,22.12-10.2,33.19v.23c.15,26.88,29.69,48.69,66.05,48.69,1.48,0,17.55.76,26.88-1.29-.46,2.36-.84,6.89-2.51,10.89-1.52-.15-5.21-.42-8.03.38-.38.08-.69.23-.84.3-.91.23-1.64.53-2.32.91-5.98,2.66-5.48,6.13-4.26,7.35,0,0,.69.3-.84,1.45-1.41,1.07-2.32,3.05-1.79,4.68.76,2.28,4.61,4.64,13.1,3.88,7.88-.84,13.93-6.59,16.56-11.08,2.44-4.15,9.33-19.22,12.22-32.62,19.3-12.79,32.4-29.54,35.59-33.77.46-1.67.53-1.75.53-1.75.15-.84.15-2.06-.76-3.88-12.49-17.55-31.9-28.47-46.06-34.68ZM183.99,95.21c.68.23,1.36.45,2.04.68,2.08.69,4.43,1.56,6.89,2.52-2.45-.95-4.81-1.82-6.88-2.52l-2.06-.69c-.12-.04-.23-.07-.35-.11.12.04.23.07.35.11ZM183.38,211.85c-2.36,1.18-10.43,3.62-12.94,0-.76-.91.23-2.36,1.22-3.12.99-.69.53-.84.53-.84-.84-.91-.99-2.63,3.08-4.68,2.89-1.45,6.59-.53,6.59-.53l4.11,1.07c.3,0,4.83-12.45,5.9-20.37,0-.15.99-.91,2.44-1.83.08-.08.3-.23.72-.46.69-.46,1.45-.91,2.21-1.37,0,0,.08-.08.23-.15.02,0,.05-.03.08-.04-.02.02-.05.03-.07.04-.15.08-.23.15-.23.15-.76.45-1.51.91-2.2,1.36,1.89-.83,3.71-1.82,5.45-2.95,0,0,0,0,0,0-1.37,3.6-8.26,29.16-17.13,33.72ZM201.79,177.22s.01,0,.02-.01c.26-.14.55-.32.84-.47-.29.16-.58.34-.86.49h0ZM202.53,176.87c.41-.24.83-.46,1.21-.75.06-.04.11-.06.17-.09-.43.34-.91.58-1.37.84ZM200.89,171.16c-7.19,4.42-14.47,7.65-21.66,9.71-1.07.3-2.13.53-3.35.76-5.29,1.22-10.96,1.75-16.79,1.75-33.27,0-60.38-19.41-60.38-43.24v-.23c.08-11.08,5.98-21.51,16.6-29.46l3.01-2.28-3.08-2.28c-5.18-3.77-8.49-9.29-9.33-15.42-.15-.84-.15-1.6-.23-2.44-.08-.3-.08-.61-.08-.91,0-12.71,10.47-23.18,23.18-23.18s23.18,10.47,23.18,23.18c0,1.75-.23,3.5-.68,5.29-.05.26-.1.49-.16.72l-.16-.66c-.46-1.87-1.78-3.25-3.55-3.7-.38-.09-.77-.14-1.15-.14-1.33,0-2.58.55-3.52,1.55-.67.75-1.17,1.69-1.66,2.67-.64,1.29-1.31,2.62-2.38,2.96-.28.07-.6.11-.95.11-1.74,0-3.95-.92-5.98-1.76-.74-.35-1.4-.62-1.98-.81-.52-.19-1.07-.28-1.64-.28-.42,0-.84.05-1.25.16-2.78.75-3.27,4.22-3.44,5.38v.85l.34.45c4.62,6.34,8.12,13.38,10.41,20.9,1.41,4.64,2.34,9.55,2.78,14.65l.17.6c.77,1.54,1.81,2.91,3.08,4.06.04.04,4.25,4.03,9.86,4.03.99,0,2.03-.14,3.19-.43,2.67-.75,5.1-2.46,6.35-4.46.67-1.07,1-2.22,1.1-2.61.39-.95.46-2.06.21-3.13l-8.82-36.36.41-.02,1.52-.08c4.87-.15,9.94-.15,14.16.38.91.15,1.75.23,2.67.3.3,0,.69.08,1.07.15.1.02.18.03.27.05.32.08.66.18,1.08.24v-.06h.02c.15.08.34.15.34.15l.76.15c.3,0,.53.08,1.07.19,3.73.99,9.33,2.66,15.91,5.33.08.03.16.06.24.09.84.35,1.74.69,2.64,1.11v-.07s.01,0,.02,0c5.98,2.63,12.94,6.05,19.83,10.58,0,0,.08,0,.15.08,4.3,2.89,8.72,6.13,12.71,9.78,0,.08.08.15.15.23,1.07,1.56,1.6,3.16,1.14,4.68-1.75,6.28-31.98-3.77-33.92-4.38.88.99,9.82,10.96,4.68,15.95-3.05,2.89-12.41-1.48-20.21-6.05-4.11-3.62-15.07-6.59-15.07-6.59,2.44,2.51,23.79,24.48,34.15,25.7,1.29.15,2.59.23,3.73.23,4.07,0,7.19-.99,9.36-2.97,2.21-1.98,3.35-4.91,3.35-8.64,0-.99-.08-1.9-.3-2.7,5.37,2.09,11.8,3.92,17.55,3.84-6.66,7.5-17.4,18.16-30.72,26.34ZM128.1,96.34v.32c.16,0,.35.03.55.1.33.1.71.26,1.12.44l.55.23c1.9.84,4.76,2.1,7.41,2.1.7,0,1.35-.09,1.95-.26,2.62-.74,3.79-3.09,4.66-4.81.32-.69.71-1.44,1.07-1.84.22-.22.48-.36.93-.36.06,0,.12,0,.19,0,.6.15.85.71.94,1.01l8.55,35.15-3.83-2.22c-.98-.58-2.09-.89-3.23-.89-2.3,0-4.44,1.24-5.59,3.23l-2.9,5.02c-.46-4.55-1.38-9.2-2.76-13.84-2.34-7.66-5.9-14.9-10.54-21.22.28-1.55.68-1.81.7-1.83l.21-.35s.03,0,.04,0Z"/>
      <path class="cls-2" d="M259.77,109.39c0-.1-.07-.62-.12-.7-.33-.53-.75-.97-1.26-1.29-.79-.51-1.57-.63-2.19-.63-.7.05-2.01.42-2.93,2.33-.86,1.75-1.99,3.21-3.35,4.36-1.27,1.06-3.64,3.03-11.46,3.03-.91,0-1.89-.03-3.46-.14-1.19,0-2.26.86-2.34,1.87-.04.49.16,1.01.55,1.43.47.51,1.17.81,1.82.81h0c1.4.18,2.88.33,4.4.29,6.1-.16,8.62-.65,11.96-1.82.75-.27,2.81-2.07,3.17-1.76.52.03.47,2.09.26,3.02-.82,3.6-1.85,6.92-3.28,8.98-.87,1.24-3.16,3.47-4.55,3.98-.66.1-1.25.48-1.61,1.03-.32.5-.43,1.1-.27,1.62.25.85,1.11,1.44,2.08,1.44l.28-.03c4.48-1.34,14.15-9.61,12.32-27.83Z"/>
    </g>
  </g>
</svg>