<?xml version="1.0" encoding="UTF-8"?>
<svg xmlns="http://www.w3.org/2000/svg" version="1.1" viewBox="0 0 353 276">
  <defs>
    <style>
      .cls-1 {
        fill: #f4a5a5;
      }

      .cls-2 {
        fill: #141127;
      }
    </style>
  </defs>
  <!-- Generator: Adobe Illustrator 28.7.9, SVG Export Plug-In . SVG Version: 1.2.0 Build 218)  -->
  <g>
    <g id="Capa_1">
      <g id="Capa_3">
        <rect class="cls-1" x="-29.8" y="-20.6" width="393.6" height="317.2"/>
      </g>
      <g id="Capa_2">
        <g>
          <path class="cls-2" d="M125.1,90.5c0-.3.1-.6.1-.9,0-.2,0-.3,0-.5,0-3.5-2.8-6.4-6.4-6.4s-4.5,1.4-5.6,3.3c0,.2-.2.3-.2.5,0,.2,0,.3,0,.4,0,.9.7,1.7,1.7,1.7s.7,0,.9-.3h0c0,0,.2-.2.3-.2.7-.6,1.6-.9,2.5-.9,1.8,0,3.3,1.1,3.9,2.7,0,.2,0,.3.1.5.2.5.8.9,1.4.9s1.1-.3,1.4-.8h0Z"/>
          <path class="cls-2" d="M156.6,192.4h0c-.4,0-1,2-1.9,3.1-.7,1.1-1.9,2.1-3.4,3.1-1.3.8-5.2,2.8-8.1,2.8s-2-.3-2.6-1.2c0-.4.4-1.1.8-1.4.2-.2.9-.7.4-1.9-.2-.2-.4-.5-.3-1,.1-.8,1-1.7,2.8-2.8.8-.5,3.6-2,3.5-2.3,0-.4-3.4-1.7-4.6-2.1-1.1.4-2,.9-2.8,1.4-3.4,1.9-4.2,3.9-4.3,5.2-.1,1.3.5,2.4,1,2.5,0,0,0,.2-.5.6-1.5,1.3-2.1,3.4-1.4,5.1.3,1.1,3,2.7,7,2.7s3.6-.3,5.4-.9c5.9-1.7,10.9-5.3,12.8-9.4,0,0,.9-1.9.7-3.2-.3,0-1.4,0-2,0-.8,0-1.7,0-2.5-.1h0Z"/>
          <path class="cls-2" d="M196.6,99.8c-.4-.2-.8-.3-1.1-.5,0,0-.1,0-.2,0,0,0,0,0-.1,0-5.1-2.5-10.4-4.4-16.1-5.6,0,0-.1,0-.2,0-.5-.2-1.1-.2-1.6-.4-.1,0-.3-.2-.5-.2-.4-.2-.8-.2-1.4-.3l-.9-.2h-.1s-.1,0-.1,0c-2.8-.6-4.4-.8-5.4-.8,0,0,0,0,0,0h-.1c-3.5-.3-7.3-.6-11.3-.4.2-1.4.4-2.8.4-4.2,0-15.9-12.9-28.9-28.9-28.9s-28.9,12.9-28.9,28.9,0,.8,0,1.2c0,.5,0,1.2,0,1.9.4,4.8,1.2,12.6,3.2,16.7-2.6,5.2-11,22.1-10.2,33.2v.2c.2,26.9,29.7,48.7,66.1,48.7s17.6.8,26.9-1.3c-.5,2.4-.8,6.9-2.5,10.9-1.5-.1-5.2-.4-8,.4-.4,0-.7.2-.8.3-.9.2-1.6.5-2.3.9-6,2.7-5.5,6.1-4.3,7.4,0,0,.7.3-.8,1.4-1.4,1.1-2.3,3.1-1.8,4.7.8,2.3,4.6,4.6,13.1,3.9,7.9-.8,13.9-6.6,16.6-11.1,2.4-4.1,9.3-19.2,12.2-32.6,19.3-12.8,32.4-29.5,35.6-33.8.5-1.7.5-1.8.5-1.8.1-.8.1-2.1-.8-3.9-12.5-17.6-31.9-28.5-46.1-34.7h0ZM184,95.2c.7.2,1.4.4,2,.7,2.1.7,4.4,1.6,6.9,2.5-2.4-.9-4.8-1.8-6.9-2.5l-2.1-.7c-.1,0-.2,0-.4-.1.1,0,.2,0,.4.1h0ZM183.4,211.8c-2.4,1.2-10.4,3.6-12.9,0-.8-.9.2-2.4,1.2-3.1,1-.7.5-.8.5-.8-.8-.9-1-2.6,3.1-4.7,2.9-1.4,6.6-.5,6.6-.5l4.1,1.1c.3,0,4.8-12.4,5.9-20.4,0-.1,1-.9,2.4-1.8,0,0,.3-.2.7-.5.7-.5,1.4-.9,2.2-1.4,0,0,0,0,.2-.1,0,0,0,0,0,0,0,0,0,0,0,0-.1,0-.2.1-.2.1-.8.4-1.5.9-2.2,1.4,1.9-.8,3.7-1.8,5.4-2.9h0c-1.4,3.6-8.3,29.2-17.1,33.7h0ZM201.8,177.2s0,0,0,0c.3-.1.6-.3.8-.5-.3.2-.6.3-.9.5h0ZM202.5,176.9c.4-.2.8-.5,1.2-.8,0,0,.1,0,.2,0-.4.3-.9.6-1.4.8h0ZM200.9,171.2c-7.2,4.4-14.5,7.6-21.7,9.7-1.1.3-2.1.5-3.4.8-5.3,1.2-11,1.8-16.8,1.8-33.3,0-60.4-19.4-60.4-43.2v-.2c0-11.1,6-21.5,16.6-29.5l3-2.3-3.1-2.3c-5.2-3.8-8.5-9.3-9.3-15.4-.2-.8-.2-1.6-.2-2.4,0-.3,0-.6,0-.9,0-12.7,10.5-23.2,23.2-23.2s23.2,10.5,23.2,23.2-.2,3.5-.7,5.3c0,.3-.1.5-.2.7l-.2-.7c-.5-1.9-1.8-3.2-3.6-3.7-.4,0-.8-.1-1.1-.1-1.3,0-2.6.6-3.5,1.6-.7.8-1.2,1.7-1.7,2.7-.6,1.3-1.3,2.6-2.4,3-.3,0-.6.1-.9.1-1.7,0-3.9-.9-6-1.8-.7-.3-1.4-.6-2-.8-.5-.2-1.1-.3-1.6-.3s-.8,0-1.2.2c-2.8.8-3.3,4.2-3.4,5.4v.8l.3.4c4.6,6.3,8.1,13.4,10.4,20.9,1.4,4.6,2.3,9.5,2.8,14.7l.2.6c.8,1.5,1.8,2.9,3.1,4.1,0,0,4.2,4,9.9,4s2-.1,3.2-.4c2.7-.8,5.1-2.5,6.4-4.5.7-1.1,1-2.2,1.1-2.6.4-.9.5-2.1.2-3.1l-8.8-36.4h.4s1.5,0,1.5,0c4.9-.2,9.9-.2,14.2.4.9.2,1.8.2,2.7.3.3,0,.7,0,1.1.2.1,0,.2,0,.3,0,.3,0,.7.2,1.1.2h0c0,0,0,0,0,0,.1,0,.3.2.3.2l.8.2c.3,0,.5,0,1.1.2,3.7,1,9.3,2.7,15.9,5.3h.2c.8.4,1.7.8,2.6,1.2h0c0,0,0,0,0,0,6,2.6,12.9,6.1,19.8,10.6,0,0,0,0,.1,0,4.3,2.9,8.7,6.1,12.7,9.8,0,0,0,.2.1.2,1.1,1.6,1.6,3.2,1.1,4.7-1.8,6.3-32-3.8-33.9-4.4.9,1,9.8,11,4.7,16-3.1,2.9-12.4-1.5-20.2-6.1-4.1-3.6-15.1-6.6-15.1-6.6,2.4,2.5,23.8,24.5,34.1,25.7,1.3.1,2.6.2,3.7.2,4.1,0,7.2-1,9.4-3,2.2-2,3.4-4.9,3.4-8.6s0-1.9-.3-2.7c5.4,2.1,11.8,3.9,17.6,3.8-6.7,7.5-17.4,18.2-30.7,26.3h0ZM128.1,96.3v.3c.2,0,.4,0,.6,0,.3,0,.7.3,1.1.4l.6.2c1.9.8,4.8,2.1,7.4,2.1s1.4,0,1.9-.3c2.6-.7,3.8-3.1,4.7-4.8.3-.7.7-1.4,1.1-1.8.2-.2.5-.4.9-.4h.2c.6.2.9.7.9,1l8.6,35.2-3.8-2.2c-1-.6-2.1-.9-3.2-.9-2.3,0-4.4,1.2-5.6,3.2l-2.9,5c-.5-4.6-1.4-9.2-2.8-13.8-2.3-7.7-5.9-14.9-10.5-21.2.3-1.6.7-1.8.7-1.8l.2-.3h0,0Z"/>
          <path class="cls-2" d="M259.8,109.4c0,0,0-.6-.1-.7-.3-.5-.8-1-1.3-1.3-.8-.5-1.6-.6-2.2-.6-.7,0-2,.4-2.9,2.3-.9,1.8-2,3.2-3.4,4.4-1.3,1.1-3.6,3-11.5,3s-1.9,0-3.5-.1c-1.2,0-2.3.9-2.3,1.9,0,.5.2,1,.6,1.4.5.5,1.2.8,1.8.8h0c1.4.2,2.9.3,4.4.3,6.1-.2,8.6-.7,12-1.8.8-.3,2.8-2.1,3.2-1.8.5,0,.5,2.1.3,3-.8,3.6-1.9,6.9-3.3,9-.9,1.2-3.2,3.5-4.6,4-.7.1-1.2.5-1.6,1-.3.5-.4,1.1-.3,1.6.2.9,1.1,1.4,2.1,1.4h.3c4.5-1.4,14.1-9.6,12.3-27.9h0Z"/>
        </g>
      </g>
    </g>
  </g>
</svg>