<?xml version="1.0" encoding="UTF-8"?>
<svg xmlns="http://www.w3.org/2000/svg" viewBox="0 0 353 276">
  <defs>
    <style>
      .cls-1 {
        fill: #f4a5a5;
      }

      .cls-2 {
        fill: #141127;
      }
    </style>
  </defs>
  <g id="Capa_3" data-name="Capa 3">
    <rect class="cls-1" x="-20.33" y="-12.78" width="393.65" height="317.22"/>
  </g>
  <g id="Capa_2" data-name="Capa 2">
    <g>
      <path class="cls-2" d="M178.16,82.05c-3.19-7.12,2.88-19.31,5.22-22.64.12-2.52.99-4.8,2.39-6.18.83-.82,1.82-1.27,2.78-1.27h.07c3.13.06,6.9,1.93,8.08,6.98-.15.73-.66,1.33-1.35,1.55-.8.26-1.7-.02-2.24-.71-.05-.34-.39-2.19-2.08-3.35-.93-.64-1.92-.77-2.49-.78-.35.15-1.49,1.68-1.48,4.37v.86s-.65.56-.65.56c-1.26,1.46-7.39,13.5-4.88,19.09.25.9-.2,1.86-1.06,2.23-.84.36-1.83.05-2.32-.72Z"/>
      <path class="cls-2" d="M240.51,100.85l-.3-.74c-2.96-4.58-5.91-9.16-8.94-13.82l-.52-.52c-4.21-2.66-8.35-5.39-12.56-8.05l-3.4-2.04c.66-2.07,1.48-5.25,1.55-7.24.07-4.65-3.99-15.59-6.8-16.48-.96-.3-2.36-.4-3.39.19-1.63.96-3.03,2.88-3.84,5.17-1.26.81-3.99,2.59-5.91,5.17-.96,1.33-1.99,3.92-3.1,6.72-.74,1.85-1.85,4.51-2.51,5.54-1.7.15-4.88,2.44-9.09,17.8l-2.81,20.83c-39.23,27.85-47.43,37.53-48.02,38.27-8.35,10.12-28.8,35.61-19.49,54.15,7.02,14.26,23.35,20.54,46.03,17.8,2.44-.3,4.65-.74,6.72-1.4,2.07-.59,3.99-1.33,5.69-2.22,5.76-2.73,11.55-8.05,14.13-12.48.89-1.33,1.55-2.73,2.14-4.14,1.99-4.43,3.03-8.94,3.92-12.63.52-2.51-.03-5.17.86-6.87l11.16,19.95c1.48,2.66,1.62,6.01,1.4,9.71-.37,7.09,3.7,8.47,5.25,8.91,2.14.44,4.36-.22,5.91-1.4.89,1.33,2.96,2.07,4.65,2.36.52.07,1.03.07,1.48.07,2.51,0,4.5-1.08,5.69-2.88,1.42-2.16,1.18-4.57.22-5.6,1.4-.44,3.85-.62,4.36-2.17.44-1.18.37-3.1-2.22-5.32-3.77-3.25-8.94-4.4-11.01-3.8-1.85-2.14-6-8.23-2.01-31.94,12.56-16.33,11.41-28.65,7.94-49.71,3.03-.15,6.11-1.34,9.51-3.85,8.72-6.28,7.31-17.29,7.31-17.36ZM231.05,115.26c-3.99,2.88-12.71,4.73-12.71,4.73,3.84,22.61,4.88,32.43-7.54,48.54l-.37.81c-5.39,31.47,4.73,38.64,5.17,38.86l.89.59.89-.37c.15-.15,4.29-1.85,7.54.96,1.03.81,1.18,1.26,1.18,1.26-.6,1.22-1.21,1.19-2.32,1.19-1.11.07-1.67.58-1.96.95-.22.44-.59,1.06-.08,2.09.37.81,1.68,1.32,1.92,2.71.05.31,0,.37-.44,1.18-.44.74-1.33.96-2.07,1.03-1.63.15-3.39-.45-3.47-.59-.04-.06-.81-2.81-2.73-2.96,0,0-1.16-.19-1.48,0-.28.17-.59,1.18-.59,1.18-.22.66-1.92,1.7-3.32,1.4-1.7-.44-1.92-2.88-1.92-4.51v-.81c.22-4.36-.59-8.2-2.36-11.45l-10.56-18.91c-.44-1.7-1.92-2.81-3.62-2.95-1.7,0-3.25.89-3.92,2.51-.74,1.77-1.26,4.06-1.85,6.72-1.03,4.21-2.14,9.09-4.36,13.52-.66,1.55-1.55,3.03-2.66,4.43-2.44,3.4-5.91,6.35-10.79,8.42-1.63.67-3.32,1.26-5.25,1.63-1.33.37-2.81.59-4.36.81-20.98,2.59-35.98-3.03-42.33-15.74-8.2-16.4,10.27-38.93,18.4-48.83.07-.07,8.57-9.97,47.73-37.75l.66-.44,2.96-22.16c1.92-7.02,4.65-13.74,5.98-14.85h.15c2.07,0,3.18-2.73,5.25-7.91.96-2.29,1.99-4.88,2.73-5.84,1.55-2.14,4.06-3.84,5.32-4.51l.74-.37.22-.81c.59-2.22,1.85-3.47,2.36-3.77,1.26,1.77,4.36,8.79,4.28,12.71-.07,1.99-1.26,6.28-1.77,7.46l-.52,1.4,6.13,3.99c4.06,2.59,8.13,5.25,12.19,7.83,2.88,4.43,5.69,8.79,8.5,13.08.07,1.7.22,9.16-5.84,13.52Z"/>
      <path class="cls-2" d="M224.78,94.52c0,.2,0,.4-.03.6-.03.38-.09.75-.17,1.11-.3.6-.93,1.02-1.65,1.02s-1.38-.44-1.66-1.06c-.04-.19-.09-.37-.16-.55-.67-1.91-2.48-3.27-4.62-3.27-1.14,0-2.18.39-3.01,1.04-.11.09-.22.18-.32.28h0c-.32.21-.69.34-1.1.34-1.09,0-1.97-.88-1.97-1.97,0-.19.03-.37.08-.54.09-.2.18-.4.29-.59,1.28-2.39,3.81-4.01,6.71-4.01,4.21,0,7.62,3.41,7.62,7.62Z"/>
      <path class="cls-2" d="M194.56,210.34c-2.14-.52-1.55-1.18-1.55-1.18.81-1.92-.15-5.98-7.98-6.28-1.18-.07-2.51-.07-4.06.07-.66,1.55-1.55,3.03-2.66,4.43,1.85-.3,3.32-.44,4.58-.37,5.47.15,6.13,2.96,5.69,4.29,0,0-.44.44.96.74,1.4.37,3.1,1.55,2.73,2.88-1.18,5.17-11.82,5.39-15,5.17-2.59-.22-4.8-.81-6.5-1.77-1.55-.67-2.66-1.63-3.25-2.51-1.63.67-3.32,1.26-5.25,1.63,0,.07.07.07.07.15.59,1.11,1.55,2.07,2.73,2.95,4.28,3.18,12.04,4.73,20.54,3.03,9.97-1.92,13.3-7.68,13.08-8.79-.22-2.14-2.07-3.92-4.14-4.43Z"/>
      <path class="cls-2" d="M202.34,57.36s-10.59,24.61-5.64,32.93c4.95,8.31,19.74,35.52,9.06,60.89-7.61,18.07-27.23,23.15-40.61,42.64-13.73,20-33.93,16.66-41.92,10.36-7.99-6.3-11.92-17.67,1.7-38.78,13.62-21.11,32.75-33.73,43.59-40.6,10.84-6.87,13.37-16.98,13.37-16.98l2.53-20.21,3.8-9.16,6.36-6.76,7.75-14.31Z"/>
      <ellipse class="cls-2" cx="237.52" cy="100.26" rx="5.52" ry="7.31" transform="translate(-1.33 197.32) rotate(-45)"/>
    </g>
  </g>
</svg>