<?xml version="1.0" encoding="UTF-8"?>
<svg id="Capa_2" data-name="Capa 2" xmlns="http://www.w3.org/2000/svg" viewBox="0 0 48 48">
  <g>
    <path d="M35.35,3.33v.02c.05-.06.1-.11.15-.17-.06.05-.11.1-.15.15ZM26.55,38.22c.06.04.1.09.12.13,0,0,0,.01.01.01l.21-.29-.34.15ZM16.53,42.42c-.13-.31-.26-.58-.4-.82.13.24.26.51.39.82.06.13.15.25.28.35-.13-.11-.22-.23-.27-.35Z"/>
    <path d="M26.55,38.22c.06.04.1.09.12.13,0,0,0,.01.01.01l.21-.29-.34.15ZM5.42,42.08c.56.47,1.17.85,1.74,1.15-.57-.31-1.18-.69-1.74-1.15Z"/>
    <path d="M35.35,3.33v.02c.05-.06.1-.11.15-.17-.06.05-.11.1-.15.15Z"/>
    <path d="M43.11,13.28c-.09-1.04-1.98-8.37-4.36-10.88-.02-.02-.05-.03-.07-.03-.02,0-.03,0-.04.01-.04.02-.06.06-.05.11.03.15.05.31.05.48,0,.19-.03.39-.08.59-.03.12-.07.22-.12.32-.02.03-.02.07,0,.1,1.69,2.58,3.43,8.5,3.43,9.38,0,0,.01.1.01.1.05.2,4.84,20.07-6.84,25.85l-.21.15-.04.19c-.08.31-.9,3.08-5.68,5.4-1.05.5-2.01.77-2.78.77-.5,0-.92-.11-1.25-.33-.59-.41-.88-1.19-.82-2.2.1-1.11,1.21-2.61,1.94-3.59.57-.77.76-1.02.55-1.38-.03-.06-.09-.12-.16-.17-.08-.04-.18-.09-.37-.09-.67.02-3.22,1.29-4.16,3.16-.26.48-.48.96-.65,1.44h-.18c-1.59,0-3.49-.5-3.66-.67-1.31-3.07-3.05-3.54-3.56-3.61-.11-.02-.21-.02-.3-.02-.38,0-.68.12-.88.35l-.08.15c-.22.68.32,1.25.8,1.77.29.31.58.62.76.97.31.61.41,1.11.29,1.47-.06.2-.19.34-.37.43-.33.16-.76.25-1.27.25-1.26,0-2.72-.49-3.27-.67-1.24-.39-4.24-1.58-5.36-4.13-.69-1.58-.53-3.46.47-5.59,3.77-7.96,12.06-9.38,13-9.51.04,0,.17,0,.4,0,1.57,0,6.88-.18,9.21-2.52,1.59-1.62,1.75-4.08,1.59-5.88-.23-.68-.34-1.38-.34-2.08,0-3.06,2.07-5.68,5.02-6.38l.27-.11.07-.19c.19-.55.71-1.92,1.49-2.98-.03-.11-.06-.22-.08-.36-.02-.11-.03-.23-.03-.34,0-.09,0-.17.02-.25.01-.16.04-.29.08-.42.02-.04,0-.09-.04-.12-.02-.01-.04-.02-.06-.02s-.04,0-.06.02c-1.27.99-2.1,2.93-2.33,3.65-3.31.95-5.62,4.04-5.62,7.51,0,.82.13,1.64.37,2.34.11,1.47-.02,3.49-1.26,4.74-2.03,2.05-7.33,2.15-8.38,2.15h-.44c-1.01.15-9.97,1.7-14.02,10.24-1.16,2.45-1.32,4.68-.48,6.61.43,1.01,1.15,1.93,2.15,2.74.5.41,1.07.79,1.76,1.16.98.52,1.8.8,2.21.93.96.32,2.38.74,3.67.74.72,0,1.33-.13,1.82-.38.47-.23.83-.64,1-1.17.16-.49.22-1.31-.38-2.44-.2-.38-.47-.71-.74-1,.29.21.61.53.95,1.01.13.19.27.39.4.64.14.24.27.5.39.81.06.14.16.27.3.39.94.8,3.62,1.04,4.48,1.04.21,0,.43-.01.61-.03.31-.02.58-.23.67-.52.18-.55.43-1.06.68-1.58.17-.32.42-.65.75-.98-.54.92-.84,1.71-.91,2.41-.08,1.16.23,2.19.88,2.88.58.64,1.43.97,2.44.97.95,0,2.07-.3,3.31-.9,4.65-2.24,5.93-4.89,6.22-5.87,12.26-6.4,7.28-26.81,7.23-27Z"/>
    <path d="M35.83,40.19c-.32.98-1.58,3.63-6.22,5.87-1.23.59-2.32.89-3.27.89s-1.8-.32-2.37-.94c-.63-.68-.93-1.68-.85-2.81.09-.99.66-2.05,1.27-2.96-.51.41-1.01.91-1.3,1.48-.23.46-.5,1.01-.69,1.59-.08.25-.31.43-.58.45-.18.02-.39.03-.6.03-.93,0-3.52-.26-4.42-1.02-.13-.11-.22-.23-.27-.35-.13-.31-.26-.58-.4-.82-.13-.25-.27-.46-.4-.65-.58-.84-1.15-1.2-1.53-1.35.07.08.14.15.19.21.33.35.7.74.96,1.23.58,1.1.52,1.89.37,2.36-.16.49-.49.89-.95,1.11-.49.25-1.09.37-1.78.37-1.29,0-2.7-.42-3.64-.73-.52-.16-1.32-.46-2.19-.92-.57-.31-1.18-.69-1.74-1.15-.86-.7-1.64-1.58-2.12-2.7-.83-1.91-.67-4.1.48-6.53,4.25-8.96,13.87-10.16,13.97-10.18h.4c1.04,0,6.39-.1,8.45-2.18,1.26-1.28,1.4-3.32,1.29-4.82-.24-.71-.37-1.52-.37-2.33,0-3.45,2.27-6.47,5.55-7.41.38-1.01,1.19-2.76,2.36-3.67-.05.14-.08.29-.09.45-.02.08-.02.17-.02.26,0,.12.01.24.03.36v.02c.02.12.05.24.08.35-.8,1.02-1.34,2.49-1.49,2.92l-.07.19-.2.05c-3,.71-5.1,3.37-5.1,6.48,0,.72.12,1.43.35,2.11.15,1.82-.02,4.2-1.57,5.78-2.64,2.66-9.26,2.5-9.53,2.49-.04.01-9.09,1.14-13.09,9.57-1.01,2.15-1.17,4.06-.47,5.67,1.13,2.58,4.16,3.79,5.42,4.19.81.27,3.28,1.09,4.62.42.14-.07.33-.21.42-.49.13-.4.02-.93-.3-1.55-.19-.36-.5-.69-.79-1-.48-.51-.97-1.04-.77-1.66l.07-.13c.21-.25.6-.35,1.08-.28.5.07,2.2.55,3.48,3.55.24.26,2.45.79,4,.73.2-.55.44-1.06.67-1.49.92-1.83,3.41-3.09,4.07-3.11h.03c.13,0,.22.04.29.08.06.04.1.09.12.13,0,0,0,.01.01.01.17.3-.02.54-.61,1.34-.67.9-1.8,2.42-1.9,3.56-.07,1.05.23,1.86.86,2.29.86.59,2.33.43,4.12-.43,5.1-2.47,5.73-5.44,5.74-5.47l.04-.18.16-.08c11.79-5.83,6.94-25.76,6.89-25.96v-.09c0-.91-1.76-6.82-3.46-9.42.06-.11.1-.22.13-.34.05-.19.08-.4.08-.61h0c0-.18-.02-.34-.05-.5,2.36,2.49,4.25,9.85,4.33,10.82.31,1.23,4.66,20.72-7.18,26.9Z"/>
    <path d="M34.77,9.19c-.11-.05-.19-.08-.3-.08-.05-.03-.11-.03-.16-.03-1.16-.08-2.15.78-2.24,1.97-.05.78.35,1.51.97,1.89.05.05.11.08.16.08.03.03.08.03.16.05.27,0,.54-.19.57-.51,0-.13-.03-.22-.08-.3-.03-.03-.05-.05-.05-.11-.19-.24-.27-.54-.24-.86.03-.57.43-1.05,1-1.19.03,0,.08-.03.13-.03.19-.05.32-.24.32-.43.03-.22-.08-.38-.24-.46Z"/>
    <path d="M38.73,2.96h0c0,.22-.03.43-.08.62-.03.12-.07.23-.13.34-.28.64-.85,1.07-1.5,1.07-.72,0-1.34-.53-1.59-1.29-.03-.11-.06-.23-.08-.35.05-.06.1-.11.15-.17-.06.05-.11.1-.15.15-.02-.12-.03-.24-.03-.36,0-.09,0-.18.02-.26.01-.16.04-.31.09-.45.24-.76.86-1.31,1.59-1.31.79,0,1.47.65,1.66,1.52.03.16.05.32.05.49Z"/>
    <path d="M35.5,3.18c-.05.06-.1.11-.15.17v-.02s.09-.1.15-.15Z"/>
  </g>
  <path d="M34.59,21.16c-.08.09-.22.11-.32.07-.12-.05-.17-.19-.08-.3.74-.92,3.1-4.05,3.36-7.53.16-2.1-.25-4.19-1.22-6.2-.01-.09.05-.18.15-.21.11-.04.24,0,.31.08.44.91.96,2.24,1.18,3.87.11.83.14,1.66.07,2.5-.27,3.51-2.02,6.14-3.45,7.73Z"/>
  <path d="M39,17.45c-.05.1-.19.15-.31.12-.11-.03-.19-.12-.18-.22.37-1.09.77-2.78.59-4.86-.05-.58-.15-1.16-.29-1.74-.43-1.74-1.25-3.4-2.45-4.94-.03-.09.02-.19.11-.24.09-.05.22-.04.31.02.5.64,1.06,1.46,1.56,2.46.42.85.74,1.72.96,2.62.54,2.23.44,4.51-.31,6.78Z"/>
</svg>