<?xml version="1.0" encoding="UTF-8"?>
<svg id="Capa_2" data-name="Capa 2" xmlns="http://www.w3.org/2000/svg" viewBox="0 0 56.93 56.93">
  <path d="M46.5,38.15c-1.03-4.36-4.37-8.64-7.65-9.92-4.48-1.75-9.61-8.77-10.54-10.11.28-.72.7-2.28.52-3.55.28-.6,1.11-2.8,1.29-7.62,0-.06-.12-.7-.7-.97-.48-.24-1.05-.14-1.73.24-1.23.7-2.43,1.51-2.86,1.83-.92-.12-4.69-.52-6.56.44l-4.38-2.35c-.1-.06-.9-.4-1.49.1-.5.4-.76,1.2-.51,2.35.06.34.28.99.56,1.81.42,1.27,1.06,2.82,1.24,3.86.06.32.12.5.43.56v.48c.08,1.19.82,2.34,1.83,3.3,0,.76.12,2.71,1.15,3.38.24.16.64.28,1.17.38-.14,1.47-.36,4.87.18,7.5.4,2.03,1.57,3.88,4.2,6.6l.16.16.22-.02c1.39-.08,3.52.04,5.75,1.15,1.23.6,2.71,1.85,3.5,2.71-1.85-1.43-5.95-4.46-11.9-3.12-3.86.88-5.59,2.94-6.37,4.52-1.15,2.35-.92,5.01-.18,6.6.66,1.39,2.21,2.51,4.08,2.9,1.53.34,3.02.14,4.16-.56.1.16.22.32.4.46.62.48,1.55.58,2.8.28.66.14,3.48.76,6.88.76,3.98,0,8.65-.68,11.69-4.06,2.25-2.51,3.52-6.38,2.64-10.08ZM20.68,38.55c5.65-1.27,9.47,1.5,11.12,2.82.64.48.9.7,1.19.66.64-.06.94-.97.98-1.11.24-1.25-3.12-3.82-4.56-4.54-2.31-1.13-4.42-1.05-5.93-.99-2.73-2.86-3.41-4.2-3.69-5.69-.5-2.45-.32-5.65-.18-7.2.95.06,1.71-.08,2.79-.42,1.49-.46,2.43-1.33,2.92-1.81.26-.24.24-.64.02-.82-.2-.18-.77-.18-.95.11-1.91,2.21-5.93,2.11-6.77,1.58-.52-.34-.58-1.84-.56-2.79v-.22l-.18-.16c-.9-.8-1.53-1.68-1.59-2.68-.06-1.33.64-2.9,1.99-4.4.08-.1.16-.18.24-.26l.04-.04c.06-.1-.08-.36-.22-.44-.2-.16-.54-.1-.84.12-.58.48-1.53,1.69-2.07,2.88-.26-.97-.64-2.13-.95-3.08-.26-.78-.48-1.43-.52-1.71-.24-1.11,0-1.33.02-1.35.1-.08.36-.02.44,0l4.78,2.79.26-.16c1.35-.9,5.13-.66,6.44-.48l.2.04.16-.12s1.22-1.02,2.67-1.86c.54-.3.76-.22.82-.2.1.04.14.18.14.18h.02c-.22,5.21-1.07,7.02-1.07,7.04l-.1.18.04.18c.22.97-.48,3.02-.78,3.72l-.1.24.14.22c.24.36,5.95,8.65,11.16,10.7,3,1.17,5.69,5.16,6.64,9.24.3,1.19-.08,3.38-.29,4.41-1.15,5.67-13.33,4.67-17.33,4.34-.36-.04-.68-.2-.86-.5-.4-.64-1.07-1.09-1.87-1.15.02-.22.04-.46.04-.68,0-3.06-2.49-5.55-5.55-5.55-.86,0-1.67.2-2.41.56,1.01-.86,2.45-1.23,4.08-1.6Z"/>
  <ellipse cx="17.93" cy="21.31" rx="2.27" ry="1.66" transform="translate(-7.3 9.51) rotate(-24.86)"/>
  <path d="M20.41,15.76s-.06-.08-.08-.12c-.05-.08-.09-.16-.12-.24-.03-.16.04-.33.18-.43s.33-.11.48-.03c.03.03.07.06.11.09.4.28.95.29,1.37,0,.22-.16.37-.39.45-.63.01-.03.02-.07.02-.1h0c.03-.09.09-.17.17-.22.21-.15.51-.11.67.11.03.04.05.08.06.12.01.05.02.1.03.16.08.65-.18,1.33-.75,1.74-.83.6-1.98.41-2.58-.42Z"/>
</svg>