<?xml version="1.0" encoding="UTF-8"?>
<svg id="Capa_2" data-name="Capa 2" xmlns="http://www.w3.org/2000/svg" viewBox="0 0 56.93 56.93">
  <path d="M16.13,17.92c.02-.08.03-.16.04-.24,0-.04,0-.09,0-.13,0-.92-.75-1.67-1.67-1.67-.64,0-1.19.36-1.47.88-.02.04-.04.09-.06.13-.01.04-.02.08-.02.12,0,.24.19.43.43.43.09,0,.17-.03.24-.07h0s.05-.04.07-.06c.18-.14.41-.23.66-.23.47,0,.87.3,1.01.72.01.04.03.08.03.12.06.14.2.23.37.23s.3-.09.36-.22Z"/>
  <path d="M24.39,44.71s-.01,0-.02,0c-.1,0-.26.51-.5.81-.18.29-.49.57-.89.82-.33.2-1.36.73-2.13.73-.3,0-.51-.08-.67-.32,0-.11.1-.27.21-.38.06-.05.23-.19.11-.51-.05-.05-.09-.14-.08-.26.03-.22.25-.46.72-.72.2-.12.93-.52.92-.61-.01-.09-.9-.44-1.22-.55-.29.12-.53.24-.73.36-.88.5-1.1,1.02-1.13,1.36-.03.35.13.62.27.65,0,0-.02.05-.14.15-.39.35-.54.9-.37,1.33.08.28.79.7,1.84.7.45,0,.94-.08,1.43-.22,1.56-.45,2.86-1.4,3.37-2.46,0,0,.22-.51.19-.84-.09,0-.38,0-.53,0-.2,0-.44,0-.65-.03Z"/>
  <path d="M34.9,20.38c-.1-.04-.2-.08-.3-.12-.02-.02-.04-.02-.06-.02,0,0-.02,0-.03-.01-1.33-.66-2.74-1.15-4.22-1.47-.01,0-.03,0-.04-.01-.14-.04-.3-.06-.42-.1-.04-.02-.08-.04-.12-.04-.1-.04-.22-.06-.36-.08l-.24-.06h-.04s-.03,0-.04,0c-.73-.17-1.16-.21-1.41-.21,0,0-.01,0-.02,0h-.04c-.91-.09-1.91-.15-2.98-.11.06-.38.1-.74.1-1.1,0-4.18-3.4-7.58-7.58-7.58s-7.58,3.4-7.58,7.58c0,.1,0,.22.02.32,0,.14.02.32.02.5.1,1.25.32,3.32.83,4.39-.69,1.36-2.88,5.81-2.68,8.72v.06c.04,7.06,7.8,12.79,17.35,12.79.39,0,4.61.2,7.06-.34-.12.62-.22,1.81-.66,2.86-.4-.04-1.37-.11-2.11.1-.1.02-.18.06-.22.08-.24.06-.43.14-.61.24-1.57.7-1.44,1.61-1.12,1.93,0,0,.18.08-.22.38-.37.28-.61.8-.47,1.23.2.6,1.21,1.22,3.44,1.02,2.07-.22,3.66-1.73,4.35-2.91.64-1.09,2.45-5.05,3.21-8.57,5.07-3.36,8.51-7.76,9.35-8.87.12-.44.14-.46.14-.46.04-.22.04-.54-.2-1.02-3.28-4.61-8.38-7.48-12.1-9.11ZM31.6,19.17c.18.06.36.12.54.18.55.18,1.16.41,1.81.66-.64-.25-1.26-.48-1.81-.66l-.54-.18s-.06-.02-.09-.03c.03.01.06.02.09.03ZM31.44,49.81c-.62.31-2.74.95-3.4,0-.2-.24.06-.62.32-.82.26-.18.14-.22.14-.22-.22-.24-.26-.69.81-1.23.76-.38,1.73-.14,1.73-.14l1.08.28c.08,0,1.27-3.27,1.55-5.35,0-.04.26-.24.64-.48.02-.02.08-.06.19-.12.18-.12.38-.24.58-.36,0,0,.02-.02.06-.04,0,0,.01,0,.02-.01,0,0-.01,0-.02.01-.04.02-.06.04-.06.04-.2.12-.4.24-.58.36.5-.22.97-.48,1.43-.78,0,0,0,0,0,0-.36.94-2.17,7.66-4.5,8.86ZM36.28,40.71s0,0,0,0c.07-.04.15-.08.22-.12-.08.04-.15.09-.22.13h0ZM36.47,40.62c.11-.06.22-.12.32-.2.01,0,.03-.02.04-.02-.11.09-.24.15-.36.22ZM36.04,39.12c-1.89,1.16-3.8,2.01-5.69,2.55-.28.08-.56.14-.88.2-1.39.32-2.88.46-4.41.46-8.74,0-15.86-5.1-15.86-11.36v-.06c.02-2.91,1.57-5.65,4.36-7.74l.79-.6-.81-.6c-1.36-.99-2.23-2.44-2.45-4.05-.04-.22-.04-.42-.06-.64-.02-.08-.02-.16-.02-.24,0-3.34,2.75-6.09,6.09-6.09s6.09,2.75,6.09,6.09c0,.46-.06.92-.18,1.39-.01.07-.03.13-.04.19l-.04-.17c-.12-.49-.47-.85-.93-.97-.1-.02-.2-.04-.3-.04-.35,0-.68.14-.92.41-.18.2-.31.44-.44.7-.17.34-.34.69-.62.78-.07.02-.16.03-.25.03-.46,0-1.04-.24-1.57-.46-.19-.09-.37-.16-.52-.21-.14-.05-.28-.07-.43-.07-.11,0-.22.01-.33.04-.73.2-.86,1.11-.9,1.41v.22l.09.12c1.21,1.67,2.13,3.51,2.74,5.49.37,1.22.62,2.51.73,3.85l.05.16c.2.41.48.76.81,1.07.01.01,1.12,1.06,2.59,1.06.26,0,.53-.04.84-.11.7-.2,1.34-.65,1.67-1.17.18-.28.26-.58.29-.69.1-.25.12-.54.05-.82l-2.32-9.55h.11s.4-.03.4-.03c1.28-.04,2.61-.04,3.72.1.24.04.46.06.7.08.08,0,.18.02.28.04.03,0,.05,0,.07.01.09.02.17.05.28.06v-.02h0s.09.04.09.04l.2.04c.08,0,.14.02.28.05.98.26,2.45.7,4.18,1.4.02,0,.04.02.06.02.22.09.46.18.69.29v-.02s0,0,0,0c1.57.69,3.4,1.59,5.21,2.78,0,0,.02,0,.04.02,1.13.76,2.29,1.61,3.34,2.57,0,.02.02.04.04.06.28.41.42.83.3,1.23-.46,1.65-8.4-.99-8.91-1.15.23.26,2.58,2.88,1.23,4.19-.8.76-3.26-.39-5.31-1.59-1.08-.95-3.96-1.73-3.96-1.73.64.66,6.25,6.43,8.97,6.75.34.04.68.06.98.06,1.07,0,1.89-.26,2.46-.78.58-.52.88-1.29.88-2.27,0-.26-.02-.5-.08-.71,1.41.55,3.1,1.03,4.61,1.01-1.75,1.97-4.57,4.77-8.07,6.92ZM16.92,19.46v.08s.09,0,.14.03c.09.03.19.07.29.12l.14.06c.5.22,1.25.55,1.95.55.18,0,.35-.02.51-.07.69-.19,1-.81,1.22-1.26.08-.18.19-.38.28-.48.06-.06.13-.09.25-.09.02,0,.03,0,.05,0,.16.04.22.19.25.27l2.25,9.23-1.01-.58c-.26-.15-.55-.23-.85-.23-.6,0-1.17.33-1.47.85l-.76,1.32c-.12-1.19-.36-2.42-.72-3.64-.61-2.01-1.55-3.91-2.77-5.57.07-.41.18-.48.18-.48l.05-.09s0,0,0,0Z"/>
  <path d="M51.51,22.89s-.02-.16-.03-.18c-.09-.14-.2-.25-.33-.34-.21-.13-.41-.16-.58-.17-.18.01-.53.11-.77.61-.22.46-.52.84-.88,1.14-.33.28-.96.8-3.01.8-.24,0-.5,0-.91-.04-.31,0-.59.23-.61.49,0,.13.04.27.14.38.12.13.31.21.48.21h0c.37.05.76.09,1.15.08,1.6-.04,2.26-.17,3.14-.48.2-.07.74-.54.83-.46.14,0,.12.55.07.79-.22.94-.49,1.82-.86,2.36-.23.33-.83.91-1.2,1.05-.17.03-.33.13-.42.27-.08.13-.11.29-.07.43.07.22.29.38.55.38h.07c1.18-.36,3.72-2.53,3.24-7.32Z"/>
</svg>