<?xml version="1.0" encoding="UTF-8"?>
<svg xmlns="http://www.w3.org/2000/svg" viewBox="0 0 353 276">
  <defs>
    <style>
      .cls-1 {
        fill: #47b4d2;
      }

      .cls-2 {
        fill: #141127;
      }
    </style>
  </defs>
  <g id="Capa_3" data-name="Capa 3">
    <rect class="cls-1" x="-15.36" y="-20.61" width="393.65" height="317.22"/>
  </g>
  <g id="Capa_2" data-name="Capa 2">
    <g>
      <path class="cls-2" d="M239.53,171.22c-3.79-15.95-15.99-31.64-28.01-36.3-16.38-6.41-35.17-32.11-38.59-36.99,1.02-2.62,2.55-8.34,1.89-13,1.02-2.18,4.08-10.27,4.73-27.89,0-.22-.44-2.55-2.55-3.57-1.75-.87-3.86-.51-6.34.87-4.51,2.55-8.88,5.53-10.49,6.7-3.35-.44-17.19-1.89-24.03,1.6l-16.02-8.59c-.36-.22-3.28-1.46-5.46.36-1.82,1.46-2.8,4.38-1.85,8.6.22,1.24,1.02,3.64,2.04,6.63,1.53,4.66,3.89,10.33,4.54,14.12.22,1.16.42,1.84,1.59,2.06v1.75c.29,4.37,3,8.57,6.71,12.07,0,2.77.44,9.9,4.22,12.38.87.58,2.33,1.02,4.3,1.38-.51,5.39-1.31,17.84.66,27.45,1.46,7.43,5.75,14.2,15.37,24.18l.58.58.8-.07c5.1-.29,12.89.15,21.05,4.22,4.51,2.18,9.9,6.77,12.82,9.9-6.77-5.24-21.77-16.31-43.55-11.43-14.13,3.2-20.46,10.78-23.3,16.53-4.22,8.59-3.35,18.35-.66,24.18,2.4,5.1,8.08,9.18,14.93,10.63,5.61,1.24,11.07.51,15.22-2.04.36.58.8,1.16,1.46,1.67,2.26,1.75,5.68,2.11,10.27,1.02,2.4.51,12.74,2.77,25.2,2.77,14.56,0,31.67-2.5,42.81-14.88,8.23-9.18,12.87-23.36,9.67-36.9ZM145.03,172.71c20.68-4.66,34.66,5.51,40.71,10.32,2.33,1.75,3.28,2.55,4.37,2.4,2.33-.22,3.46-3.54,3.6-4.05.87-4.59-11.43-13.98-16.68-16.6-8.45-4.15-16.17-3.86-21.7-3.64-9.98-10.49-12.5-15.37-13.52-20.84-1.82-8.96-1.16-20.68-.66-26.36,3.5.22,6.28-.31,10.21-1.55,5.46-1.67,8.88-4.88,10.7-6.63.95-.87.87-2.33.07-2.99-.73-.66-2.83-.68-3.49.42-6.99,8.08-21.71,7.74-24.76,5.77-1.89-1.24-2.11-6.73-2.04-10.22v-.8l-.66-.58c-3.28-2.91-5.61-6.16-5.83-9.8-.22-4.88,2.33-10.63,7.28-16.09.29-.36.58-.66.87-.95l.15-.15c.22-.36-.29-1.31-.8-1.6-.73-.58-1.97-.36-3.06.44-2.11,1.75-5.61,6.19-7.57,10.56-.95-3.57-2.33-7.79-3.5-11.29-.95-2.84-1.75-5.24-1.89-6.26-.87-4.08,0-4.88.07-4.95.36-.29,1.31-.07,1.6,0l17.51,10.21.95-.58c4.95-3.28,18.78-2.4,23.58-1.75l.73.15.58-.44c.07-.07,4.46-3.73,9.77-6.79,1.97-1.09,2.77-.8,2.99-.73.36.15.51.66.51.66h.07c-.8,19.08-3.9,25.71-3.9,25.78l-.36.66.15.66c.8,3.57-1.75,11.07-2.84,13.62l-.36.87.51.8c.87,1.31,21.77,31.68,40.85,39.18,11,4.3,20.82,18.88,24.31,33.81,1.09,4.37-.3,12.36-1.07,16.15-4.2,20.77-48.8,17.11-63.44,15.87-1.31-.15-2.48-.73-3.13-1.82-1.46-2.33-3.93-4.01-6.85-4.22.07-.8.15-1.68.15-2.48,0-11.21-9.1-20.32-20.32-20.32-3.13,0-6.12.73-8.81,2.04,3.71-3.13,8.96-4.49,14.93-5.87Z"/>
      <ellipse class="cls-2" cx="134.96" cy="109.57" rx="8.3" ry="6.06" transform="translate(-33.56 66.89) rotate(-24.86)"/>
      <path class="cls-2" d="M144.03,89.28c-.1-.15-.2-.29-.29-.44-.18-.29-.33-.58-.45-.88-.09-.59.14-1.21.66-1.58.53-.38,1.22-.4,1.75-.09.13.12.26.22.4.31,1.47,1.03,3.48,1.07,5.02-.03.82-.59,1.37-1.41,1.63-2.31.04-.12.07-.24.09-.37h0c.12-.32.33-.6.62-.82.78-.56,1.88-.38,2.44.4.1.13.17.28.23.43.04.19.08.38.1.57.31,2.38-.67,4.86-2.76,6.36-3.03,2.18-7.25,1.49-9.43-1.54Z"/>
    </g>
  </g>
</svg>