<?xml version="1.0" encoding="UTF-8"?>
<svg xmlns="http://www.w3.org/2000/svg" version="1.1" viewBox="0 0 353 276">
  <defs>
    <style>
      .cls-1 {
        fill: #47b4d2;
      }

      .cls-2 {
        fill: #141127;
      }
    </style>
  </defs>
  <!-- Generator: Adobe Illustrator 28.7.9, SVG Export Plug-In . SVG Version: 1.2.0 Build 218)  -->
  <g>
    <g id="Capa_1">
      <g id="Capa_3">
        <rect class="cls-1" x="-15.4" y="-20.6" width="393.7" height="317.2"/>
      </g>
      <g id="Capa_2">
        <g>
          <path class="cls-2" d="M239.5,171.2c-3.8-15.9-16-31.6-28-36.3-16.4-6.4-35.2-32.1-38.6-37,1-2.6,2.6-8.3,1.9-13,1-2.2,4.1-10.3,4.7-27.9,0-.2-.4-2.5-2.6-3.6-1.8-.9-3.9-.5-6.3.9-4.5,2.5-8.9,5.5-10.5,6.7-3.4-.4-17.2-1.9-24,1.6l-16-8.6c-.4-.2-3.3-1.5-5.5.4-1.8,1.5-2.8,4.4-1.8,8.6.2,1.2,1,3.6,2,6.6,1.5,4.7,3.9,10.3,4.5,14.1.2,1.2.4,1.8,1.6,2.1v1.8c.3,4.4,3,8.6,6.7,12.1,0,2.8.4,9.9,4.2,12.4.9.6,2.3,1,4.3,1.4-.5,5.4-1.3,17.8.7,27.5,1.5,7.4,5.8,14.2,15.4,24.2l.6.6h.8c5.1-.4,12.9,0,21.1,4.1,4.5,2.2,9.9,6.8,12.8,9.9-6.8-5.2-21.8-16.3-43.6-11.4-14.1,3.2-20.5,10.8-23.3,16.5-4.2,8.6-3.3,18.4-.7,24.2,2.4,5.1,8.1,9.2,14.9,10.6,5.6,1.2,11.1.5,15.2-2,.4.6.8,1.2,1.5,1.7,2.3,1.8,5.7,2.1,10.3,1,2.4.5,12.7,2.8,25.2,2.8s31.7-2.5,42.8-14.9c8.2-9.2,12.9-23.4,9.7-36.9h0ZM145,172.7c20.7-4.7,34.7,5.5,40.7,10.3,2.3,1.8,3.3,2.6,4.4,2.4,2.3-.2,3.5-3.5,3.6-4.1.9-4.6-11.4-14-16.7-16.6-8.4-4.1-16.2-3.9-21.7-3.6-10-10.5-12.5-15.4-13.5-20.8-1.8-9-1.2-20.7-.7-26.4,3.5.2,6.3-.3,10.2-1.6,5.5-1.7,8.9-4.9,10.7-6.6.9-.9.9-2.3,0-3-.7-.7-2.8-.7-3.5.4-7,8.1-21.7,7.7-24.8,5.8-1.9-1.2-2.1-6.7-2-10.2v-.8l-.7-.6c-3.3-2.9-5.6-6.2-5.8-9.8-.2-4.9,2.3-10.6,7.3-16.1.3-.4.6-.7.9-.9v-.2c.4-.4-.1-1.3-.7-1.6-.7-.6-2-.4-3.1.4-2.1,1.8-5.6,6.2-7.6,10.6-.9-3.6-2.3-7.8-3.5-11.3-.9-2.8-1.8-5.2-1.9-6.3-.9-4.1,0-4.9,0-5,.4-.3,1.3,0,1.6,0l17.5,10.2.9-.6c4.9-3.3,18.8-2.4,23.6-1.8l.7.2.6-.4c0,0,4.5-3.7,9.8-6.8,2-1.1,2.8-.8,3-.7.4.2.5.7.5.7h0c-.8,19.1-3.9,25.7-3.9,25.8l-.4.7v.7c.9,3.6-1.6,11.1-2.7,13.6l-.4.9.5.8c.9,1.3,21.8,31.7,40.8,39.2,11,4.3,20.8,18.9,24.3,33.8,1.1,4.4-.3,12.4-1.1,16.1-4.2,20.8-48.8,17.1-63.4,15.9-1.3-.1-2.5-.7-3.1-1.8-1.5-2.3-3.9-4-6.9-4.2,0-.8.1-1.7.1-2.5,0-11.2-9.1-20.3-20.3-20.3s-6.1.7-8.8,2c3.7-3.1,9-4.5,14.9-5.9h0Z"/>
          <ellipse class="cls-2" cx="135" cy="109.6" rx="8.3" ry="6.1" transform="translate(-33.6 66.9) rotate(-24.9)"/>
          <path class="cls-2" d="M144,89.3c-.1-.2-.2-.3-.3-.4-.2-.3-.3-.6-.4-.9,0-.6.1-1.2.7-1.6.5-.4,1.2-.4,1.8,0,.1.1.3.2.4.3,1.5,1,3.5,1.1,5,0,.8-.6,1.4-1.4,1.6-2.3,0-.1,0-.2,0-.4h0c.1-.3.3-.6.6-.8.8-.6,1.9-.4,2.4.4.1.1.2.3.2.4,0,.2,0,.4.1.6.3,2.4-.7,4.9-2.8,6.4-3,2.2-7.2,1.5-9.4-1.5h0Z"/>
        </g>
      </g>
    </g>
  </g>
</svg>