<?xml version="1.0" encoding="UTF-8"?>
<svg xmlns="http://www.w3.org/2000/svg" version="1.1" viewBox="0 0 353 276">
  <defs>
    <style>
      .cls-1 {
        fill: #f4a5a5;
      }

      .cls-2 {
        fill: #141127;
      }
    </style>
  </defs>
  <!-- Generator: Adobe Illustrator 28.7.9, SVG Export Plug-In . SVG Version: 1.2.0 Build 218)  -->
  <g>
    <g id="Capa_1">
      <g id="Capa_3">
        <rect class="cls-1" x="-20.3" y="-12.8" width="393.7" height="317.2"/>
      </g>
      <g id="Capa_2">
        <g>
          <path class="cls-2" d="M178.2,82c-3.2-7.1,2.9-19.3,5.2-22.6.1-2.5,1-4.8,2.4-6.2.8-.8,1.8-1.3,2.8-1.3h0c3.1,0,6.9,1.9,8.1,7-.1.7-.7,1.3-1.4,1.5-.8.3-1.7,0-2.2-.7,0-.3-.4-2.2-2.1-3.3-.9-.6-1.9-.8-2.5-.8-.4.2-1.5,1.7-1.5,4.4v.9l-.6.6c-1.3,1.5-7.4,13.5-4.9,19.1.2.9-.2,1.9-1.1,2.2-.8.4-1.8,0-2.3-.7h0Z"/>
          <path class="cls-2" d="M240.5,100.8l-.3-.7c-3-4.6-5.9-9.2-8.9-13.8l-.5-.5c-4.2-2.7-8.4-5.4-12.6-8.1l-3.4-2c.7-2.1,1.5-5.2,1.6-7.2,0-4.7-4-15.6-6.8-16.5-1-.3-2.4-.4-3.4.2-1.6,1-3,2.9-3.8,5.2-1.3.8-4,2.6-5.9,5.2-1,1.3-2,3.9-3.1,6.7-.7,1.8-1.9,4.5-2.5,5.5-1.7.2-4.9,2.4-9.1,17.8l-2.8,20.8c-39.2,27.9-47.4,37.5-48,38.3-8.3,10.1-28.8,35.6-19.5,54.2,7,14.3,23.3,20.5,46,17.8,2.4-.3,4.6-.7,6.7-1.4,2.1-.6,4-1.3,5.7-2.2,5.8-2.7,11.6-8.1,14.1-12.5.9-1.3,1.6-2.7,2.1-4.1,2-4.4,3-8.9,3.9-12.6.5-2.5,0-5.2.9-6.9l11.2,19.9c1.5,2.7,1.6,6,1.4,9.7-.4,7.1,3.7,8.5,5.2,8.9,2.1.4,4.4-.2,5.9-1.4.9,1.3,3,2.1,4.6,2.4.5,0,1,0,1.5,0,2.5,0,4.5-1.1,5.7-2.9,1.4-2.2,1.2-4.6.2-5.6,1.4-.4,3.9-.6,4.4-2.2.4-1.2.4-3.1-2.2-5.3-3.8-3.2-8.9-4.4-11-3.8-1.9-2.1-6-8.2-2-31.9,12.6-16.3,11.4-28.6,7.9-49.7,3-.2,6.1-1.3,9.5-3.8,8.7-6.3,7.3-17.3,7.3-17.4h0ZM231.1,115.3c-4,2.9-12.7,4.7-12.7,4.7,3.8,22.6,4.9,32.4-7.5,48.5l-.4.8c-5.4,31.5,4.7,38.6,5.2,38.9l.9.6.9-.4c.1-.1,4.3-1.9,7.5,1,1,.8,1.2,1.3,1.2,1.3-.6,1.2-1.2,1.2-2.3,1.2-1.1,0-1.7.6-2,.9-.2.4-.6,1.1,0,2.1.4.8,1.7,1.3,1.9,2.7,0,.3,0,.4-.4,1.2-.4.7-1.3,1-2.1,1-1.6.1-3.4-.4-3.5-.6,0,0-.8-2.8-2.7-3,0,0-1.2-.2-1.5,0-.3.2-.6,1.2-.6,1.2-.2.7-1.9,1.7-3.3,1.4-1.7-.4-1.9-2.9-1.9-4.5v-.8c.2-4.4-.6-8.2-2.4-11.4l-10.6-18.9c-.4-1.7-1.9-2.8-3.6-2.9-1.7,0-3.2.9-3.9,2.5-.7,1.8-1.3,4.1-1.9,6.7-1,4.2-2.1,9.1-4.4,13.5-.7,1.6-1.6,3-2.7,4.4-2.4,3.4-5.9,6.4-10.8,8.4-1.6.7-3.3,1.3-5.2,1.6-1.3.4-2.8.6-4.4.8-21,2.6-36-3-42.3-15.7-8.2-16.4,10.3-38.9,18.4-48.8,0,0,8.6-10,47.7-37.8l.7-.4,3-22.2c1.9-7,4.6-13.7,6-14.8h.1c2.1,0,3.2-2.7,5.2-7.9,1-2.3,2-4.9,2.7-5.8,1.6-2.1,4.1-3.8,5.3-4.5l.7-.4.2-.8c.6-2.2,1.9-3.5,2.4-3.8,1.3,1.8,4.4,8.8,4.3,12.7,0,2-1.3,6.3-1.8,7.5l-.5,1.4,6.1,4c4.1,2.6,8.1,5.2,12.2,7.8,2.9,4.4,5.7,8.8,8.5,13.1,0,1.7.2,9.2-5.8,13.5h0Z"/>
          <path class="cls-2" d="M224.8,94.5c0,.2,0,.4,0,.6,0,.4,0,.8-.2,1.1-.3.6-.9,1-1.6,1s-1.4-.4-1.7-1.1c0-.2,0-.4-.2-.6-.7-1.9-2.5-3.3-4.6-3.3s-2.2.4-3,1c-.1,0-.2.2-.3.3h0c-.3.2-.7.3-1.1.3-1.1,0-2-.9-2-2s0-.4,0-.5c0-.2.2-.4.3-.6,1.3-2.4,3.8-4,6.7-4,4.2,0,7.6,3.4,7.6,7.6h0Z"/>
          <path class="cls-2" d="M194.6,210.3c-2.1-.5-1.6-1.2-1.6-1.2.8-1.9-.1-6-8-6.3-1.2,0-2.5,0-4.1,0-.7,1.6-1.6,3-2.7,4.4,1.9-.3,3.3-.4,4.6-.4,5.5.1,6.1,3,5.7,4.3,0,0-.4.4,1,.7,1.4.4,3.1,1.6,2.7,2.9-1.2,5.2-11.8,5.4-15,5.2-2.6-.2-4.8-.8-6.5-1.8-1.6-.7-2.7-1.6-3.2-2.5-1.6.7-3.3,1.3-5.2,1.6,0,0,0,0,0,.1.6,1.1,1.6,2.1,2.7,2.9,4.3,3.2,12,4.7,20.5,3,10-1.9,13.3-7.7,13.1-8.8-.2-2.1-2.1-3.9-4.1-4.4h0Z"/>
          <path class="cls-2" d="M202.3,57.4s-10.6,24.6-5.6,32.9c4.9,8.3,19.7,35.5,9.1,60.9-7.6,18.1-27.2,23.1-40.6,42.6-13.7,20-33.9,16.7-41.9,10.4-8-6.3-11.9-17.7,1.7-38.8s32.8-33.7,43.6-40.6,13.4-17,13.4-17l2.5-20.2,3.8-9.2,6.4-6.8,7.8-14.3h0Z"/>
          <ellipse class="cls-2" cx="237.5" cy="100.3" rx="5.5" ry="7.3" transform="translate(-1.3 197.3) rotate(-45)"/>
        </g>
      </g>
    </g>
  </g>
</svg>