<?xml version="1.0" encoding="UTF-8"?>
<svg xmlns="http://www.w3.org/2000/svg" viewBox="0 0 353 276">
  <defs>
    <style>
      .cls-1 {
        fill: #47b4d2;
      }

      .cls-2 {
        fill: #141127;
      }
    </style>
  </defs>
  <g id="Capa_3" data-name="Capa 3">
    <rect class="cls-1" x="-20.33" y="-20.61" width="393.65" height="317.22"/>
  </g>
  <g id="Capa_2" data-name="Capa 2">
    <g>
      <g>
        <path class="cls-2" d="M223.41,56.76v.08c.2-.24.39-.43.59-.67-.24.2-.43.39-.59.59ZM188.82,193.89c.24.16.39.35.47.51,0,0,0,.04.04.04l.83-1.14-1.34.59ZM149.44,210.4c-.51-1.22-1.02-2.28-1.57-3.22.51.94,1.02,2,1.53,3.22.24.51.59.98,1.1,1.38-.51-.43-.86-.9-1.06-1.38Z"/>
        <path class="cls-2" d="M188.82,193.89c.24.16.39.35.47.51,0,0,0,.04.04.04l.83-1.14-1.34.59ZM105.77,209.06c2.2,1.85,4.6,3.34,6.84,4.52-2.24-1.22-4.64-2.71-6.84-4.52Z"/>
        <path class="cls-2" d="M223.41,56.76v.08c.2-.24.39-.43.59-.67-.24.2-.43.39-.59.59Z"/>
        <path class="cls-2" d="M253.91,95.87c-.34-4.09-7.79-32.91-17.13-42.77-.07-.08-.18-.12-.28-.12-.06,0-.12.01-.18.04-.16.08-.24.25-.21.42.11.61.19,1.21.19,1.89,0,.75-.11,1.54-.3,2.3-.12.47-.27.87-.48,1.24-.07.13-.06.28.02.4,6.64,10.15,13.5,33.39,13.5,36.85,0,.02.05.39.05.4.2.79,19.03,78.89-26.88,101.59l-.83.58-.17.73c-.3,1.21-3.53,12.1-22.34,21.21-4.13,1.98-7.9,3.03-10.91,3.03-1.98,0-3.62-.44-4.89-1.31-2.33-1.59-3.47-4.66-3.21-8.64.39-4.38,4.77-10.27,7.62-14.1,2.22-3.01,2.97-4.02,2.17-5.4-.12-.25-.34-.49-.63-.68-.3-.17-.72-.37-1.47-.37-2.63.08-12.64,5.08-16.33,12.43-1.01,1.89-1.87,3.79-2.56,5.65h-.71c-6.24.01-13.73-1.97-14.37-2.64-5.15-12.07-12.01-13.91-13.98-14.19-.41-.06-.81-.09-1.19-.09-1.5,0-2.69.46-3.46,1.39l-.3.58c-.87,2.68,1.24,4.93,3.15,6.96,1.12,1.21,2.29,2.45,3,3.8,1.24,2.4,1.63,4.34,1.16,5.79-.25.77-.74,1.34-1.45,1.69-1.29.64-2.97.97-5.01.97-4.94,0-10.69-1.92-12.86-2.64-4.87-1.54-16.67-6.22-21.06-16.25-2.7-6.21-2.08-13.6,1.84-21.96,14.84-31.27,47.41-36.85,51.08-37.39.14,0,.68.02,1.56.02,6.18,0,27.05-.72,36.2-9.92,6.24-6.36,6.86-16.03,6.26-23.12-.9-2.66-1.35-5.41-1.35-8.17,0-12.02,8.12-22.34,19.75-25.09l1.06-.44.28-.75c.74-2.15,2.8-7.55,5.86-11.71-.12-.42-.23-.88-.31-1.42-.08-.45-.12-.9-.12-1.35,0-.34,0-.66.08-.99.04-.61.15-1.16.33-1.66.06-.17,0-.35-.14-.45-.07-.05-.15-.07-.23-.07s-.17.03-.24.08c-4.99,3.88-8.24,11.5-9.14,14.36-13.01,3.73-22.1,15.86-22.1,29.5,0,3.22.51,6.43,1.45,9.19.42,5.78-.1,13.7-4.96,18.64-7.97,8.05-28.83,8.45-32.93,8.45l-1.73.02c-3.97.58-39.19,6.65-55.11,40.22-4.56,9.63-5.2,18.38-1.89,25.99,1.69,3.96,4.53,7.58,8.44,10.76,1.97,1.61,4.22,3.11,6.91,4.56,3.83,2.03,7.08,3.15,8.67,3.64,3.76,1.24,9.34,2.89,14.43,2.89,2.81,0,5.23-.5,7.17-1.49,1.86-.89,3.26-2.52,3.94-4.6.61-1.93.85-5.15-1.49-9.58-.8-1.51-1.86-2.78-2.91-3.92,1.13.82,2.41,2.07,3.73,3.98.5.73,1.04,1.55,1.56,2.53.55.93,1.05,1.97,1.55,3.17.23.55.63,1.07,1.17,1.53,3.7,3.13,14.22,4.1,17.63,4.1.84,0,1.68-.04,2.39-.12,1.21-.09,2.26-.91,2.62-2.04.71-2.17,1.68-4.17,2.69-6.2.65-1.27,1.63-2.56,2.94-3.86-2.14,3.6-3.31,6.72-3.56,9.47-.32,4.57.9,8.6,3.45,11.34,2.3,2.5,5.62,3.82,9.6,3.82,3.75,0,8.13-1.19,13.03-3.54,18.27-8.82,23.32-19.24,24.45-23.08,48.19-25.15,28.63-105.37,28.43-106.11Z"/>
        <path class="cls-2" d="M225.3,201.63c-1.26,3.85-6.21,14.27-24.45,23.07-4.83,2.32-9.12,3.5-12.85,3.5s-7.08-1.26-9.32-3.69c-2.48-2.67-3.66-6.6-3.34-11.04.35-3.89,2.59-8.06,4.99-11.63-2,1.61-3.97,3.58-5.11,5.82-.9,1.81-1.97,3.97-2.71,6.25-.31.98-1.22,1.69-2.28,1.77-.71.08-1.53.12-2.36.12-3.66,0-13.84-1.02-17.37-4.01-.51-.43-.86-.9-1.06-1.38-.51-1.22-1.02-2.28-1.57-3.22-.51-.98-1.06-1.81-1.57-2.55-2.28-3.3-4.52-4.72-6.01-5.31.28.31.55.59.75.83,1.3,1.38,2.75,2.91,3.77,4.83,2.28,4.32,2.04,7.43,1.45,9.28-.63,1.93-1.93,3.5-3.73,4.36-1.93.98-4.28,1.45-7,1.45-5.07,0-10.61-1.65-14.31-2.87-2.04-.63-5.19-1.81-8.61-3.62-2.24-1.22-4.64-2.71-6.84-4.52-3.38-2.75-6.45-6.21-8.33-10.61-3.26-7.51-2.63-16.11,1.89-25.67,16.7-35.22,54.52-39.93,54.91-40.01h1.57c4.09,0,25.12-.39,33.21-8.57,4.95-5.03,5.5-13.05,5.07-18.94-.94-2.79-1.45-5.97-1.45-9.16,0-13.56,8.92-25.43,21.81-29.12,1.49-3.97,4.68-10.85,9.28-14.42-.2.55-.31,1.14-.35,1.77-.08.31-.08.67-.08,1.02,0,.47.04.94.12,1.41v.08c.08.47.2.94.31,1.38-3.14,4.01-5.27,9.79-5.86,11.48l-.28.75-.79.2c-11.79,2.79-20.05,13.25-20.05,25.47,0,2.83.47,5.62,1.38,8.29.59,7.15-.08,16.51-6.17,22.72-10.38,10.45-36.4,9.83-37.46,9.79-.16.04-35.73,4.48-51.45,37.61-3.97,8.45-4.6,15.96-1.85,22.29,4.44,10.14,16.35,14.9,21.3,16.47,3.18,1.06,12.89,4.28,18.16,1.65.55-.28,1.3-.83,1.65-1.93.51-1.57.08-3.66-1.18-6.09-.75-1.41-1.97-2.71-3.1-3.93-1.89-2-3.81-4.09-3.03-6.52l.28-.51c.83-.98,2.36-1.38,4.24-1.1,1.97.28,8.65,2.16,13.68,13.95.94,1.02,9.63,3.11,15.72,2.87.79-2.16,1.73-4.17,2.63-5.86,3.62-7.19,13.4-12.14,16-12.22h.12c.51,0,.86.16,1.14.31.24.16.39.35.47.51,0,0,0,.04.04.04.67,1.18-.08,2.12-2.4,5.27-2.63,3.54-7.07,9.51-7.47,13.99-.27,4.13.9,7.31,3.38,9,3.38,2.32,9.16,1.69,16.19-1.69,20.05-9.71,22.52-21.38,22.56-21.5l.16-.71.63-.31c46.34-22.91,27.28-101.25,27.08-102.03l-.04-.35c0-3.58-6.88-26.81-13.56-37.02.24-.43.39-.86.51-1.34.2-.75.31-1.57.31-2.4v-.04c0-.67-.08-1.3-.2-1.93,9.28,9.79,16.7,38.71,17.02,42.53,1.22,4.83,18.32,81.44-28.22,105.73Z"/>
        <path class="cls-2" d="M221.15,79.78c-.42-.21-.74-.32-1.16-.32-.21-.11-.42-.11-.64-.11-4.55-.32-8.47,3.07-8.79,7.73-.21,3.07,1.38,5.93,3.81,7.41.21.21.42.32.64.32.11.11.32.11.64.21,1.06,0,2.12-.74,2.22-2.01,0-.53-.11-.85-.32-1.16-.11-.11-.21-.21-.21-.42-.74-.95-1.06-2.12-.95-3.39.11-2.22,1.69-4.13,3.92-4.66.11,0,.32-.11.53-.11.74-.21,1.27-.95,1.27-1.69.11-.85-.32-1.48-.95-1.8Z"/>
        <path class="cls-2" d="M236.7,55.3v.04c0,.83-.12,1.65-.31,2.4-.12.47-.28.9-.51,1.34-1.1,2.52-3.34,4.21-5.9,4.21-2.83,0-5.27-2.08-6.25-5.07-.12-.43-.24-.9-.31-1.38.2-.24.39-.43.59-.67-.24.2-.43.39-.59.59-.08-.47-.12-.94-.12-1.41,0-.35,0-.71.08-1.02.04-.63.16-1.22.35-1.77.94-2.99,3.38-5.15,6.25-5.15,3.1,0,5.78,2.55,6.52,5.97.12.63.2,1.26.2,1.93Z"/>
        <path class="cls-2" d="M224,56.17c-.2.24-.39.43-.59.67v-.08c.16-.2.35-.39.59-.59Z"/>
      </g>
      <path class="cls-2" d="M220.45,126.84c-.31.34-.87.44-1.27.26-.48-.21-.68-.76-.33-1.18,2.89-3.62,12.2-15.9,13.22-29.6.62-8.26-.99-16.46-4.8-24.37-.06-.36.18-.69.58-.83.43-.14.95-.02,1.23.3,1.74,3.59,3.78,8.79,4.65,15.2.44,3.25.54,6.53.29,9.82-1.04,13.78-7.95,24.13-13.57,30.39Z"/>
      <path class="cls-2" d="M237.79,112.24c-.21.39-.73.58-1.2.46-.45-.11-.75-.49-.69-.88,1.45-4.29,3.04-10.94,2.32-19.09-.2-2.29-.58-4.57-1.13-6.83-1.67-6.83-4.91-13.37-9.62-19.42-.11-.36.07-.73.45-.93.37-.19.86-.17,1.2.06,1.97,2.52,4.17,5.75,6.11,9.68,1.65,3.34,2.91,6.77,3.77,10.29,2.14,8.77,1.73,17.74-1.21,26.66Z"/>
    </g>
  </g>
</svg>