<?xml version="1.0" encoding="UTF-8"?>
<svg id="Capa_2" data-name="Capa 2" xmlns="http://www.w3.org/2000/svg" viewBox="0 0 56.93 56.93">
  <path d="M28.91,12.31c-.86-1.92.78-5.2,1.41-6.1.03-.68.27-1.29.64-1.66.22-.22.49-.34.75-.34h.02c.84.02,1.86.52,2.18,1.88-.04.2-.18.36-.36.42-.22.07-.46,0-.6-.19-.01-.09-.1-.59-.56-.9-.25-.17-.52-.21-.67-.21-.09.04-.4.45-.4,1.18v.23s-.17.15-.17.15c-.34.39-1.99,3.63-1.31,5.14.07.24-.06.5-.28.6-.22.1-.49.01-.62-.19Z"/>
  <path d="M45.7,17.37l-.08-.2c-.8-1.23-1.59-2.47-2.41-3.72l-.14-.14c-1.13-.72-2.25-1.45-3.38-2.17l-.92-.55c.18-.56.4-1.41.42-1.95.02-1.25-1.07-4.2-1.83-4.44-.26-.08-.64-.11-.91.05-.44.26-.82.78-1.03,1.39-.34.22-1.07.7-1.59,1.39-.26.36-.54,1.05-.84,1.81-.2.5-.5,1.21-.68,1.49-.46.04-1.31.66-2.45,4.79l-.76,5.61c-10.56,7.5-12.77,10.11-12.93,10.3-2.25,2.73-7.76,9.59-5.25,14.58,1.89,3.84,6.29,5.53,12.39,4.79.66-.08,1.25-.2,1.81-.38.56-.16,1.07-.36,1.53-.6,1.55-.74,3.11-2.17,3.81-3.36.24-.36.42-.74.58-1.11.54-1.19.82-2.41,1.05-3.4.14-.68,0-1.39.23-1.85l3,5.37c.4.72.44,1.62.38,2.61-.1,1.91,1,2.28,1.41,2.4.58.12,1.17-.06,1.59-.38.24.36.8.56,1.25.64.14.02.28.02.4.02.68,0,1.21-.29,1.53-.78.38-.58.32-1.23.06-1.51.38-.12,1.04-.17,1.18-.58.12-.32.1-.84-.6-1.43-1.01-.88-2.41-1.18-2.97-1.02-.5-.58-1.62-2.22-.54-8.6,3.38-4.4,3.07-7.72,2.14-13.39.82-.04,1.65-.36,2.56-1.04,2.35-1.69,1.97-4.66,1.97-4.68ZM43.16,21.25c-1.07.78-3.42,1.27-3.42,1.27,1.03,6.09,1.31,8.73-2.03,13.07l-.1.22c-1.45,8.47,1.27,10.4,1.39,10.46l.24.16.24-.1s1.15-.5,2.03.26c.28.22.32.34.32.34-.16.33-.33.32-.62.32-.3.02-.45.16-.53.26-.06.12-.16.28-.02.56.1.22.45.35.52.73.01.08,0,.1-.12.32-.12.2-.36.26-.56.28-.44.04-.91-.12-.93-.16-.01-.02-.22-.76-.74-.8,0,0-.31-.05-.4,0-.08.05-.16.32-.16.32-.06.18-.52.46-.9.38-.46-.12-.52-.78-.52-1.21v-.22c.06-1.17-.16-2.21-.64-3.08l-2.84-5.09c-.12-.46-.52-.76-.97-.8-.46,0-.88.24-1.05.68-.2.48-.34,1.09-.5,1.81-.28,1.13-.58,2.45-1.17,3.64-.18.42-.42.82-.72,1.19-.66.92-1.59,1.71-2.9,2.27-.44.18-.9.34-1.41.44-.36.1-.76.16-1.17.22-5.65.7-9.69-.82-11.4-4.24-2.21-4.42,2.77-10.48,4.95-13.15.02-.02,2.31-2.69,12.85-10.17l.18-.12.8-5.97c.52-1.89,1.25-3.7,1.61-4h.04c.56,0,.86-.74,1.41-2.13.26-.62.54-1.31.74-1.57.42-.58,1.09-1.03,1.43-1.21l.2-.1.06-.22c.16-.6.5-.94.64-1.01.34.48,1.17,2.37,1.15,3.42-.02.54-.34,1.69-.48,2.01l-.14.38,1.65,1.07c1.09.7,2.19,1.41,3.28,2.11.78,1.19,1.53,2.37,2.29,3.52.02.46.06,2.47-1.57,3.64Z"/>
  <path d="M41.47,15.66c0,.05,0,.11,0,.16,0,.1-.02.2-.05.3-.08.16-.25.27-.44.27s-.37-.12-.45-.29c-.01-.05-.03-.1-.04-.15-.18-.51-.67-.88-1.24-.88-.31,0-.59.1-.81.28-.03.02-.06.05-.09.07h0c-.08.06-.19.09-.3.09-.29,0-.53-.24-.53-.53,0-.05,0-.1.02-.15.02-.05.05-.11.08-.16.35-.64,1.03-1.08,1.81-1.08,1.13,0,2.05.92,2.05,2.05Z"/>
  <path d="M33.33,46.85c-.58-.14-.42-.32-.42-.32.22-.52-.04-1.61-2.15-1.69-.32-.02-.68-.02-1.09.02-.18.42-.42.82-.72,1.19.5-.08.9-.12,1.23-.1,1.47.04,1.65.8,1.53,1.15,0,0-.12.12.26.2.38.1.84.42.74.78-.32,1.39-3.18,1.45-4.04,1.39-.7-.06-1.29-.22-1.75-.48-.42-.18-.72-.44-.88-.68-.44.18-.9.34-1.41.44,0,.02.02.02.02.04.16.3.42.56.74.8,1.15.86,3.24,1.27,5.53.82,2.69-.52,3.58-2.07,3.52-2.37-.06-.58-.56-1.05-1.11-1.19Z"/>
  <path d="M35.43,5.66s-2.85,6.63-1.52,8.87c1.33,2.24,5.32,9.56,2.44,16.4-2.05,4.87-7.33,6.23-10.94,11.48-3.7,5.38-9.14,4.49-11.29,2.79s-3.21-4.76.46-10.44c3.67-5.69,8.82-9.08,11.74-10.93,2.92-1.85,3.6-4.57,3.6-4.57l.68-5.44,1.02-2.47,1.71-1.82,2.09-3.85Z"/>
  <ellipse cx="44.9" cy="17.21" rx="1.49" ry="1.97" transform="translate(.98 36.79) rotate(-45)"/>
</svg>