<?xml version="1.0" encoding="UTF-8"?>
<svg xmlns="http://www.w3.org/2000/svg" viewBox="0 0 353 276">
  <defs>
    <style>
      .cls-1 {
        fill: #a98973;
      }

      .cls-2 {
        fill: #f3f3f3;
      }
    </style>
  </defs>
  <g id="Capa_3" data-name="Capa 3">
    <rect class="cls-1" x="-20.33" y="-20.61" width="393.65" height="317.22"/>
  </g>
  <g id="Capa_2" data-name="Capa 2">
    <g>
      <path class="cls-2" d="M130.86,171.11c1.47-.41,4.01-.91,7.12-.47,3.68.52,6.3,2.09,7.6,3.01,1.47-1,3.4-2.3,5.7-3.8,5.07-3.3,6.65-4.13,8.55-6.17,1.23-1.33,2.55-3.12,3.64-5.54-.84-1.44-7.62-12.7-21.53-14.72-11.98-1.74-20.69,4.62-22.32,5.86-1.19,4.14-.61,6.84.12,8.52,1.29,3,3.55,3.94,7.67,8.8,1.58,1.86,2.73,3.47,3.45,4.52Z"/>
      <path class="cls-2" d="M191.91,171.26c-.46,0-.92-.2-1.27-.55-.3-.3-.49-.68-.55-1.1l-.15-.09c-1.57-.95-3.34-2.02-5.43-2.68-3.59-1.14-8.3-2.25-12.93-3.05-.3-.05-.5-.34-.45-.64l.19-1.19-.08-1.09c-.02-.28.18-.53.46-.58.16-.03,3.89-.76,10.55-8.99,1.48-7.4-3.12-28.07-3.65-30.41-.01-.05-.03-.17-.03-.22.05-.84.64-1.53,1.46-1.7.12-.02.23-.03.35-.03.65,0,1.26.36,1.58.93.78,3.15,1.45,6.48,2.19,10.62.8,4.52,1.73,10.7,1.89,15.72,1.18-1.71,2.35-3.51,3.48-5.39,11.76-19.22,13.36-42.87,13.37-43.09.14-.97.91-1.65,1.8-1.65.11,0,.22.01.33.03.82.17,1.41.93,1.41,1.81,0,.01-.01.19-.01.2-.2,2.46-2.21,24.02-12.61,42.4,3.22-.8,7.12-1.2,11.61-1.2s7.88.42,7.91.42c.71.18,1.23.6,1.5,1.16.23.47.25.97.07,1.38-.26.59-.93.98-1.71.98-.09,0-.18,0-.27-.02-2-.25-4.31-.38-7.07-.38h-1.27c-5.87.09-10.59.91-13.66,2.39-5.92,9.19-10.54,13.76-13.63,16.03,10.54,2.22,16.03,4.81,16.33,7.7.11.48,0,1.05-.31,1.51-.28.41-.7.69-1.15.76-.03,0-.2.02-.23.02Z"/>
      <path class="cls-2" d="M213.23,140.28c.97.25,1.39,1.19,1.14,1.77-.19.43-.77.71-1.4.63-2.45-.31-5.28-.41-8.41-.37-4.63.06-10.2.6-14.04,2.51-6.5,10.12-11.45,14.71-14.63,16.75,6.89,1.38,16.79,3.96,17.16,7.47.18.82-.36,1.56-.99,1.66-.67.1-1.45-.52-1.44-1.42-1.7-1.02-3.61-2.23-5.95-2.98-3.48-1.11-8.13-2.23-13.01-3.07l.19-1.19-.07-1.21c.41-.07,4.32-1.04,10.97-9.29,1.67-7.84-3.59-30.63-3.64-30.85.03-.58.45-1.07,1.01-1.18.53-.1,1.07.15,1.34.62.78,3.28,1.47,6.77,2.12,10.44.99,5.59,1.94,12.33,1.9,17.34,1.41-1.97,2.91-4.22,4.49-6.82,11.82-19.32,13.44-43.13,13.44-43.37.11-.75.82-1.22,1.46-1.09.54.11.97.64.96,1.26,0,.06,0,.11-.01.17-.17,2.17-2.13,24.56-13.21,43.32,8.45-2.52,20.05-1.19,20.6-1.12Z"/>
      <polygon class="cls-2" points="171.85 162.05 171.76 160.83 171.78 160.83 171.85 162.05"/>
      <path class="cls-2" d="M147.95,188.23c.43-.55,1.77-2.43,1.74-5.18-.03-2.65-1.31-4.46-1.74-5.03.7-.59,1.34-1.29,1.9-1.92.76-.85,1.37-1.43,1.42-1.49.71-.75,10.81-10.79,16.46-9.73,8.95,1.68,12.78,32.37,5.94,35.61-4.18,1.98-14.49-5.3-16.64-6.98-.55-.43-2.52-2.03-9.08-5.28Z"/>
      <path class="cls-2" d="M144.92,191.88c2.41.59,5.74,1.71,9.23,3.95,5.51,3.53,8.58,8,10.07,10.57-.07,1.96-.52,7.95-5.07,13.18-6.86,7.88-20.18,3.38-21.33,3.29-1.94-2.01-4.02-4.85-5.66-12.93-1.48-7.31.86-11.74,1.75-14.4,1.4,0,3.44-.17,5.78-.94,2.36-.78,4.11-1.88,5.24-2.71Z"/>
      <path class="cls-2" d="M120.11,179.58c-1.68.9-5.67,2.75-11.02,2.49-5.81-.29-9.84-2.91-11.37-4.03-.68-1.47-2.58-6.05-1.18-11.61,2.11-8.37,9.89-11.68,10.78-12.04,2.18.76,7.38,2.91,11.61,8.25,3.82,4.83,4.87,9.79,5.21,12.08-1.34,1.62-2.68,3.24-4.03,4.86Z"/>
      <path class="cls-2" d="M120.41,185.32c.52,1.25,1.28,2.73,2.37,4.27,1.93,2.71,4.11,4.47,5.7,5.54.47,1.4,1.76,5.84-.16,10.76-3.04,7.79-11.35,9.67-12.03,9.81-9.01-.53-16.66-6.02-19.31-13.77-2.68-7.84.86-14.78,1.58-16.14,2.05-.67,4.52-1.28,7.33-1.6,6.04-.7,11.11.2,14.51,1.13Z"/>
      <ellipse class="cls-2" cx="134.72" cy="182.82" rx="10.58" ry="8.07"/>
      <path class="cls-2" d="M235.52,153.96c-1.74-.26-3.7-.85-5.56-.95-6.87-.35-11.24-1.75-12.14-7.62-.9-5.91,2.72-10.67,8.87-12.86,1.46-.52,3.23-2.07,4.58-2.68,3.7-1.66,5.45-2.96,9.59-3.57,7.68-1.15,14.78,4.11,15.96,11.78,1.15,7.64-3.61,14.8-11.25,15.94-3.72.55-6.29.52-10.06-.04Z"/>
      <path class="cls-2" d="M224.46,116.87c-1.13.16-2.46.14-3.64.42-4.35,1.03-7.33.96-8.96-2.54-1.64-3.52-.24-7.15,3.19-9.64.82-.59,1.63-1.88,2.37-2.5,2.01-1.71,2.86-2.84,5.33-3.98,4.58-2.11,9.96-.13,12.1,4.44,2.1,4.55.44,9.88-4.11,11.99-2.22,1.02-3.83,1.47-6.28,1.81Z"/>
      <path class="cls-2" d="M199.89,187.35c-.84-.85-1.65-1.98-2.62-2.79-3.57-3.01-5.36-5.55-3.44-9.1,1.94-3.57,5.85-4.65,10.07-3.32,1,.32,2.6.2,3.57.43,2.68.62,4.16.63,6.65,2,4.62,2.53,6.31,8.28,3.8,12.92-2.51,4.6-8.02,6.52-12.62,4.01-2.24-1.23-3.61-2.3-5.42-4.15Z"/>
      <path class="cls-2" d="M177.06,142.55c0,.93-.18,2-.1,2.99.31,3.63-.11,6.02-3.12,6.92-3.04.9-5.79-.66-7.39-3.73-.38-.73-1.32-1.54-1.74-2.21-1.14-1.82-1.95-2.64-2.57-4.78-1.16-3.94,1.09-8.05,5.03-9.23,3.93-1.15,8.02.83,9.18,4.75.56,1.91.72,3.26.7,5.28Z"/>
      <path class="cls-2" d="M185.05,101.25c-.38,1.72-1.12,3.62-1.36,5.47-.86,6.83-2.57,11.08-8.49,11.55-5.96.46-10.44-3.5-12.17-9.79-.41-1.5-1.83-3.37-2.33-4.76-1.38-3.81-2.55-5.65-2.86-9.83-.58-7.74,5.18-14.43,12.92-15.05,7.7-.58,14.49,4.69,15.07,12.39.27,3.75.05,6.31-.78,10.03Z"/>
      <path class="cls-2" d="M213.19,74.24c-.38,1.72-1.12,3.62-1.36,5.47-.86,6.83-2.57,11.08-8.49,11.55-5.96.46-10.44-3.5-12.17-9.79-.41-1.5-1.83-3.37-2.33-4.76-1.38-3.81-2.55-5.65-2.86-9.83-.58-7.74,5.18-14.43,12.92-15.05,7.7-.58,14.49,4.69,15.07,12.39.27,3.75.05,6.31-.78,10.03Z"/>
    </g>
  </g>
</svg>