<?xml version="1.0" encoding="UTF-8"?>
<svg id="Capa_2" data-name="Capa 2" xmlns="http://www.w3.org/2000/svg" viewBox="0 0 118.95 118.95">
  <path d="M73.89,27.82c-5.59,4.12-6.86,8.84-7.83,8.34-1.57-.8-.6-5.83,2.15-11.24,1.62-3.18,5.3-9.06,7.83-8.34,1.93.55,3.08,4.94,1.7,7.84-.75,1.57-1.88,1.94-3.86,3.4Z"/>
  <path d="M68.45,15.63c-.39,6.06-2.14,10.87-3.89,10.76-.75-.05-.67-1.64-2.46-11.17-.96-5.13-1.49-7.39-.06-9.15.9-1.11,2.62-2.06,3.95-1.61,3.3,1.12,2.53,10.2,2.46,11.17Z"/>
  <path d="M61.33,27.44c.85,10.8,3.1,15.36,2.06,15.72-1.66.57-5.28-5.53-8.08-13.64-.59-1.72-5.17-13.77-2.06-15.72,1.34-.84,3.77.43,5.13,1.66,2.76,2.5,2.48,6.1,2.95,11.98Z"/>
  <path d="M89.91,79.91c2.92.59,4.81,4.99,4.05,8.29-1.25,5.4-9.63,7.89-11.99,5.76-1.8-1.62-.3-6.08.79-8.22.34-.67,3.44-6.57,7.15-5.82Z"/>
  <path d="M103.24,85.34c1.99,1.07,2.2,5.01.76,7.51-2.36,4.1-9.2,4.4-10.36,2.2-.89-1.67,1.4-4.96,2.78-6.47.43-.47,4.28-4.6,6.82-3.24Z"/>
  <path d="M66.46,67.88c1.68,2.46-.04,6.93-2.88,8.76-4.66,3-12.4-1.07-12.61-4.25-.16-2.41,4.02-4.56,6.31-5.34.71-.24,7.05-2.31,9.19.82Z"/>
  <path d="M25.89,60.52c1.84,1.37,1.7,5.28.07,7.55-2.76,3.85-10.12,3.48-11.27,1.2-1.16-2.31,3.91-6.91,4.31-7.28,1.31-1.19,2.36-1.71,3.47-1.92.54-.1,2.25-.42,3.41.44Z"/>
  <path d="M43.36,79.89c.62,2.21-1.87,5.22-4.55,6.03-4.54,1.37-10.14-3.42-9.66-5.92.49-2.54,7.31-3.09,7.86-3.13,1.76-.14,2.92.08,3.92.59.49.25,2.04,1.04,2.43,2.43Z"/>
  <path d="M72.23,108.91c-3.73.71-8.48-1.65-8.92-5.62-.45-4.06,3.88-7.43,7.13-7.42,1.77,0,3.36,1.02,5.54,2.42,1.47.94,2.21,1.42,2.51,2.13,1.05,2.51-1.82,7.65-6.25,8.49Z"/>
  <path d="M57.49,83.92c0,3.8-3.21,8.02-7.18,7.72-4.07-.31-6.58-5.19-5.96-8.38.34-1.74,1.63-3.11,3.41-4.99,1.2-1.27,1.8-1.91,2.56-2.07,2.66-.57,7.18,3.21,7.18,7.72Z"/>
  <path d="M45.41,76.72c-.35,0-.69-.07-1.01-.22-1.37-.64-1.87-2.47-1.12-4.08.75-1.61,2.48-2.41,3.84-1.77,1.37.64,1.87,2.47,1.12,4.08h0c-.34.74-.91,1.34-1.58,1.69-.4.2-.83.31-1.24.31ZM46.11,72.3c-.37,0-.86.32-1.13.91-.34.73-.16,1.42.21,1.6.23.1.49.01.62-.06.3-.15.57-.45.74-.81h0c.34-.73.16-1.43-.21-1.6-.07-.03-.14-.05-.22-.05Z"/>
  <path d="M43.27,68.9c-.06.74-.57.82-1.74,2.83-1.09,1.88-.89,2.23-1.5,2.85-1.44,1.45-4.26,1.18-6.01.53-2.15-.8-4.84-2.99-4.69-5.55.19-3.31,5.04-5.65,8.72-5.01,2.68.47,5.36,2.62,5.23,4.35Z"/>
  <path d="M55.56,64.61c-1.55,2.81-5.09,4.64-8.4,3.52-3.65-1.24-5.36-5.49-4.32-8.86,1.31-4.22,6.77-6.5,10.45-4.32,3.09,1.84,4.09,6.35,2.27,9.65Z"/>
  <path d="M77.57,97.77c-.78,0-1.59-.29-2.25-.87-.63-.55-1.03-1.29-1.15-2.08-.12-.83.11-1.64.64-2.24,1.06-1.2,3.01-1.22,4.34-.04,1.34,1.18,1.57,3.11.51,4.31-.54.61-1.3.91-2.1.91ZM76.9,93.54c-.28,0-.53.09-.69.28-.22.25-.21.57-.19.74.05.34.24.68.53.94.55.49,1.33.55,1.71.13.37-.42.21-1.19-.34-1.68-.3-.27-.68-.41-1.02-.41Z"/>
  <path d="M84.19,58.24c-.81,0-1.65-.3-2.33-.9-1.39-1.22-1.63-3.23-.53-4.48,1.09-1.24,3.12-1.26,4.51-.04,1.39,1.22,1.63,3.23.53,4.48-.55.63-1.34.94-2.17.94ZM83.49,53.78c-.3,0-.58.1-.77.31-.41.46-.24,1.31.36,1.84s1.46.59,1.87.13c.41-.46.24-1.31-.36-1.84-.33-.29-.74-.44-1.1-.44Z"/>
  <path d="M60.97,84.24c-1.68,1.29-.93,6.51,2.21,9.06,2.94,2.39,7.85,2.33,8.86.5,1.01-1.83-2-5.27-3.83-6.83-1.81-1.55-5.63-3.97-7.24-2.73Z"/>
  <path d="M82,96.21c-1.68,1.29-.93,6.51,2.21,9.06,2.94,2.39,7.85,2.33,8.86.5,1.01-1.83-2-5.27-3.83-6.83-1.81-1.55-5.63-3.97-7.24-2.73Z"/>
  <path d="M90.66,70.87c-1.68,1.29-.93,6.51,2.21,9.06,2.94,2.39,7.85,2.33,8.86.5,1.01-1.83-2-5.27-3.83-6.83-1.81-1.55-5.63-3.97-7.24-2.73Z"/>
  <path d="M85.81,44.78c-1.68,1.29-.93,6.51,2.21,9.06,2.94,2.39,7.85,2.33,8.86.5,1.01-1.83-2-5.27-3.83-6.83-1.81-1.55-5.63-3.97-7.24-2.73Z"/>
  <path d="M88.36,58.39c-.75,1.54,1.33,3.97,4.05,7.16,2.76,3.23,5.71,6.67,7.51,5.96,2.28-.9,3.3-8.63-.72-12.4-3.44-3.23-9.82-2.83-10.85-.72Z"/>
  <path d="M83.73,59.73c-3.84-.96-8.21,2.74-8.53,7.03-.29,3.87,2.73,8.08,6.61,8.09,3.62.01,6.32-3.61,6.69-6.96.37-3.35-1.47-7.33-4.77-8.16Z"/>
  <path d="M66.46,77.04c-1.68,2.6,1.01,7.15,3.02,9.38,1.88,2.09,6.14,5.43,9.11,3.96,3.21-1.57,4.09-8.29,1.02-12.16-3.44-4.34-11.2-4.23-13.16-1.19Z"/>
  <path d="M68.4,37.44c-1.68,2.6,1.01,7.15,3.02,9.38,1.88,2.09,6.14,5.43,9.11,3.96,3.21-1.57,4.09-8.29,1.02-12.16-3.44-4.34-11.2-4.23-13.16-1.19Z"/>
  <path d="M58.45,57.66c.15,3.86,6.21,6.98,11.28,6.47,4.1-.41,9.09-3.35,8.96-7.12-.13-3.8-5.39-6.46-9.6-6.57-5.07-.13-10.79,3.37-10.64,7.21Z"/>
  <path d="M31.82,45.04c-.71,0-1.39-.27-1.86-.81-.94-1.07-.74-2.78.44-3.81,1.18-1.04,2.91-1.02,3.84.05h0c.94,1.07.74,2.78-.44,3.81-.58.51-1.29.77-1.98.77ZM32.38,41.51c-.24,0-.52.1-.75.3-.4.35-.52.89-.27,1.18.25.29.8.23,1.21-.12.4-.35.52-.89.27-1.18-.11-.12-.28-.18-.46-.18Z"/>
  <path d="M30.13,32.04c1.68,1.29.93,6.51-2.21,9.06-2.94,2.39-7.85,2.33-8.86.5-1.01-1.83,2-5.27,3.83-6.83,1.81-1.55,5.63-3.97,7.24-2.73Z"/>
  <path d="M27.58,45.66c.75,1.54-1.33,3.97-4.05,7.16-2.76,3.23-5.71,6.67-7.51,5.96-2.28-.9-3.3-8.63.72-12.4,3.44-3.23,9.82-2.83,10.85-.72Z"/>
  <path d="M32.21,47c3.84-.96,8.21,2.74,8.53,7.03.29,3.87-2.73,8.08-6.61,8.09-3.62.01-6.32-3.61-6.69-6.96-.37-3.35,1.47-7.33,4.77-8.16Z"/>
  <path d="M47.54,24.7c1.68,2.6-1.01,7.15-3.02,9.38-1.88,2.09-6.14,5.43-9.11,3.96-3.21-1.57-4.09-8.29-1.02-12.16,3.44-4.34,11.2-4.23,13.16-1.19Z"/>
  <path d="M57.49,44.92c-.15,3.86-6.21,6.98-11.28,6.47-4.1-.41-9.09-3.35-8.96-7.12.13-3.8,5.39-6.46,9.6-6.57,5.07-.13,10.79,3.37,10.64,7.21Z"/>
</svg>