<?xml version="1.0" encoding="UTF-8"?>
<svg xmlns="http://www.w3.org/2000/svg" version="1.1" viewBox="0 0 353 276">
  <defs>
    <style>
      .cls-1 {
        fill: #a98973;
      }

      .cls-2 {
        fill: #f3f3f3;
      }
    </style>
  </defs>
  <!-- Generator: Adobe Illustrator 28.7.9, SVG Export Plug-In . SVG Version: 1.2.0 Build 218)  -->
  <g>
    <g id="Capa_1">
      <g id="Capa_3">
        <rect class="cls-1" x="-28.1" y="-20.6" width="393.6" height="317.2"/>
      </g>
      <g id="Capa_2">
        <g>
          <path class="cls-2" d="M199.6,91.6c-9,6.6-11,14.2-12.6,13.4-2.5-1.3-1-9.4,3.5-18,2.6-5.1,8.5-14.6,12.6-13.4,3.1.9,4.9,7.9,2.7,12.6-1.2,2.5-3,3.1-6.2,5.5h0Z"/>
          <path class="cls-2" d="M190.9,72.1c-.6,9.7-3.4,17.5-6.2,17.3-1.2,0-1.1-2.6-4-17.9-1.6-8.2-2.4-11.9-.1-14.7,1.4-1.8,4.2-3.3,6.4-2.6,5.3,1.8,4.1,16.4,4,17.9Z"/>
          <path class="cls-2" d="M179.5,91c1.4,17.3,5,24.7,3.3,25.2-2.7.9-8.5-8.9-13-21.9-.9-2.8-8.3-22.1-3.3-25.2,2.2-1.3,6.1.7,8.2,2.7,4.4,4,4,9.8,4.7,19.2Z"/>
          <path class="cls-2" d="M225.4,175.3c4.7.9,7.7,8,6.5,13.3-2,8.7-15.5,12.7-19.3,9.2-2.9-2.6-.5-9.8,1.3-13.2.6-1.1,5.5-10.6,11.5-9.4h0Z"/>
          <path class="cls-2" d="M246.8,184c3.2,1.7,3.5,8,1.2,12.1-3.8,6.6-14.8,7.1-16.6,3.5-1.4-2.7,2.2-8,4.5-10.4.7-.8,6.9-7.4,10.9-5.2h0Z"/>
          <path class="cls-2" d="M187.7,156c2.7,3.9,0,11.1-4.6,14.1-7.5,4.8-19.9-1.7-20.2-6.8-.2-3.9,6.5-7.3,10.1-8.6,1.1-.4,11.3-3.7,14.8,1.3Z"/>
          <path class="cls-2" d="M122.6,144.2c3,2.2,2.7,8.5.1,12.1-4.4,6.2-16.2,5.6-18.1,1.9-1.9-3.7,6.3-11.1,6.9-11.7,2.1-1.9,3.8-2.8,5.6-3.1.9-.2,3.6-.7,5.5.7h0Z"/>
          <path class="cls-2" d="M150.6,175.2c1,3.6-3,8.4-7.3,9.7-7.3,2.2-16.3-5.5-15.5-9.5.8-4.1,11.8-5,12.6-5,2.8-.2,4.7.1,6.3.9.8.4,3.3,1.7,3.9,3.9h0Z"/>
          <path class="cls-2" d="M197,221.9c-6,1.1-13.6-2.7-14.3-9-.7-6.5,6.2-11.9,11.4-11.9,2.9,0,5.4,1.6,8.9,3.9,2.4,1.5,3.6,2.3,4,3.4,1.7,4-2.9,12.3-10,13.6Z"/>
          <path class="cls-2" d="M173.3,181.7c0,6.1-5.1,12.9-11.5,12.4-6.5-.5-10.6-8.3-9.6-13.5.5-2.8,2.6-5,5.5-8,1.9-2,2.9-3.1,4.1-3.3,4.3-.9,11.5,5.1,11.5,12.4h0Z"/>
          <path class="cls-2" d="M153.9,170.2c-.6,0-1.1-.1-1.6-.4-2.2-1-3-4-1.8-6.6s4-3.9,6.2-2.9c2.2,1,3,4,1.8,6.6h0c-.6,1.2-1.5,2.2-2.5,2.7-.6.3-1.3.5-2,.5ZM155,163.1c-.6,0-1.4.5-1.8,1.5-.5,1.2-.2,2.3.3,2.6.4.2.8,0,1-.1.5-.2.9-.7,1.2-1.3h0c.5-1.2.2-2.3-.3-2.6-.1,0-.2,0-.4,0h0Z"/>
          <path class="cls-2" d="M150.5,157.6c0,1.2-.9,1.3-2.8,4.6-1.8,3-1.4,3.6-2.4,4.6-2.3,2.3-6.8,1.9-9.7.9-3.5-1.3-7.8-4.8-7.5-8.9.3-5.3,8.1-9.1,14-8,4.3.8,8.6,4.2,8.4,7h0Z"/>
          <path class="cls-2" d="M170.2,150.7c-2.5,4.5-8.2,7.5-13.5,5.6-5.9-2-8.6-8.8-6.9-14.2,2.1-6.8,10.9-10.4,16.8-6.9,5,2.9,6.6,10.2,3.6,15.5Z"/>
          <path class="cls-2" d="M205.6,204c-1.2,0-2.6-.5-3.6-1.4-1-.9-1.7-2.1-1.8-3.3-.2-1.3.2-2.6,1-3.6,1.7-1.9,4.8-2,7,0,2.1,1.9,2.5,5,.8,6.9-.9,1-2.1,1.5-3.4,1.5h0ZM204.5,197.2c-.4,0-.8.1-1.1.4-.4.4-.3.9-.3,1.2,0,.6.4,1.1.9,1.5.9.8,2.1.9,2.7.2.6-.7.3-1.9-.6-2.7-.5-.4-1.1-.6-1.6-.6h0Z"/>
          <path class="cls-2" d="M216.2,140.5c-1.3,0-2.6-.5-3.8-1.4-2.2-2-2.6-5.2-.9-7.2,1.8-2,5-2,7.2,0,2.2,2,2.6,5.2.9,7.2-.9,1-2.2,1.5-3.5,1.5h0ZM215.1,133.3c-.5,0-.9.2-1.2.5-.7.7-.4,2.1.6,2.9,1,.9,2.4.9,3,.2.6-.7.4-2.1-.6-2.9-.5-.5-1.2-.7-1.8-.7Z"/>
          <path class="cls-2" d="M178.9,182.2c-2.7,2.1-1.5,10.5,3.6,14.6,4.7,3.8,12.6,3.7,14.2.8,1.6-2.9-3.2-8.5-6.1-11-2.9-2.5-9-6.4-11.6-4.4Z"/>
          <path class="cls-2" d="M212.7,201.5c-2.7,2.1-1.5,10.5,3.6,14.6,4.7,3.8,12.6,3.7,14.2.8,1.6-2.9-3.2-8.5-6.1-11-2.9-2.5-9-6.4-11.6-4.4Z"/>
          <path class="cls-2" d="M226.6,160.8c-2.7,2.1-1.5,10.5,3.6,14.6,4.7,3.8,12.6,3.7,14.2.8,1.6-2.9-3.2-8.5-6.1-11-2.9-2.5-9-6.4-11.6-4.4Z"/>
          <path class="cls-2" d="M218.8,118.9c-2.7,2.1-1.5,10.5,3.6,14.6,4.7,3.8,12.6,3.7,14.2.8,1.6-2.9-3.2-8.5-6.1-11-2.9-2.5-9-6.4-11.6-4.4Z"/>
          <path class="cls-2" d="M222.9,140.7c-1.2,2.5,2.1,6.4,6.5,11.5,4.4,5.2,9.2,10.7,12.1,9.6,3.7-1.4,5.3-13.9-1.1-19.9-5.5-5.2-15.8-4.5-17.4-1.1h0Z"/>
          <path class="cls-2" d="M215.4,142.9c-6.2-1.5-13.2,4.4-13.7,11.3-.5,6.2,4.4,13,10.6,13,5.8,0,10.1-5.8,10.7-11.2.6-5.4-2.4-11.8-7.7-13.1h0Z"/>
          <path class="cls-2" d="M187.7,170.7c-2.7,4.2,1.6,11.5,4.9,15.1,3,3.4,9.9,8.7,14.6,6.4,5.1-2.5,6.6-13.3,1.6-19.5-5.5-7-18-6.8-21.1-1.9h0Z"/>
          <path class="cls-2" d="M190.8,107.1c-2.7,4.2,1.6,11.5,4.9,15.1,3,3.3,9.9,8.7,14.6,6.4,5.1-2.5,6.6-13.3,1.6-19.5-5.5-7-18-6.8-21.1-1.9Z"/>
          <path class="cls-2" d="M174.9,139.5c.2,6.2,10,11.2,18.1,10.4,6.6-.7,14.6-5.4,14.4-11.4-.2-6.1-8.7-10.4-15.4-10.6-8.1-.2-17.3,5.4-17.1,11.6Z"/>
          <path class="cls-2" d="M132.1,119.3c-1.1,0-2.2-.4-3-1.3-1.5-1.7-1.2-4.5.7-6.1,1.9-1.7,4.7-1.6,6.2,0h0c1.5,1.7,1.2,4.5-.7,6.1-.9.8-2.1,1.2-3.2,1.2ZM133,113.6c-.4,0-.8.2-1.2.5-.6.6-.8,1.4-.4,1.9s1.3.4,1.9-.2c.6-.6.8-1.4.4-1.9-.2-.2-.4-.3-.7-.3h0Z"/>
          <path class="cls-2" d="M129.4,98.4c2.7,2.1,1.5,10.5-3.6,14.6-4.7,3.8-12.6,3.7-14.2.8-1.6-2.9,3.2-8.5,6.1-11,2.9-2.5,9-6.4,11.6-4.4Z"/>
          <path class="cls-2" d="M125.3,120.3c1.2,2.5-2.1,6.4-6.5,11.5-4.4,5.2-9.2,10.7-12.1,9.6-3.7-1.4-5.3-13.9,1.2-19.9,5.5-5.2,15.8-4.5,17.4-1.2h0Z"/>
          <path class="cls-2" d="M132.7,122.4c6.2-1.5,13.2,4.4,13.7,11.3.5,6.2-4.4,13-10.6,13-5.8,0-10.1-5.8-10.7-11.2-.6-5.4,2.4-11.8,7.7-13.1h0Z"/>
          <path class="cls-2" d="M157.3,86.6c2.7,4.2-1.6,11.5-4.9,15.1-3,3.3-9.9,8.7-14.6,6.4-5.1-2.5-6.6-13.3-1.6-19.5,5.5-7,18-6.8,21.1-1.9Z"/>
          <path class="cls-2" d="M173.3,119.1c-.2,6.2-10,11.2-18.1,10.4-6.6-.7-14.6-5.4-14.4-11.4.2-6.1,8.7-10.4,15.4-10.6,8.1-.2,17.3,5.4,17.1,11.6Z"/>
        </g>
      </g>
    </g>
  </g>
</svg>