<?xml version="1.0" encoding="UTF-8"?>
<svg xmlns="http://www.w3.org/2000/svg" viewBox="0 0 353 276">
  <defs>
    <style>
      .cls-1 {
        fill: #a98973;
      }

      .cls-2 {
        fill: #f3f3f3;
      }
    </style>
  </defs>
  <g id="Capa_3" data-name="Capa 3">
    <rect class="cls-1" x="-20.33" y="-12.78" width="393.65" height="317.22"/>
  </g>
  <g id="Capa_2" data-name="Capa 2">
    <g>
      <path class="cls-2" d="M176.88,71.98c1.38-1.58,3.85-4.85,5-9.68,1.43-5.99,0-10.9-.7-12.9-2.15,1.77-6.88,6.2-8.77,13.46-.78,2.99-.86,5.67-.74,7.72.15,1.26,1.08,2.29,2.29,2.54,1.09.23,2.24-.22,2.92-1.14Z"/>
      <path class="cls-2" d="M221.04,90.44c.17-6.77,5.62-11.82,12.38-13.78-.31,6.56-4.18,12.74-11.19,14.63-.39.03-.62-.07-.75-.18-.26-.21-.43-.66-.43-.66h0Z"/>
      <path class="cls-2" d="M131.96,112.06c-6.53,3.01-13.89.19-18.93-5.32,6.4-2.78,14.1-1.99,19.18,3.8.21.36.22.62.18.8-.08.35-.43.72-.43.72h0Z"/>
      <path class="cls-2" d="M221.85,198.44c-.82-.37-2.07-.88-3.66-1.19-5.16-1.01-6.94,1.34-11.73.74-3.06-.39-5.42-1.73-6.84-2.75,3.64,10.19,7.99,20.16,12.97,29.79.57.97.21,2.22-.68,2.73-.97.55-2.28.16-2.79-.94-6.6-12.74-12.12-26.13-16.38-39.78-1.81-5.83-3.43-11.73-4.81-17.71-.02.02-.02.04-.04.06-3.72,5.34-4.52,10.01-5.57,13.23-1.13,3.45-3.55,8.14-9.23,13.11-.78-.88-6.47-7.52-4.91-16.44,1.36-7.71,7.6-14.03,15.8-15.88.84-.16,1.73-.21,2.65-.08-.62-2.94-1.17-5.9-1.68-8.86l3.84-.66c1.5,8.86,3.51,17.71,5.98,26.36,3.37.35,9.45,1.48,15.68,5.65,6.57,4.38,9.94,9.86,11.4,12.62Z"/>
      <path class="cls-2" d="M156.85,135.11s.08-.01.13-.02c3.2-.49,5.79,2.51,4.88,5.61-.38,1.29-.85,2.65-1.44,4.06-2.94,7-7.14,11.23-8.13,12.2-6.01,5.88-12.7,8.13-16.17,9.02.05-3.06.59-11.3,6.36-19.36,5.08-7.09,11.51-10.29,14.38-11.51Z"/>
      <path class="cls-2" d="M199.27,128.36c.82,2.47,1.65,4.95,2.47,7.42,1.62,3.56,4.32,8.22,8.8,12.61,11.1,10.85,25.02,12.04,29.43,12.24-5.29-17.4-15.05-28.79-22.23-31.51-5.87-2.22-11.43-2-11.43-2-2.95.12-5.36.7-7.05,1.23Z"/>
      <path class="cls-2" d="M150.34,92.12c-1.96-.51-10.85-3.08-16.52-12.11-5.33-8.49-4.22-17.01-3.88-19.15,1.32,1.62,3.22,3.84,5.66,6.36,1.92,1.98,5.18,5.19,9.66,8.85,6.92,5.64,8.76,5.82,11.43,9.44,2.3,3.13,3.36,6.3,3.9,8.5-3.42-.63-6.84-1.26-10.26-1.9Z"/>
      <path class="cls-2" d="M194.01,77.51l-.41,1.18c-1.43,4.08-.51,8.59,2.49,12.2l2.58,3.1c4.3-5.27,9.45-12.76,13.4-22.46,3.69-9.06,5.19-17.25,5.79-23.53-4.8,3.44-10.88,8.63-16.24,15.97-3.59,4.91-5.98,9.6-7.6,13.55Z"/>
      <g>
        <path class="cls-2" d="M222.76,119.82c-4.56-1.38-8.75-3.67-12.25-5.72-1.15-.7-2.41-1.67-3.06-3.59l1.22-1.91.4-.09c1.91,0,3.25.85,4.19,1.59,1.9,1.52,4.38,3.58,6.68,5.96,1.17,1.19,2.16,2.33,3.02,3.46.05.07.05.16,0,.23-.04.05-.1.08-.16.08-.02,0-.04,0-.06,0Z"/>
        <path class="cls-2" d="M208.84,108.7c1.84-.07,3.15.63,4.32,1.54,2.32,1.86,4.58,3.79,6.66,5.95,1.05,1.07,2.07,2.2,3.01,3.44-4.35-1.32-8.32-3.43-12.2-5.71-1.26-.77-2.38-1.74-2.97-3.49l1.2-1.73h0Z"/>
        <path class="cls-2" d="M207.23,104.26l-2-.66c-.76-2.05-.34-3.59.15-4.83,1.38-3.34,2.57-5.83,3.85-8.08.82-1.46,1.63-2.73,2.48-3.87.04-.05.1-.08.16-.08.02,0,.04,0,.06.01.08.03.13.1.13.19-.05,4.74-1.02,9.22-2.07,13.36-.35,1.3-.93,2.78-2.59,3.94-.03.02-.07.04-.11.04-.02,0-.04,0-.06-.01Z"/>
        <path class="cls-2" d="M205.29,103.42c-.58-1.75-.28-3.2.27-4.58,1.14-2.75,2.35-5.46,3.84-8.06.73-1.31,1.54-2.6,2.46-3.85-.05,4.54-.96,8.95-2.06,13.31-.38,1.43-1.01,2.78-2.52,3.83l-2-.66h0Z"/>
        <path class="cls-2" d="M201.34,106.26c-2.71-.13-4.6-1.62-6.46-3.26l-.52-.5c-1.49-1.44-3.74-3.6-4.14-5.33-.02-.07,0-.13.05-.18.04-.04.09-.06.14-.06.02,0,.03,0,.04,0,4.52,1.06,9.99,2.84,12.26,7.31.03.06.03.14-.01.2l-1.2,1.73c-.04.05-.1.08-.16.08h0Z"/>
        <path class="cls-2" d="M190.41,97.13c4.59,1.07,9.91,2.83,12.13,7.21,0,0-1.2,1.73-1.2,1.73-2.65-.13-4.49-1.58-6.34-3.21-1.35-1.32-4.17-3.85-4.6-5.73h0Z"/>
        <path class="cls-2" d="M199.54,125.03s-.06,0-.09-.02c-.06-.03-.1-.09-.1-.16-.25-4.63-.07-10.39,3.58-13.82.04-.03.09-.05.13-.05.02,0,.04,0,.06.01.06.02,1.99.66,1.99.66.76,2.78-.14,5.01-1.19,7.25l-.33.63c-.96,1.84-2.41,4.61-3.96,5.47-.03.02-.06.02-.1.02Z"/>
        <path class="cls-2" d="M199.54,124.83c-.25-4.71-.06-10.31,3.52-13.67,0,0,2,.66,2,.66.62,2.58-.26,4.75-1.31,6.98-.89,1.66-2.53,5.08-4.21,6.02h0Z"/>
        <path class="cls-2" d="M211.15,108.24c-.72,0-1.44-.3-2.22-.92l-.73-2.09c.57-2.33,1.81-2.6,3.01-2.87.25-.05.49-.11.73-.18l1-.22c3.33-.74,6.78-1.51,10.17-1.51.68,0,1.36.03,2.03.1.08,0,.15.06.17.14.02.08,0,.16-.07.21-3.92,3.04-8.03,5-11.54,6.51-.25.09-.48.2-.7.3-.57.26-1.16.53-1.85.53Z"/>
        <path class="cls-2" d="M225.12,100.75c-3.59,2.79-7.42,4.73-11.49,6.48-1.35.5-2.51,1.58-4.57-.06l-.67-2c.66-2.56,2.24-2.38,3.62-2.8,4.25-.94,8.8-2.07,13.12-1.63h0Z"/>
        <path class="cls-2" d="M205.02,109.97c-1.1,0-2.08-.7-2.43-1.75-.22-.65-.17-1.34.14-1.95.3-.61.83-1.07,1.48-1.29.26-.09.54-.13.81-.13,1.1,0,2.08.7,2.43,1.75.22.65.17,1.34-.14,1.96-.3.61-.83,1.07-1.48,1.29-.26.09-.54.13-.81.13Z"/>
        <circle class="cls-2" cx="205.02" cy="107.41" r="2.37"/>
        <path class="cls-2" d="M191.78,114.52c-1.7,0-3.41-.27-5.06-.82-.06-.02-.1-.07-.12-.12s-.01-.12.02-.17c2.77-3.99,7.12-6.47,11.34-6.47,1.09,0,2.18.16,3.23.48l.8,2.12c-2.3,3.28-5.92,4.99-10.21,4.99Z"/>
        <path class="cls-2" d="M201.81,109.59c-3.44,4.69-9.72,5.66-15.03,3.92,3.19-4.59,8.79-7.59,14.36-5.92,0,0,.67,2,.67,2h0Z"/>
      </g>
      <g>
        <path class="cls-2" d="M166.7,144.67c-.05,0-.1-.02-.14-.06-.06-.06-.07-.15-.03-.23,2.27-4.19,5.35-7.84,8.06-10.85.91-.99,2.12-2.03,4.13-2.28l1.62,1.58c-.28,2.17-1.37,3.33-2.39,4.2-1.88,1.56-4.39,3.58-7.18,5.35-1.4.91-2.71,1.65-3.99,2.27-.03.01-.06.02-.08.02Z"/>
        <path class="cls-2" d="M180.21,132.97c-.3,1.82-1.25,2.96-2.37,3.92-2.29,1.9-4.63,3.73-7.16,5.33-1.26.82-2.57,1.58-3.97,2.26,2.16-4,5.02-7.47,8.03-10.81,1-1.08,2.19-1.99,4.01-2.21l1.46,1.52h0Z"/>
        <path class="cls-2" d="M200.89,140.48c-4.65-1-9.02-2.94-12.67-4.7-1.2-.6-2.54-1.46-3.34-3.33l1.06-2c.41-.13.68-.14.92-.14,1.65,0,2.89.67,3.78,1.26,2.02,1.36,4.66,3.2,7.15,5.39,1.26,1.09,2.34,2.13,3.3,3.2.06.06.07.16.02.23-.04.06-.1.1-.17.1-.01,0-.03,0-.04,0Z"/>
        <path class="cls-2" d="M186.1,130.55c1.83-.22,3.19.37,4.43,1.18,2.47,1.66,4.88,3.4,7.12,5.38,1.14.98,2.24,2.02,3.28,3.18-4.44-.96-8.57-2.73-12.63-4.68-1.32-.66-2.52-1.54-3.25-3.23l1.05-1.83h0Z"/>
        <path class="cls-2" d="M185.75,127.87c-.05,0-.1-.02-.14-.06l-1.46-1.52c.62-2.81,2.46-4.37,4.44-5.86l.6-.41c1.71-1.17,4.28-2.95,6.05-2.99h0c.06,0,.13.03.16.09.04.06.04.13.01.19-1.94,4.22-4.78,9.22-9.62,10.55-.02,0-.03,0-.05,0Z"/>
        <path class="cls-2" d="M195.24,117.23c-1.97,4.28-4.76,9.14-9.49,10.45,0,0-1.46-1.52-1.46-1.52.66-2.57,2.45-4.08,4.42-5.56,1.56-1.05,4.6-3.31,6.53-3.36h0Z"/>
        <path class="cls-2" d="M177.64,128.83c-2.58,0-4.52-1.29-6.44-2.72l-.56-.46c-1.61-1.31-4.03-3.29-4.57-4.97-.02-.06,0-.13.04-.19.04-.04.09-.07.15-.07,0,0,.02,0,.03,0,4.59.68,10.19,2.01,12.82,6.28.04.06.04.14,0,.2l-1.05,1.83-.43.1Z"/>
        <path class="cls-2" d="M166.27,120.62c4.66.69,10.11,2.01,12.68,6.19,0,0-1.05,1.83-1.05,1.83-2.65.09-4.6-1.2-6.58-2.68-1.45-1.2-4.47-3.49-5.06-5.33h0Z"/>
        <path class="cls-2" d="M184.75,150.7c-.07,0-.14-.04-.18-.11-2.2-4.45-3.29-8.87-4.06-12.61-.04-.26-.1-.5-.15-.75-.28-1.2-.56-2.44,1.19-3.91l2.19-.3c2.17,1.03,2.19,2.3,2.21,3.53,0,.25,0,.51.03.75l.02,1.03c.07,4.12.15,8.37-1.06,12.22-.02.08-.09.13-.17.14,0,0,0,0-.02,0Z"/>
        <path class="cls-2" d="M184.75,150.51c-2.02-4.07-3.15-8.22-4.05-12.56-.22-1.42-1.05-2.77.97-4.47l2.09-.26c2.37,1.16,1.89,2.67,2.02,4.1.07,4.35.26,9.04-1.03,13.18h0Z"/>
        <path class="cls-2" d="M182.24,132.05c-1.29,0-2.38-.97-2.54-2.25-.17-1.4.83-2.68,2.23-2.85.1-.01.21-.02.31-.02,1.29,0,2.38.97,2.54,2.25.08.68-.1,1.35-.53,1.89-.42.54-1.03.88-1.71.96-.1.01-.21.02-.31.02Z"/>
        <circle class="cls-2" cx="182.24" cy="129.49" r="2.37"/>
        <path class="cls-2" d="M180.74,126.1c-.06,0-.11-.02-.14-.06-4.17-4.6-3.44-11.22-.86-15.74.03-.05.08-.09.15-.1,0,0,.02,0,.02,0,.05,0,.1.02.14.06,3.59,3.76,5.9,10.01,2.96,15.48,0,0-2.25.36-2.26.36Z"/>
        <path class="cls-2" d="M180.74,125.9c-3.9-4.3-3.61-10.65-.84-15.51,3.86,4.05,5.68,10.14,2.93,15.25,0,0-2.09.26-2.09.26h0Z"/>
      </g>
      <g>
        <path class="cls-2" d="M158.46,99.99c-.08,0-.15-.05-.18-.12-.03-.08,0-.17.06-.22,3.06-2.52,6.58-4.38,9.62-5.86.96-.45,1.75-.65,2.58-.65.44,0,.89.06,1.35.18l.78,1.74c-.9,1.63-2.11,2.18-3.18,2.54-1.93.62-4.5,1.39-7.22,1.88-1.37.26-2.61.43-3.79.5,0,0,0,0-.01,0Z"/>
        <path class="cls-2" d="M172.49,95.14c-.8,1.31-1.89,1.89-3.06,2.28-2.36.75-4.74,1.43-7.19,1.88-1.23.24-2.48.42-3.77.5,2.92-2.41,6.21-4.19,9.58-5.83,1.11-.52,2.31-.85,3.79-.45l.65,1.63h0Z"/>
        <path class="cls-2" d="M186.18,107.47s-.08-.01-.11-.03c-3.28-2.23-6.04-5.09-8.32-7.6-.74-.84-1.51-1.93-1.54-3.64l1.46-1.24c1.81.41,2.69,1.42,3.33,2.34,1.68,2.49,2.86,4.46,3.83,6.4.64,1.24,1.14,2.39,1.54,3.5.03.08,0,.17-.06.22-.04.03-.08.04-.12.04Z"/>
        <path class="cls-2" d="M177.79,95.12c1.48.4,2.35,1.28,3.05,2.3,1.39,2.06,2.7,4.15,3.81,6.38.57,1.11,1.1,2.26,1.53,3.48-3.13-2.13-5.76-4.79-8.28-7.57-.81-.92-1.46-1.98-1.5-3.51l1.38-1.08h0Z"/>
        <path class="cls-2" d="M179.31,93.04c-.3,0-.61-.02-.92-.05h0c-.1,0-.12-.04-.8-1.75,1.37-2.01,3.28-2.64,5.28-3.17l.59-.13c1.19-.26,2.83-.63,4.18-.63.59,0,1.07.07,1.44.21.06.02.11.08.12.14.01.07,0,.13-.06.18-2.57,2.42-6.02,5.2-9.83,5.2Z"/>
        <path class="cls-2" d="M189.01,87.7c-2.86,2.69-6.53,5.57-10.59,5.09,0,0-.65-1.63-.65-1.63,1.31-1.78,3.16-2.39,5.15-2.91,1.53-.32,4.59-1.12,6.09-.55h0Z"/>
        <path class="cls-2" d="M171.99,91.26c-2.13-.78-3.27-2.44-4.34-4.21l-.29-.53c-.83-1.52-2.09-3.81-1.97-5.28,0-.07.04-.13.1-.16.03-.01.06-.02.09-.02.03,0,.07,0,.1.03,3.34,1.97,7.25,4.75,7.95,8.88.01.07-.02.14-.07.19l-1.38,1.08s-.08.04-.12.04c-.02,0-.05,0-.07-.01Z"/>
        <path class="cls-2" d="M165.59,81.26c3.38,1.99,7.17,4.71,7.85,8.74,0,0-1.38,1.08-1.38,1.08-2.08-.76-3.18-2.37-4.24-4.13-.74-1.38-2.36-4.09-2.23-5.69h0Z"/>
        <path class="cls-2" d="M170.44,110.28c-.08-.02-.13-.09-.14-.17-.31-4.12.23-7.88.8-11.01.05-.21.08-.42.12-.63.15-.97.33-2.07,2.16-2.67l1.8.45c1.38,1.49.98,2.53.62,3.45-.08.2-.15.39-.21.59l-.31.81c-1.23,3.2-2.51,6.51-4.65,9.11-.04.05-.09.07-.15.07-.02,0-.04,0-.06,0Z"/>
        <path class="cls-2" d="M170.5,110.1c-.28-3.77.14-7.33.8-10.96.28-1.17.06-2.47,2.15-3.15l1.69.46c1.47,1.64.62,2.65.28,3.8-1.31,3.38-2.62,7.06-4.92,9.85h0Z"/>
        <path class="cls-2" d="M175.14,95.26c-.19,0-.38-.03-.57-.08-.56-.15-1.02-.51-1.31-1.01-.29-.5-.36-1.09-.21-1.64.25-.94,1.11-1.6,2.09-1.6.19,0,.38.03.57.08,1.15.31,1.84,1.5,1.53,2.65-.25.94-1.11,1.6-2.09,1.6Z"/>
        <circle class="cls-2" cx="175.14" cy="93.09" r="1.97"/>
        <path class="cls-2" d="M176.75,90.5l-1.69-.46c-1.92-4.99.73-9.88,4.14-12.57.03-.03.08-.04.12-.04.02,0,.03,0,.05,0,.06.02.11.06.13.12,1.6,4.04,1.42,9.6-2.57,12.91-.03.03-.08.04-.12.04-.02,0-.03,0-.05,0Z"/>
        <path class="cls-2" d="M175.11,89.86c-1.67-4.54.55-9.35,4.21-12.23,1.71,4.33,1.21,9.6-2.51,12.69,0,0-1.69-.46-1.69-.46h0Z"/>
      </g>
      <g>
        <path class="cls-2" d="M127.84,127.5c-.08,0-.15-.04-.18-.12-.03-.08-.02-.17.05-.22,3.68-3.32,7.98-5.82,11.69-7.84,1.26-.66,2.32-.95,3.43-.95.46,0,.94.05,1.41.16l1.04,2.11c-1.03,2.03-2.5,2.78-3.8,3.28-2.38.88-5.54,1.98-8.91,2.75-1.69.41-3.23.68-4.71.83,0,0-.01,0-.02,0Z"/>
        <path class="cls-2" d="M145.11,120.72c-.93,1.68-2.26,2.47-3.7,3.02-2.91,1.07-5.84,2.05-8.88,2.74-1.52.36-3.08.66-4.69.83,3.52-3.17,7.53-5.58,11.65-7.81,1.36-.71,2.84-1.19,4.71-.77l.9,2h0Z"/>
        <path class="cls-2" d="M165.58,135.72s-.07,0-.1-.03c-4.21-2.6-7.83-6.02-10.8-9.03-.97-1.01-1.98-2.32-2.12-4.43l1.73-1.59c2.23.42,3.37,1.62,4.22,2.73,1.51,2.04,3.46,4.77,5.13,7.78.86,1.52,1.56,2.92,2.12,4.29.03.08,0,.17-.06.22-.04.03-.08.05-.13.05Z"/>
        <path class="cls-2" d="M154.42,120.8c1.87.42,3,1.48,3.93,2.7,1.84,2.49,3.6,5.04,5.12,7.76.78,1.36,1.49,2.77,2.11,4.27-4.03-2.49-7.46-5.67-10.76-9-1.07-1.11-1.93-2.39-2.06-4.31l1.67-1.43h0Z"/>
        <path class="cls-2" d="M153.84,118.08c-.24,0-.47,0-.71-.03q-.14-.05-1.07-2.11c1.59-2.53,3.93-3.42,6.39-4.19l.73-.19c1.61-.43,3.81-1.02,5.54-1.02.56,0,1.04.06,1.43.19.06.02.11.07.13.14.02.07,0,.13-.05.18-3.19,3.27-7.48,7.03-12.4,7.03Z"/>
        <path class="cls-2" d="M166.09,110.91c-3.43,3.52-7.86,7.32-12.95,6.94,0,0-.9-2-.9-2,1.54-2.3,3.82-3.15,6.27-3.92,1.9-.49,5.67-1.65,7.58-1.02h0Z"/>
        <path class="cls-2" d="M145.05,116.25c-2.69-.85-4.2-2.85-5.63-5l-.39-.64c-1.12-1.84-2.81-4.63-2.75-6.46,0-.07.04-.13.1-.16.03-.02.06-.03.1-.03.03,0,.06,0,.09.02,4.27,2.27,9.3,5.53,10.39,10.62.02.07-.01.15-.07.19-.05.04-1.66,1.42-1.66,1.42-.04.03-.08.05-.13.05-.02,0-.04,0-.06,0Z"/>
        <path class="cls-2" d="M136.48,104.15c4.34,2.31,9.22,5.49,10.29,10.49,0,0-1.67,1.43-1.67,1.43-2.64-.84-4.1-2.79-5.52-4.92-1-1.69-3.17-4.98-3.11-6.99h0Z"/>
        <path class="cls-2" d="M144.15,140.1c-.08-.02-.13-.09-.14-.17-.61-5.13-.14-9.85.4-13.79.05-.27.08-.53.11-.79.15-1.27.3-2.58,2.53-3.41l2.25.47c1.76,1.76,1.34,3.01.93,4.22-.08.25-.17.5-.23.75l-.34,1.01c-1.36,4.07-2.78,8.28-5.3,11.64-.04.05-.1.08-.16.08-.02,0-.03,0-.05,0Z"/>
        <path class="cls-2" d="M144.2,139.91c-.56-4.7-.23-9.16.4-13.74.28-1.47-.06-3.09,2.51-4.05l2.14.48c1.92,1.97.92,3.28.55,4.73-1.45,4.29-2.89,8.97-5.61,12.58h0Z"/>
        <path class="cls-2" d="M149.07,121.07c-.19,0-.39-.02-.58-.06-1.43-.32-2.34-1.74-2.02-3.18.27-1.21,1.36-2.08,2.59-2.08.19,0,.39.02.58.06,1.43.32,2.34,1.74,2.02,3.17-.27,1.21-1.36,2.08-2.6,2.08Z"/>
        <circle class="cls-2" cx="149.07" cy="118.41" r="2.46"/>
        <path class="cls-2" d="M148.8,114.56c-2.63-6.08.4-12.32,4.5-15.85.04-.03.08-.05.13-.05.01,0,.03,0,.04,0,.06.01.11.05.14.11,2.21,4.94,2.3,11.88-2.49,16.22-.04.03-.08.05-.13.05-.01,0-2.18-.48-2.18-.48Z"/>
        <path class="cls-2" d="M148.84,114.37c-2.33-5.59.17-11.71,4.58-15.51,2.38,5.32,2.04,11.93-2.44,15.99,0,0-2.14-.48-2.14-.48h0Z"/>
      </g>
    </g>
  </g>
</svg>