<?xml version="1.0" encoding="UTF-8"?>
<svg id="Capa_2" data-name="Capa 2" xmlns="http://www.w3.org/2000/svg" viewBox="0 0 120.89 120.89">
  <path d="M37.21,79.46c.87-.24,2.38-.54,4.22-.28,2.18.31,3.73,1.24,4.5,1.78.87-.59,2.02-1.36,3.38-2.25,3.01-1.96,3.94-2.45,5.06-3.66.73-.78,1.51-1.85,2.16-3.28-.5-.85-4.51-7.52-12.75-8.72-7.1-1.03-12.26,2.74-13.22,3.47-.7,2.45-.36,4.05.07,5.05.77,1.78,2.1,2.33,4.54,5.21.93,1.1,1.62,2.06,2.04,2.68Z"/>
  <path d="M73.37,79.55c-.27,0-.55-.12-.75-.33-.18-.18-.29-.41-.33-.65l-.09-.06c-.93-.56-1.98-1.19-3.22-1.59-2.12-.68-4.92-1.33-7.66-1.81-.18-.03-.3-.2-.27-.38l.12-.7-.05-.65c0-.17.11-.31.27-.34.09-.02,2.31-.45,6.25-5.33.88-4.39-1.85-16.63-2.16-18.02,0-.03-.02-.1-.02-.13.03-.5.38-.91.86-1,.07-.01.14-.02.21-.02.39,0,.75.21.94.55.46,1.86.86,3.84,1.3,6.29.47,2.68,1.03,6.34,1.12,9.31.7-1.01,1.39-2.08,2.06-3.19,6.97-11.38,7.91-25.4,7.92-25.53.09-.58.54-.98,1.07-.98.07,0,.13,0,.19.02.49.1.84.55.83,1.07,0,0,0,.11,0,.12-.12,1.45-1.31,14.23-7.47,25.12,1.91-.47,4.22-.71,6.88-.71s4.67.25,4.69.25c.42.11.73.35.89.69.13.28.15.57.04.82-.15.35-.55.58-1.01.58-.05,0-.1,0-.16,0-1.19-.15-2.56-.22-4.19-.22h-.75c-3.48.05-6.27.54-8.09,1.42-3.51,5.45-6.25,8.15-8.08,9.5,6.24,1.32,9.49,2.85,9.67,4.56.07.28,0,.62-.18.89-.17.24-.42.41-.68.45-.02,0-.12.01-.13.01Z"/>
  <path d="M86.01,61.19c.57.15.82.7.67,1.05-.11.25-.45.42-.83.38-1.45-.18-3.13-.24-4.98-.22-2.74.04-6.04.36-8.32,1.48-3.85,6-6.79,8.71-8.67,9.92,4.08.82,9.95,2.34,10.16,4.43.11.49-.21.93-.59.98-.4.06-.86-.31-.85-.84-1.01-.6-2.14-1.32-3.52-1.76-2.06-.66-4.82-1.32-7.71-1.82l.11-.7-.04-.72c.24-.04,2.56-.62,6.5-5.51.99-4.64-2.13-18.14-2.16-18.27.02-.34.27-.63.6-.7.31-.06.63.09.8.37.46,1.94.87,4.01,1.26,6.19.59,3.31,1.15,7.31,1.13,10.27.83-1.16,1.73-2.5,2.66-4.04,7-11.44,7.96-25.55,7.96-25.69.07-.44.48-.73.87-.65.32.07.57.38.57.75,0,.03,0,.07,0,.1-.1,1.28-1.26,14.55-7.83,25.66,5-1.5,11.88-.7,12.21-.66Z"/>
  <polygon points="61.49 74.09 61.44 73.37 61.45 73.37 61.49 74.09"/>
  <path d="M47.33,89.6c.25-.33,1.05-1.44,1.03-3.07-.01-1.57-.77-2.64-1.03-2.98.41-.35.79-.76,1.13-1.14.45-.51.81-.85.84-.88.42-.44,6.41-6.39,9.75-5.77,5.3.99,7.57,19.18,3.52,21.1-2.48,1.17-8.58-3.14-9.86-4.14-.32-.25-1.49-1.2-5.38-3.13Z"/>
  <path d="M45.54,91.76c1.43.35,3.4,1.01,5.47,2.34,3.26,2.09,5.08,4.74,5.96,6.26-.04,1.16-.31,4.71-3,7.81-4.06,4.67-11.96,2-12.64,1.95-1.15-1.19-2.38-2.87-3.35-7.66-.88-4.33.51-6.96,1.03-8.53.83,0,2.04-.1,3.42-.55,1.4-.46,2.44-1.11,3.11-1.61Z"/>
  <path d="M30.84,84.48c-1,.54-3.36,1.63-6.53,1.47-3.44-.17-5.83-1.72-6.74-2.39-.4-.87-1.53-3.59-.7-6.88,1.25-4.96,5.86-6.92,6.39-7.13,1.29.45,4.37,1.72,6.88,4.89,2.26,2.86,2.89,5.8,3.09,7.16-.8.96-1.59,1.92-2.39,2.88Z"/>
  <path d="M31.02,87.87c.31.74.76,1.62,1.41,2.53,1.14,1.6,2.43,2.65,3.38,3.28.28.83,1.04,3.46-.09,6.38-1.8,4.61-6.72,5.73-7.13,5.81-5.34-.32-9.87-3.57-11.44-8.16-1.59-4.64.51-8.76.94-9.56,1.22-.39,2.68-.76,4.35-.95,3.58-.41,6.58.12,8.59.67Z"/>
  <ellipse cx="39.49" cy="86.39" rx="6.27" ry="4.78"/>
  <path d="M99.21,69.3c-1.03-.15-2.19-.51-3.29-.56-4.07-.21-6.66-1.03-7.19-4.51-.53-3.5,1.61-6.32,5.26-7.62.87-.31,1.91-1.23,2.71-1.59,2.19-.98,3.23-1.75,5.68-2.12,4.55-.68,8.75,2.43,9.46,6.98.68,4.52-2.14,8.76-6.66,9.44-2.21.32-3.73.31-5.96-.02Z"/>
  <path d="M92.66,47.33c-.67.09-1.46.08-2.16.25-2.58.61-4.34.57-5.31-1.51-.97-2.09-.14-4.24,1.89-5.71.48-.35.97-1.11,1.4-1.48,1.19-1.01,1.69-1.68,3.16-2.35,2.71-1.25,5.9-.08,7.17,2.63,1.25,2.7.26,5.86-2.44,7.1-1.32.6-2.27.87-3.72,1.07Z"/>
  <path d="M78.1,89.08c-.5-.51-.98-1.17-1.55-1.65-2.12-1.78-3.18-3.29-2.04-5.39,1.15-2.11,3.46-2.76,5.97-1.97.6.19,1.54.12,2.12.25,1.59.37,2.46.38,3.94,1.19,2.74,1.5,3.74,4.91,2.25,7.65-1.49,2.73-4.75,3.86-7.48,2.38-1.33-.73-2.14-1.36-3.21-2.46Z"/>
  <path d="M64.58,62.54c0,.55-.11,1.19-.06,1.77.18,2.15-.06,3.57-1.85,4.1-1.8.53-3.43-.39-4.38-2.21-.22-.43-.78-.91-1.03-1.31-.67-1.08-1.15-1.57-1.52-2.83-.69-2.34.65-4.77,2.98-5.47,2.33-.68,4.75.49,5.44,2.82.33,1.13.43,1.93.42,3.13Z"/>
  <path d="M69.31,38.07c-.23,1.02-.67,2.15-.8,3.24-.51,4.04-1.52,6.56-5.03,6.84-3.53.28-6.18-2.07-7.21-5.8-.24-.89-1.08-2-1.38-2.82-.82-2.26-1.51-3.35-1.69-5.82-.34-4.59,3.07-8.55,7.66-8.92,4.56-.34,8.58,2.78,8.93,7.34.16,2.22.03,3.74-.46,5.94Z"/>
  <path d="M85.98,22.07c-.23,1.02-.67,2.15-.8,3.24-.51,4.04-1.52,6.56-5.03,6.84-3.53.28-6.18-2.07-7.21-5.8-.24-.89-1.08-2-1.38-2.82-.82-2.26-1.51-3.35-1.69-5.82-.34-4.59,3.07-8.55,7.66-8.92,4.56-.34,8.58,2.78,8.93,7.34.16,2.22.03,3.74-.46,5.94Z"/>
</svg>