<?xml version="1.0" encoding="UTF-8"?>
<svg id="Capa_2" data-name="Capa 2" xmlns="http://www.w3.org/2000/svg" viewBox="0 0 119.37 119.37">
  <path d="M57.74,25.7c.79-.91,2.2-2.78,2.86-5.55.82-3.43,0-6.24-.4-7.39-1.23,1.01-3.94,3.55-5.02,7.71-.44,1.71-.49,3.25-.42,4.42.08.72.62,1.31,1.31,1.46.63.13,1.28-.13,1.67-.65Z"/>
  <path d="M83.02,36.27c.1-3.88,3.22-6.77,7.09-7.89-.18,3.76-2.4,7.29-6.41,8.37-.23.02-.35-.04-.43-.1-.15-.12-.25-.38-.25-.38h0Z"/>
  <path d="M32.01,48.65c-3.74,1.72-7.96.11-10.84-3.05,3.66-1.59,8.07-1.14,10.98,2.17.12.21.13.36.1.46-.05.2-.25.41-.25.41h0Z"/>
  <path d="M83.48,98.12c-.47-.21-1.18-.5-2.1-.68-2.96-.58-3.97.77-6.72.42-1.75-.22-3.1-.99-3.92-1.57,2.09,5.83,4.57,11.55,7.43,17.06.32.56.12,1.27-.39,1.56-.56.31-1.31.09-1.6-.54-3.78-7.3-6.94-14.96-9.38-22.78-1.04-3.34-1.96-6.72-2.76-10.14-.01.01-.01.02-.02.03-2.13,3.06-2.59,5.73-3.19,7.57-.65,1.97-2.03,4.66-5.29,7.51-.45-.5-3.7-4.31-2.81-9.42.78-4.42,4.35-8.03,9.05-9.09.48-.09.99-.12,1.52-.04-.36-1.68-.67-3.38-.96-5.08l2.2-.38c.86,5.08,2.01,10.14,3.42,15.09,1.93.2,5.41.85,8.98,3.24,3.76,2.51,5.69,5.64,6.53,7.23Z"/>
  <path d="M46.26,61.85s.05,0,.07-.01c1.83-.28,3.32,1.44,2.79,3.21-.22.74-.49,1.52-.83,2.33-1.68,4.01-4.09,6.43-4.66,6.98-3.44,3.37-7.27,4.65-9.26,5.16.03-1.75.34-6.47,3.64-11.09,2.91-4.06,6.59-5.89,8.24-6.59Z"/>
  <path d="M70.56,57.99c.47,1.42.94,2.83,1.41,4.25.93,2.04,2.47,4.71,5.04,7.22,6.35,6.21,14.32,6.9,16.85,7.01-3.03-9.96-8.62-16.49-12.73-18.04-3.36-1.27-6.55-1.14-6.55-1.14-1.69.07-3.07.4-4.04.71Z"/>
  <path d="M42.54,37.23c-1.12-.29-6.22-1.76-9.46-6.93-3.05-4.86-2.42-9.74-2.22-10.97.76.93,1.85,2.2,3.24,3.64,1.1,1.13,2.96,2.97,5.53,5.07,3.96,3.23,5.01,3.33,6.54,5.41,1.32,1.79,1.93,3.61,2.24,4.87-1.96-.36-3.92-.72-5.87-1.09Z"/>
  <path d="M67.55,28.87l-.24.67c-.82,2.34-.29,4.92,1.43,6.98l1.48,1.77c2.46-3.02,5.41-7.31,7.67-12.86,2.11-5.19,2.97-9.88,3.32-13.47-2.75,1.97-6.23,4.94-9.3,9.14-2.05,2.81-3.42,5.5-4.35,7.76Z"/>
  <g>
    <path d="M84.01,53.1c-2.61-.79-5.01-2.1-7.01-3.28-.66-.4-1.38-.96-1.75-2.06l.7-1.09.23-.05c1.1,0,1.86.49,2.4.91,1.09.87,2.51,2.05,3.82,3.41.67.68,1.24,1.33,1.73,1.98.03.04.03.09,0,.13-.02.03-.06.05-.09.05-.01,0-.02,0-.03,0Z"/>
    <path d="M76.04,46.73c1.05-.04,1.8.36,2.47.88,1.33,1.07,2.62,2.17,3.81,3.4.6.61,1.18,1.26,1.72,1.97-2.49-.76-4.76-1.96-6.99-3.27-.72-.44-1.36-1-1.7-2l.68-.99h0Z"/>
    <path d="M75.12,44.19l-1.14-.38c-.44-1.17-.2-2.05.09-2.77.79-1.91,1.47-3.34,2.21-4.63.47-.84.93-1.56,1.42-2.21.02-.03.05-.05.09-.05.01,0,.02,0,.04,0,.05.02.08.06.08.11-.03,2.71-.59,5.28-1.18,7.65-.2.74-.53,1.59-1.48,2.26-.02.01-.04.02-.06.02-.01,0-.02,0-.03,0Z"/>
    <path d="M74.01,43.7c-.33-1-.16-1.83.16-2.62.65-1.58,1.35-3.13,2.2-4.61.42-.75.88-1.49,1.41-2.2-.03,2.6-.55,5.12-1.18,7.62-.22.82-.58,1.59-1.44,2.19l-1.14-.38h0Z"/>
    <path d="M71.74,45.33c-1.55-.08-2.63-.93-3.7-1.87l-.3-.29c-.85-.82-2.14-2.06-2.37-3.05,0-.04,0-.08.03-.1.02-.02.05-.03.08-.03,0,0,.02,0,.03,0,2.59.6,5.72,1.63,7.02,4.19.02.04.02.08,0,.11l-.69.99s-.05.05-.09.05h0Z"/>
    <path d="M65.49,40.1c2.63.62,5.68,1.62,6.95,4.13,0,0-.68.99-.68.99-1.52-.07-2.57-.9-3.63-1.84-.77-.76-2.39-2.2-2.63-3.28h0Z"/>
    <path d="M70.71,56.08s-.04,0-.05-.01c-.03-.02-.06-.05-.06-.09-.14-2.65-.04-5.95,2.05-7.91.02-.02.05-.03.08-.03.01,0,.03,0,.04,0,.03.01,1.14.38,1.14.38.43,1.59-.08,2.87-.68,4.15l-.19.36c-.55,1.05-1.38,2.64-2.26,3.13-.02,0-.04.01-.05.01Z"/>
    <path d="M70.71,55.97c-.15-2.7-.03-5.9,2.02-7.83,0,0,1.14.38,1.14.38.35,1.48-.15,2.72-.75,4-.51.95-1.45,2.91-2.41,3.45h0Z"/>
    <path d="M77.36,46.47c-.41,0-.83-.17-1.27-.52l-.42-1.19c.33-1.33,1.04-1.49,1.72-1.64.14-.03.28-.06.42-.1l.58-.13c1.91-.42,3.88-.86,5.82-.86.39,0,.78.02,1.16.06.05,0,.08.04.1.08.01.04,0,.09-.04.12-2.24,1.74-4.6,2.86-6.61,3.73-.14.05-.27.11-.4.17-.33.15-.66.3-1.06.3Z"/>
    <path d="M85.36,42.18c-2.06,1.6-4.25,2.71-6.58,3.71-.77.28-1.44.91-2.62-.03l-.38-1.14c.38-1.46,1.28-1.36,2.07-1.6,2.43-.54,5.04-1.18,7.51-.93h0Z"/>
    <path d="M73.85,47.46c-.63,0-1.19-.4-1.39-1-.12-.37-.1-.77.08-1.12.17-.35.47-.61.85-.74.15-.05.31-.08.47-.08.63,0,1.19.4,1.39,1,.12.37.1.77-.08,1.12-.17.35-.47.61-.85.74-.15.05-.31.08-.47.08Z"/>
    <circle cx="73.85" cy="45.99" r="1.36"/>
    <path d="M66.27,50.06c-.98,0-1.95-.16-2.9-.47-.03-.01-.06-.04-.07-.07s0-.07.01-.1c1.59-2.29,4.08-3.71,6.5-3.71.63,0,1.25.09,1.85.27l.46,1.21c-1.32,1.88-3.39,2.86-5.85,2.86Z"/>
    <path d="M72.01,47.24c-1.97,2.68-5.56,3.24-8.61,2.25,1.83-2.63,5.04-4.35,8.22-3.39,0,0,.38,1.14.38,1.14h0Z"/>
  </g>
  <g>
    <path d="M51.91,67.33s-.06-.01-.08-.03c-.03-.03-.04-.09-.02-.13,1.3-2.4,3.06-4.49,4.62-6.21.52-.56,1.21-1.16,2.37-1.3l.93.9c-.16,1.24-.78,1.91-1.37,2.41-1.08.89-2.52,2.05-4.11,3.06-.8.52-1.55.95-2.29,1.3-.02,0-.03.01-.05.01Z"/>
    <path d="M59.64,60.63c-.17,1.04-.72,1.7-1.36,2.24-1.31,1.09-2.65,2.14-4.1,3.05-.72.47-1.47.91-2.27,1.29,1.24-2.29,2.88-4.28,4.6-6.19.58-.62,1.25-1.14,2.3-1.27l.83.87h0Z"/>
    <path d="M71.49,64.93c-2.66-.57-5.16-1.68-7.26-2.69-.69-.34-1.45-.84-1.91-1.91l.61-1.14c.24-.07.39-.08.53-.08.94,0,1.65.39,2.16.72,1.16.78,2.67,1.83,4.09,3.09.72.62,1.34,1.22,1.89,1.83.03.04.04.09.01.13-.02.03-.06.06-.1.06,0,0-.02,0-.02,0Z"/>
    <path d="M63.02,59.24c1.05-.13,1.83.21,2.54.68,1.41.95,2.79,1.95,4.08,3.08.65.56,1.28,1.16,1.88,1.82-2.54-.55-4.91-1.56-7.23-2.68-.76-.38-1.44-.88-1.86-1.85l.6-1.05h0Z"/>
    <path d="M62.82,57.71s-.06-.01-.08-.03l-.84-.87c.36-1.61,1.41-2.5,2.54-3.35l.34-.23c.98-.67,2.45-1.69,3.46-1.71h0s.07.02.09.05c.02.03.02.07,0,.11-1.11,2.41-2.74,5.28-5.51,6.04,0,0-.02,0-.03,0Z"/>
    <path d="M68.25,51.62c-1.13,2.45-2.72,5.24-5.43,5.98,0,0-.84-.87-.84-.87.38-1.47,1.4-2.34,2.53-3.19.89-.6,2.64-1.9,3.74-1.93h0Z"/>
    <path d="M58.17,58.26c-1.48,0-2.59-.74-3.69-1.56l-.32-.26c-.92-.75-2.31-1.88-2.61-2.85-.01-.04,0-.08.02-.11.02-.03.05-.04.08-.04,0,0,.01,0,.02,0,2.63.39,5.84,1.15,7.34,3.59.02.03.02.08,0,.11l-.6,1.05-.25.06Z"/>
    <path d="M51.66,53.56c2.67.4,5.79,1.15,7.26,3.54,0,0-.6,1.05-.6,1.05-1.52.05-2.64-.69-3.77-1.54-.83-.69-2.56-2-2.9-3.05h0Z"/>
    <path d="M62.24,70.78s-.08-.02-.1-.06c-1.26-2.55-1.88-5.08-2.33-7.22-.02-.15-.06-.29-.09-.43-.16-.69-.32-1.4.68-2.24l1.26-.17c1.24.59,1.25,1.31,1.26,2.02,0,.14,0,.29.02.43v.59c.05,2.36.09,4.8-.6,7-.01.04-.05.07-.1.08,0,0,0,0,0,0Z"/>
    <path d="M62.24,70.67c-1.15-2.33-1.8-4.71-2.32-7.19-.12-.82-.6-1.59.56-2.56l1.2-.15c1.36.66,1.08,1.53,1.16,2.35.04,2.49.15,5.18-.59,7.55h0Z"/>
    <path d="M60.8,60.1c-.74,0-1.36-.55-1.45-1.29-.1-.8.48-1.54,1.28-1.63.06,0,.12-.01.18-.01.74,0,1.36.55,1.45,1.29.05.39-.06.77-.3,1.08-.24.31-.59.5-.98.55-.06,0-.12.01-.18.01Z"/>
    <circle cx="60.81" cy="58.63" r="1.36"/>
    <path d="M59.95,56.69s-.06-.01-.08-.04c-2.39-2.63-1.97-6.42-.49-9.01.02-.03.05-.05.08-.06,0,0,0,0,.01,0,.03,0,.06.01.08.03,2.06,2.16,3.38,5.73,1.69,8.86,0,0-1.29.21-1.3.21Z"/>
    <path d="M59.95,56.58c-2.24-2.46-2.07-6.1-.48-8.88,2.21,2.32,3.25,5.8,1.68,8.74,0,0-1.2.15-1.2.15h0Z"/>
  </g>
  <g>
    <path d="M47.19,41.75s-.09-.03-.1-.07c-.02-.04,0-.1.03-.13,1.75-1.44,3.77-2.51,5.51-3.35.55-.26,1-.37,1.48-.37.25,0,.51.04.77.1l.45,1c-.52.93-1.21,1.25-1.82,1.45-1.11.35-2.58.8-4.13,1.08-.79.15-1.5.25-2.17.29,0,0,0,0,0,0Z"/>
    <path d="M55.22,38.97c-.46.75-1.08,1.08-1.75,1.31-1.35.43-2.71.82-4.12,1.07-.7.14-1.42.24-2.16.29,1.67-1.38,3.56-2.4,5.49-3.34.64-.3,1.32-.49,2.17-.26l.37.93h0Z"/>
    <path d="M63.06,46.03s-.04,0-.06-.02c-1.88-1.28-3.46-2.92-4.76-4.35-.43-.48-.86-1.11-.88-2.08l.83-.71c1.04.24,1.54.81,1.9,1.34.96,1.42,1.64,2.55,2.19,3.67.36.71.65,1.37.88,2.01.02.05,0,.1-.04.13-.02.02-.04.02-.07.02Z"/>
    <path d="M58.26,38.95c.85.23,1.34.74,1.75,1.32.79,1.18,1.55,2.38,2.18,3.65.33.64.63,1.3.88,1.99-1.79-1.22-3.3-2.74-4.74-4.33-.47-.53-.84-1.13-.86-2.01l.79-.62h0Z"/>
    <path d="M59.13,37.76c-.17,0-.35-.01-.52-.03h0c-.06,0-.07-.03-.46-1,.78-1.15,1.88-1.51,3.02-1.82l.34-.07c.68-.15,1.62-.36,2.39-.36.34,0,.61.04.83.12.04.01.06.05.07.08,0,.04,0,.08-.03.1-1.47,1.39-3.45,2.98-5.63,2.98Z"/>
    <path d="M64.68,34.71c-1.64,1.54-3.74,3.19-6.06,2.92,0,0-.37-.93-.37-.93.75-1.02,1.81-1.37,2.95-1.67.88-.19,2.63-.64,3.49-.32h0Z"/>
    <path d="M54.94,36.75c-1.22-.45-1.87-1.4-2.48-2.41l-.16-.3c-.48-.87-1.2-2.18-1.13-3.02,0-.04.03-.07.06-.09.02,0,.03-.01.05-.01.02,0,.04,0,.06.02,1.91,1.13,4.15,2.72,4.55,5.08,0,.04,0,.08-.04.11l-.79.62s-.04.02-.07.02c-.01,0-.03,0-.04,0Z"/>
    <path d="M51.27,31.02c1.94,1.14,4.11,2.7,4.5,5.01,0,0-.79.62-.79.62-1.19-.44-1.82-1.36-2.43-2.36-.42-.79-1.35-2.34-1.28-3.26h0Z"/>
    <path d="M54.05,47.64s-.07-.05-.08-.1c-.18-2.36.13-4.51.46-6.3.03-.12.05-.24.07-.36.09-.56.19-1.19,1.24-1.53l1.03.26c.79.85.56,1.45.36,1.98-.04.11-.09.22-.12.34l-.18.46c-.71,1.83-1.44,3.73-2.66,5.22-.02.03-.05.04-.09.04-.01,0-.02,0-.03,0Z"/>
    <path d="M54.08,47.53c-.16-2.16.08-4.19.46-6.27.16-.67.03-1.41,1.23-1.8l.97.26c.84.94.36,1.52.16,2.18-.75,1.93-1.5,4.04-2.82,5.64h0Z"/>
    <path d="M56.74,39.03c-.11,0-.22-.01-.32-.04-.32-.09-.59-.29-.75-.58-.16-.29-.21-.62-.12-.94.15-.54.64-.92,1.2-.92.11,0,.22.01.32.04.66.18,1.05.86.87,1.52-.15.54-.64.92-1.2.92Z"/>
    <circle cx="56.74" cy="37.79" r="1.13"/>
    <path d="M57.66,36.31l-.97-.26c-1.1-2.86.42-5.66,2.37-7.2.02-.02.04-.02.07-.02,0,0,.02,0,.03,0,.03,0,.06.03.07.07.92,2.31.81,5.5-1.47,7.39-.02.02-.04.03-.07.03,0,0-.02,0-.03,0Z"/>
    <path d="M56.72,35.94c-.95-2.6.31-5.35,2.41-7,.98,2.48.69,5.5-1.44,7.26,0,0-.97-.26-.97-.26h0Z"/>
  </g>
  <g>
    <path d="M29.66,57.5s-.08-.03-.1-.07c-.02-.04,0-.1.03-.13,2.11-1.9,4.57-3.34,6.7-4.49.72-.38,1.33-.55,1.97-.55.26,0,.54.03.81.09l.59,1.21c-.59,1.16-1.43,1.59-2.18,1.88-1.36.5-3.17,1.13-5.1,1.57-.97.23-1.85.39-2.7.48,0,0,0,0-.01,0Z"/>
    <path d="M39.54,53.61c-.53.96-1.29,1.41-2.12,1.73-1.67.61-3.35,1.17-5.09,1.57-.87.21-1.76.38-2.68.48,2.01-1.81,4.31-3.19,6.67-4.47.78-.41,1.62-.68,2.7-.44l.52,1.14h0Z"/>
    <path d="M51.27,62.21s-.04,0-.06-.02c-2.41-1.49-4.48-3.45-6.18-5.17-.55-.58-1.13-1.33-1.21-2.54l.99-.91c1.28.24,1.93.93,2.42,1.57.87,1.17,1.98,2.73,2.94,4.46.49.87.89,1.67,1.21,2.45.02.04,0,.1-.03.13-.02.02-.05.03-.07.03Z"/>
    <path d="M44.87,53.66c1.07.24,1.72.85,2.25,1.55,1.06,1.43,2.06,2.88,2.93,4.44.44.78.86,1.59,1.21,2.44-2.31-1.42-4.27-3.25-6.16-5.15-.61-.64-1.11-1.37-1.18-2.47l.95-.82h0Z"/>
    <path d="M44.54,52.1c-.14,0-.27,0-.41-.01q-.08-.03-.61-1.21c.91-1.45,2.25-1.96,3.66-2.4l.42-.11c.92-.25,2.18-.58,3.17-.58.32,0,.6.04.82.11.04.01.06.04.07.08,0,.04,0,.08-.03.1-1.83,1.87-4.28,4.02-7.1,4.02Z"/>
    <path d="M51.56,48c-1.96,2.01-4.5,4.19-7.42,3.98,0,0-.52-1.14-.52-1.14.88-1.31,2.19-1.81,3.59-2.25,1.09-.28,3.25-.94,4.34-.59h0Z"/>
    <path d="M39.51,51.05c-1.54-.49-2.4-1.63-3.22-2.86l-.22-.37c-.64-1.05-1.61-2.65-1.57-3.7,0-.04.02-.07.06-.09.02-.01.04-.02.06-.02.02,0,.04,0,.05.01,2.44,1.3,5.33,3.16,5.95,6.08,0,.04,0,.08-.04.11-.03.03-.95.81-.95.81-.02.02-.05.03-.07.03-.01,0-.02,0-.03,0Z"/>
    <path d="M34.6,44.12c2.48,1.32,5.28,3.15,5.89,6.01,0,0-.95.82-.95.82-1.51-.48-2.35-1.6-3.16-2.82-.57-.97-1.82-2.85-1.78-4h0Z"/>
    <path d="M38.99,64.71s-.08-.05-.08-.09c-.35-2.94-.08-5.64.23-7.9.03-.15.05-.3.06-.45.08-.73.17-1.48,1.45-1.95l1.29.27c1.01,1,.77,1.72.53,2.42-.05.14-.1.29-.13.43l-.19.58c-.78,2.33-1.59,4.74-3.04,6.66-.02.03-.05.04-.09.04,0,0-.02,0-.03,0Z"/>
    <path d="M39.02,64.6c-.32-2.69-.13-5.25.23-7.87.16-.84-.04-1.77,1.44-2.32l1.23.27c1.1,1.13.53,1.88.32,2.71-.83,2.46-1.66,5.13-3.21,7.2h0Z"/>
    <path d="M41.81,53.81c-.11,0-.22-.01-.33-.04-.82-.18-1.34-1-1.15-1.82.15-.69.78-1.19,1.48-1.19.11,0,.22.01.33.04.82.18,1.34,1,1.16,1.82-.15.69-.78,1.19-1.49,1.19Z"/>
    <circle cx="41.81" cy="52.29" r="1.41"/>
    <path d="M41.66,50.09c-1.5-3.48.23-7.05,2.58-9.08.02-.02.05-.03.07-.03,0,0,.02,0,.02,0,.03,0,.06.03.08.06,1.27,2.83,1.32,6.8-1.43,9.29-.02.02-.05.03-.08.03,0,0-1.25-.28-1.25-.28Z"/>
    <path d="M41.68,49.98c-1.34-3.2.1-6.71,2.63-8.88,1.36,3.04,1.17,6.83-1.4,9.16,0,0-1.23-.27-1.23-.27h0Z"/>
  </g>
</svg>