<?xml version="1.0" encoding="UTF-8"?>
<svg xmlns="http://www.w3.org/2000/svg" version="1.1" viewBox="0 0 353 276">
  <defs>
    <style>
      .cls-1 {
        fill: #a98973;
      }

      .cls-2 {
        fill: #f3f3f3;
      }
    </style>
  </defs>
  <!-- Generator: Adobe Illustrator 28.7.9, SVG Export Plug-In . SVG Version: 1.2.0 Build 218)  -->
  <g>
    <g id="Capa_1">
      <g id="Capa_3">
        <rect class="cls-1" x="-20.3" y="-12.8" width="393.7" height="317.2"/>
      </g>
      <g id="Capa_2">
        <g>
          <path class="cls-2" d="M176.9,72c1.4-1.6,3.9-4.8,5-9.7,1.4-6,0-10.9-.7-12.9-2.1,1.8-6.9,6.2-8.8,13.5-.8,3-.9,5.7-.7,7.7.1,1.3,1.1,2.3,2.3,2.5,1.1.2,2.2-.2,2.9-1.1h0Z"/>
          <path class="cls-2" d="M221,90.4c.2-6.8,5.6-11.8,12.4-13.8-.3,6.6-4.2,12.7-11.2,14.6-.4,0-.6,0-.8-.2-.3-.2-.4-.7-.4-.7h0Z"/>
          <path class="cls-2" d="M132,112.1c-6.5,3-13.9.2-18.9-5.3,6.4-2.8,14.1-2,19.2,3.8.2.4.2.6.2.8,0,.3-.4.7-.4.7h0Z"/>
          <path class="cls-2" d="M221.9,198.4c-.8-.4-2.1-.9-3.7-1.2-5.2-1-6.9,1.3-11.7.7-3.1-.4-5.4-1.7-6.8-2.8,3.6,10.2,8,20.2,13,29.8.6,1,.2,2.2-.7,2.7-1,.6-2.3.2-2.8-.9-6.6-12.7-12.1-26.1-16.4-39.8-1.8-5.8-3.4-11.7-4.8-17.7,0,0,0,0,0,0-3.7,5.3-4.5,10-5.6,13.2-1.1,3.4-3.6,8.1-9.2,13.1-.8-.9-6.5-7.5-4.9-16.4,1.4-7.7,7.6-14,15.8-15.9.8-.2,1.7-.2,2.6,0-.6-2.9-1.2-5.9-1.7-8.9l3.8-.7c1.5,8.9,3.5,17.7,6,26.4,3.4.4,9.4,1.5,15.7,5.6,6.6,4.4,9.9,9.9,11.4,12.6h0Z"/>
          <path class="cls-2" d="M156.9,135.1s0,0,.1,0c3.2-.5,5.8,2.5,4.9,5.6-.4,1.3-.9,2.6-1.4,4.1-2.9,7-7.1,11.2-8.1,12.2-6,5.9-12.7,8.1-16.2,9,0-3.1.6-11.3,6.4-19.4,5.1-7.1,11.5-10.3,14.4-11.5h0Z"/>
          <path class="cls-2" d="M199.3,128.4c.8,2.5,1.6,4.9,2.5,7.4,1.6,3.6,4.3,8.2,8.8,12.6,11.1,10.9,25,12,29.4,12.2-5.3-17.4-15.1-28.8-22.2-31.5-5.9-2.2-11.4-2-11.4-2-2.9.1-5.4.7-7.1,1.2h0Z"/>
          <path class="cls-2" d="M150.3,92.1c-2-.5-10.9-3.1-16.5-12.1-5.3-8.5-4.2-17-3.9-19.2,1.3,1.6,3.2,3.8,5.7,6.4,1.9,2,5.2,5.2,9.7,8.8,6.9,5.6,8.8,5.8,11.4,9.4,2.3,3.1,3.4,6.3,3.9,8.5-3.4-.6-6.8-1.3-10.3-1.9h0Z"/>
          <path class="cls-2" d="M194,77.5l-.4,1.2c-1.4,4.1-.5,8.6,2.5,12.2l2.6,3.1c4.3-5.3,9.4-12.8,13.4-22.5,3.7-9.1,5.2-17.2,5.8-23.5-4.8,3.4-10.9,8.6-16.2,16-3.6,4.9-6,9.6-7.6,13.6h0Z"/>
          <g>
            <path class="cls-2" d="M222.8,119.8c-4.6-1.4-8.8-3.7-12.2-5.7-1.1-.7-2.4-1.7-3.1-3.6l1.2-1.9h.4c1.9,0,3.2.8,4.2,1.5,1.9,1.5,4.4,3.6,6.7,6,1.2,1.2,2.2,2.3,3,3.5,0,0,0,.2,0,.2,0,0-.1,0-.2,0h0,0Z"/>
            <path class="cls-2" d="M208.8,108.7c1.8,0,3.1.6,4.3,1.5,2.3,1.9,4.6,3.8,6.7,5.9,1.1,1.1,2.1,2.2,3,3.4-4.4-1.3-8.3-3.4-12.2-5.7-1.3-.8-2.4-1.7-3-3.5l1.2-1.7h0Z"/>
            <path class="cls-2" d="M207.2,104.3l-2-.7c-.8-2.1-.3-3.6.1-4.8,1.4-3.3,2.6-5.8,3.9-8.1.8-1.5,1.6-2.7,2.5-3.9,0,0,.1,0,.2,0s0,0,0,0c0,0,.1,0,.1.2,0,4.7-1,9.2-2.1,13.4-.4,1.3-.9,2.8-2.6,3.9,0,0,0,0-.1,0s0,0,0,0h0Z"/>
            <path class="cls-2" d="M205.3,103.4c-.6-1.8-.3-3.2.3-4.6,1.1-2.8,2.4-5.5,3.8-8.1.7-1.3,1.5-2.6,2.5-3.8,0,4.5-1,8.9-2.1,13.3-.4,1.4-1,2.8-2.5,3.8l-2-.7h0Z"/>
            <path class="cls-2" d="M201.3,106.3c-2.7-.1-4.6-1.6-6.5-3.3l-.5-.5c-1.5-1.4-3.7-3.6-4.1-5.3,0,0,0-.1,0-.2,0,0,0,0,.1,0h0c4.5,1.1,10,2.8,12.3,7.3,0,0,0,.1,0,.2l-1.2,1.7c0,0-.1,0-.2,0h0Z"/>
            <path class="cls-2" d="M190.4,97.1c4.6,1.1,9.9,2.8,12.1,7.2l-1.2,1.7c-2.6-.1-4.5-1.6-6.3-3.2-1.4-1.3-4.2-3.8-4.6-5.7h0Z"/>
            <path class="cls-2" d="M199.5,125s0,0,0,0c0,0-.1,0-.1-.2-.2-4.6,0-10.4,3.6-13.8,0,0,0,0,.1,0s0,0,0,0c0,0,2,.7,2,.7.8,2.8-.1,5-1.2,7.2l-.3.6c-1,1.8-2.4,4.6-4,5.5,0,0,0,0-.1,0h0Z"/>
            <path class="cls-2" d="M199.5,124.8c-.2-4.7,0-10.3,3.5-13.7l2,.7c.6,2.6-.3,4.8-1.3,7-.9,1.7-2.5,5.1-4.2,6h0Z"/>
            <path class="cls-2" d="M211.1,108.2c-.7,0-1.4-.3-2.2-.9l-.7-2.1c.6-2.3,1.8-2.6,3-2.9.2,0,.5-.1.7-.2l1-.2c3.3-.7,6.8-1.5,10.2-1.5s1.4,0,2,0c0,0,.1,0,.2.1s0,.2,0,.2c-3.9,3-8,5-11.5,6.5-.2,0-.5.2-.7.3-.6.3-1.2.5-1.9.5h0Z"/>
            <path class="cls-2" d="M225.1,100.7c-3.6,2.8-7.4,4.7-11.5,6.5-1.4.5-2.5,1.6-4.6,0l-.7-2c.7-2.6,2.2-2.4,3.6-2.8,4.2-.9,8.8-2.1,13.1-1.6h0Z"/>
            <path class="cls-2" d="M205,110c-1.1,0-2.1-.7-2.4-1.8-.2-.7-.2-1.3.1-1.9.3-.6.8-1.1,1.5-1.3.3,0,.5-.1.8-.1,1.1,0,2.1.7,2.4,1.8.2.7.2,1.3-.1,2-.3.6-.8,1.1-1.5,1.3-.3,0-.5.1-.8.1h0Z"/>
            <circle class="cls-2" cx="205" cy="107.4" r="2.4"/>
            <path class="cls-2" d="M191.8,114.5c-1.7,0-3.4-.3-5.1-.8,0,0-.1,0-.1-.1s0-.1,0-.2c2.8-4,7.1-6.5,11.3-6.5s2.2.2,3.2.5l.8,2.1c-2.3,3.3-5.9,5-10.2,5h0Z"/>
            <path class="cls-2" d="M201.8,109.6c-3.4,4.7-9.7,5.7-15,3.9,3.2-4.6,8.8-7.6,14.4-5.9l.7,2h0Z"/>
          </g>
          <g>
            <path class="cls-2" d="M166.7,144.7c0,0-.1,0-.1,0,0,0,0-.1,0-.2,2.3-4.2,5.4-7.8,8.1-10.9.9-1,2.1-2,4.1-2.3l1.6,1.6c-.3,2.2-1.4,3.3-2.4,4.2-1.9,1.6-4.4,3.6-7.2,5.4-1.4.9-2.7,1.6-4,2.3,0,0,0,0,0,0h0Z"/>
            <path class="cls-2" d="M180.2,133c-.3,1.8-1.2,3-2.4,3.9-2.3,1.9-4.6,3.7-7.2,5.3-1.3.8-2.6,1.6-4,2.3,2.2-4,5-7.5,8-10.8,1-1.1,2.2-2,4-2.2l1.5,1.5h0Z"/>
            <path class="cls-2" d="M200.9,140.5c-4.6-1-9-2.9-12.7-4.7-1.2-.6-2.5-1.5-3.3-3.3l1.1-2c.4-.1.7-.1.9-.1,1.6,0,2.9.7,3.8,1.3,2,1.4,4.7,3.2,7.1,5.4,1.3,1.1,2.3,2.1,3.3,3.2,0,0,0,.2,0,.2,0,0-.1.1-.2.1h0Z"/>
            <path class="cls-2" d="M186.1,130.5c1.8-.2,3.2.4,4.4,1.2,2.5,1.7,4.9,3.4,7.1,5.4,1.1,1,2.2,2,3.3,3.2-4.4-1-8.6-2.7-12.6-4.7-1.3-.7-2.5-1.5-3.2-3.2l1.1-1.8h0Z"/>
            <path class="cls-2" d="M185.8,127.9c0,0-.1,0-.1,0l-1.5-1.5c.6-2.8,2.5-4.4,4.4-5.9l.6-.4c1.7-1.2,4.3-2.9,6.1-3h0c0,0,.1,0,.2,0,0,0,0,.1,0,.2-1.9,4.2-4.8,9.2-9.6,10.6h0,0Z"/>
            <path class="cls-2" d="M195.2,117.2c-2,4.3-4.8,9.1-9.5,10.4l-1.5-1.5c.7-2.6,2.4-4.1,4.4-5.6,1.6-1.1,4.6-3.3,6.5-3.4h0Z"/>
            <path class="cls-2" d="M177.6,128.8c-2.6,0-4.5-1.3-6.4-2.7l-.6-.5c-1.6-1.3-4-3.3-4.6-5,0,0,0-.1,0-.2,0,0,0,0,.1,0h0c4.6.7,10.2,2,12.8,6.3,0,0,0,.1,0,.2l-1.1,1.8h-.4c0,.1,0,.1,0,.1Z"/>
            <path class="cls-2" d="M166.3,120.6c4.7.7,10.1,2,12.7,6.2l-1.1,1.8c-2.6,0-4.6-1.2-6.6-2.7-1.4-1.2-4.5-3.5-5.1-5.3h0Z"/>
            <path class="cls-2" d="M184.8,150.7c0,0-.1,0-.2-.1-2.2-4.4-3.3-8.9-4.1-12.6,0-.3-.1-.5-.1-.8-.3-1.2-.6-2.4,1.2-3.9l2.2-.3c2.2,1,2.2,2.3,2.2,3.5,0,.2,0,.5,0,.8v1c0,4.1.2,8.4-1,12.2,0,0,0,.1-.2.1h0Z"/>
            <path class="cls-2" d="M184.8,150.5c-2-4.1-3.1-8.2-4.1-12.6-.2-1.4-1.1-2.8,1-4.5l2.1-.3c2.4,1.2,1.9,2.7,2,4.1,0,4.4.3,9-1,13.2h0Z"/>
            <path class="cls-2" d="M182.2,132c-1.3,0-2.4-1-2.5-2.2-.2-1.4.8-2.7,2.2-2.8.1,0,.2,0,.3,0,1.3,0,2.4,1,2.5,2.2,0,.7-.1,1.4-.5,1.9-.4.5-1,.9-1.7,1-.1,0-.2,0-.3,0h0Z"/>
            <circle class="cls-2" cx="182.2" cy="129.5" r="2.4"/>
            <path class="cls-2" d="M180.7,126.1c0,0-.1,0-.1,0-4.2-4.6-3.4-11.2-.9-15.7,0,0,0,0,.1,0h0c0,0,.1,0,.1,0,3.6,3.8,5.9,10,3,15.5,0,0-2.2.4-2.3.4h0Z"/>
            <path class="cls-2" d="M180.7,125.9c-3.9-4.3-3.6-10.7-.8-15.5,3.9,4.1,5.7,10.1,2.9,15.2l-2.1.3h0Z"/>
          </g>
          <g>
            <path class="cls-2" d="M158.5,100c0,0-.1,0-.2-.1,0,0,0-.2,0-.2,3.1-2.5,6.6-4.4,9.6-5.9,1-.4,1.8-.7,2.6-.7s.9,0,1.4.2l.8,1.7c-.9,1.6-2.1,2.2-3.2,2.5-1.9.6-4.5,1.4-7.2,1.9-1.4.3-2.6.4-3.8.5h0Z"/>
            <path class="cls-2" d="M172.5,95.1c-.8,1.3-1.9,1.9-3.1,2.3-2.4.8-4.7,1.4-7.2,1.9-1.2.2-2.5.4-3.8.5,2.9-2.4,6.2-4.2,9.6-5.8,1.1-.5,2.3-.8,3.8-.4l.6,1.6h0Z"/>
            <path class="cls-2" d="M186.2,107.5s0,0-.1,0c-3.3-2.2-6-5.1-8.3-7.6-.7-.8-1.5-1.9-1.5-3.6l1.5-1.2c1.8.4,2.7,1.4,3.3,2.3,1.7,2.5,2.9,4.5,3.8,6.4.6,1.2,1.1,2.4,1.5,3.5,0,0,0,.2,0,.2,0,0,0,0-.1,0h0Z"/>
            <path class="cls-2" d="M177.8,95.1c1.5.4,2.4,1.3,3.1,2.3,1.4,2.1,2.7,4.2,3.8,6.4.6,1.1,1.1,2.3,1.5,3.5-3.1-2.1-5.8-4.8-8.3-7.6-.8-.9-1.5-2-1.5-3.5l1.4-1.1h0Z"/>
            <path class="cls-2" d="M179.3,93c-.3,0-.6,0-.9,0h0c-.1,0-.1,0-.8-1.8,1.4-2,3.3-2.6,5.3-3.2h.6c1.2-.4,2.8-.8,4.2-.8s1.1,0,1.4.2c0,0,.1,0,.1.1,0,0,0,.1,0,.2-2.6,2.4-6,5.2-9.8,5.2h0Z"/>
            <path class="cls-2" d="M189,87.7c-2.9,2.7-6.5,5.6-10.6,5.1l-.6-1.6c1.3-1.8,3.2-2.4,5.1-2.9,1.5-.3,4.6-1.1,6.1-.6h0Z"/>
            <path class="cls-2" d="M172,91.3c-2.1-.8-3.3-2.4-4.3-4.2l-.3-.5c-.8-1.5-2.1-3.8-2-5.3,0,0,0-.1.1-.2,0,0,0,0,0,0s0,0,.1,0c3.3,2,7.2,4.8,7.9,8.9,0,0,0,.1,0,.2l-1.4,1.1s0,0-.1,0,0,0,0,0h0Z"/>
            <path class="cls-2" d="M165.6,81.3c3.4,2,7.2,4.7,7.9,8.7l-1.4,1.1c-2.1-.8-3.2-2.4-4.2-4.1-.7-1.4-2.4-4.1-2.2-5.7h0Z"/>
            <path class="cls-2" d="M170.4,110.3c0,0-.1,0-.1-.2-.3-4.1.2-7.9.8-11,0-.2,0-.4.1-.6.1-1,.3-2.1,2.2-2.7l1.8.4c1.4,1.5,1,2.5.6,3.4,0,.2-.1.4-.2.6l-.3.8c-1.2,3.2-2.5,6.5-4.6,9.1,0,0,0,0-.1,0h0,0Z"/>
            <path class="cls-2" d="M170.5,110.1c-.3-3.8.1-7.3.8-11,.3-1.2,0-2.5,2.1-3.2l1.7.5c1.5,1.6.6,2.7.3,3.8-1.3,3.4-2.6,7.1-4.9,9.8h0Z"/>
            <path class="cls-2" d="M175.1,95.3c-.2,0-.4,0-.6,0-.6-.2-1-.5-1.3-1s-.4-1.1-.2-1.6c.2-.9,1.1-1.6,2.1-1.6s.4,0,.6,0c1.1.3,1.8,1.5,1.5,2.7-.2.9-1.1,1.6-2.1,1.6h0Z"/>
            <circle class="cls-2" cx="175.1" cy="93.1" r="2"/>
            <path class="cls-2" d="M176.8,90.5l-1.7-.5c-1.9-5,.7-9.9,4.1-12.6,0,0,0,0,.1,0h0c0,0,.1,0,.1.1,1.6,4,1.4,9.6-2.6,12.9,0,0,0,0-.1,0h0Z"/>
            <path class="cls-2" d="M175.1,89.9c-1.7-4.5.6-9.3,4.2-12.2,1.7,4.3,1.2,9.6-2.5,12.7l-1.7-.5h0Z"/>
          </g>
          <g>
            <path class="cls-2" d="M127.8,127.5c0,0-.2,0-.2-.1s0-.2,0-.2c3.7-3.3,8-5.8,11.7-7.8,1.3-.7,2.3-.9,3.4-.9s.9,0,1.4.2l1,2.1c-1,2-2.5,2.8-3.8,3.3-2.4.9-5.5,2-8.9,2.8-1.7.4-3.2.7-4.7.8h0,0Z"/>
            <path class="cls-2" d="M145.1,120.7c-.9,1.7-2.3,2.5-3.7,3-2.9,1.1-5.8,2.1-8.9,2.7-1.5.4-3.1.7-4.7.8,3.5-3.2,7.5-5.6,11.6-7.8,1.4-.7,2.8-1.2,4.7-.8l.9,2h0Z"/>
            <path class="cls-2" d="M165.6,135.7s0,0-.1,0c-4.2-2.6-7.8-6-10.8-9-1-1-2-2.3-2.1-4.4l1.7-1.6c2.2.4,3.4,1.6,4.2,2.7,1.5,2,3.5,4.8,5.1,7.8.9,1.5,1.6,2.9,2.1,4.3,0,0,0,.2,0,.2,0,0,0,0-.1,0h0Z"/>
            <path class="cls-2" d="M154.4,120.8c1.9.4,3,1.5,3.9,2.7,1.8,2.5,3.6,5,5.1,7.8.8,1.4,1.5,2.8,2.1,4.3-4-2.5-7.5-5.7-10.8-9-1.1-1.1-1.9-2.4-2.1-4.3l1.7-1.4h0Z"/>
            <path class="cls-2" d="M153.8,118.1c-.2,0-.5,0-.7,0,0,0-.4-.7-1.1-2.1,1.6-2.5,3.9-3.4,6.4-4.2l.7-.2c1.6-.4,3.8-1,5.5-1s1,0,1.4.2c0,0,.1,0,.1.1s0,.1,0,.2c-3.2,3.3-7.5,7-12.4,7h0Z"/>
            <path class="cls-2" d="M166.1,110.9c-3.4,3.5-7.9,7.3-12.9,6.9l-.9-2c1.5-2.3,3.8-3.2,6.3-3.9,1.9-.5,5.7-1.7,7.6-1h0Z"/>
            <path class="cls-2" d="M145.1,116.2c-2.7-.8-4.2-2.8-5.6-5l-.4-.6c-1.1-1.8-2.8-4.6-2.8-6.5,0,0,0-.1.1-.2,0,0,0,0,.1,0s0,0,0,0c4.3,2.3,9.3,5.5,10.4,10.6,0,0,0,.2,0,.2,0,0-1.7,1.4-1.7,1.4,0,0,0,0-.1,0h0,0Z"/>
            <path class="cls-2" d="M136.5,104.1c4.3,2.3,9.2,5.5,10.3,10.5l-1.7,1.4c-2.6-.8-4.1-2.8-5.5-4.9-1-1.7-3.2-5-3.1-7h0Z"/>
            <path class="cls-2" d="M144.1,140.1c0,0-.1,0-.1-.2-.6-5.1-.1-9.9.4-13.8,0-.3,0-.5.1-.8.1-1.3.3-2.6,2.5-3.4l2.2.5c1.8,1.8,1.3,3,.9,4.2,0,.2-.2.5-.2.8l-.3,1c-1.4,4.1-2.8,8.3-5.3,11.6,0,0-.1,0-.2,0h0,0Z"/>
            <path class="cls-2" d="M144.2,139.9c-.6-4.7-.2-9.2.4-13.7.3-1.5,0-3.1,2.5-4.1l2.1.5c1.9,2,.9,3.3.6,4.7-1.4,4.3-2.9,9-5.6,12.6h0Z"/>
            <path class="cls-2" d="M149.1,121.1c-.2,0-.4,0-.6,0-1.4-.3-2.3-1.7-2-3.2.3-1.2,1.4-2.1,2.6-2.1s.4,0,.6,0c1.4.3,2.3,1.7,2,3.2-.3,1.2-1.4,2.1-2.6,2.1h0Z"/>
            <circle class="cls-2" cx="149.1" cy="118.4" r="2.5"/>
            <path class="cls-2" d="M148.8,114.6c-2.6-6.1.4-12.3,4.5-15.8,0,0,0,0,.1,0h0c0,0,.1,0,.1.1,2.2,4.9,2.3,11.9-2.5,16.2,0,0,0,0-.1,0s-2.2-.5-2.2-.5h0Z"/>
            <path class="cls-2" d="M148.8,114.4c-2.3-5.6.2-11.7,4.6-15.5,2.4,5.3,2,11.9-2.4,16l-2.1-.5h0Z"/>
          </g>
        </g>
      </g>
    </g>
  </g>
</svg>