<?xml version="1.0" encoding="UTF-8"?>
<svg xmlns="http://www.w3.org/2000/svg" version="1.1" viewBox="0 0 353 276">
  <defs>
    <style>
      .cls-1 {
        fill: #a98973;
      }

      .cls-2 {
        fill: #f3f3f3;
      }
    </style>
  </defs>
  <!-- Generator: Adobe Illustrator 28.7.9, SVG Export Plug-In . SVG Version: 1.2.0 Build 218)  -->
  <g>
    <g id="Capa_1">
      <g id="Capa_3">
        <rect class="cls-1" x="-20.3" y="-20.6" width="393.7" height="317.2"/>
      </g>
      <g id="Capa_2">
        <g>
          <path class="cls-2" d="M130.9,171.1c1.5-.4,4-.9,7.1-.5,3.7.5,6.3,2.1,7.6,3,1.5-1,3.4-2.3,5.7-3.8,5.1-3.3,6.6-4.1,8.6-6.2,1.2-1.3,2.6-3.1,3.6-5.5-.8-1.4-7.6-12.7-21.5-14.7-12-1.7-20.7,4.6-22.3,5.9-1.2,4.1-.6,6.8.1,8.5,1.3,3,3.6,3.9,7.7,8.8,1.6,1.9,2.7,3.5,3.4,4.5h0Z"/>
          <path class="cls-2" d="M191.9,171.3c-.5,0-.9-.2-1.3-.6s-.5-.7-.6-1.1h-.1c-1.6-1-3.3-2.1-5.4-2.8-3.6-1.1-8.3-2.2-12.9-3.1-.3,0-.5-.3-.4-.6l.2-1.2v-1.1c-.1-.3,0-.5.4-.6.2,0,3.9-.8,10.6-9,1.5-7.4-3.1-28.1-3.6-30.4,0,0,0-.2,0-.2,0-.8.6-1.5,1.5-1.7.1,0,.2,0,.4,0,.6,0,1.3.4,1.6.9.8,3.2,1.4,6.5,2.2,10.6.8,4.5,1.7,10.7,1.9,15.7,1.2-1.7,2.4-3.5,3.5-5.4,11.8-19.2,13.4-42.9,13.4-43.1.1-1,.9-1.7,1.8-1.7s.2,0,.3,0c.8.2,1.4.9,1.4,1.8s0,.2,0,.2c-.2,2.5-2.2,24-12.6,42.4,3.2-.8,7.1-1.2,11.6-1.2s7.9.4,7.9.4c.7.2,1.2.6,1.5,1.2.2.5.2,1,0,1.4-.3.6-.9,1-1.7,1s-.2,0-.3,0c-2-.2-4.3-.4-7.1-.4h-1.3c-5.9,0-10.6.9-13.7,2.4-5.9,9.2-10.5,13.8-13.6,16,10.5,2.2,16,4.8,16.3,7.7.1.5,0,1.1-.3,1.5-.3.4-.7.7-1.1.8,0,0-.2,0-.2,0h0Z"/>
          <path class="cls-2" d="M213.2,140.3c1,.2,1.4,1.2,1.1,1.8-.2.4-.8.7-1.4.6-2.4-.3-5.3-.4-8.4-.4-4.6,0-10.2.6-14,2.5-6.5,10.1-11.4,14.7-14.6,16.8,6.9,1.4,16.8,4,17.2,7.5.2.8-.4,1.6-1,1.7-.7.1-1.4-.5-1.4-1.4-1.7-1-3.6-2.2-5.9-3-3.5-1.1-8.1-2.2-13-3.1l.2-1.2v-1.2c.3,0,4.2-1,10.9-9.3,1.7-7.8-3.6-30.6-3.6-30.8,0-.6.4-1.1,1-1.2.5,0,1.1.2,1.3.6.8,3.3,1.5,6.8,2.1,10.4,1,5.6,1.9,12.3,1.9,17.3,1.4-2,2.9-4.2,4.5-6.8,11.8-19.3,13.4-43.1,13.4-43.4.1-.8.8-1.2,1.5-1.1.5.1,1,.6,1,1.3,0,0,0,.1,0,.2-.2,2.2-2.1,24.6-13.2,43.3,8.4-2.5,20.1-1.2,20.6-1.1h0Z"/>
          <polygon class="cls-2" points="171.9 162 171.8 160.8 171.8 160.8 171.9 162"/>
          <path class="cls-2" d="M147.9,188.2c.4-.6,1.8-2.4,1.7-5.2,0-2.6-1.3-4.5-1.7-5,.7-.6,1.3-1.3,1.9-1.9.8-.9,1.4-1.4,1.4-1.5.7-.8,10.8-10.8,16.5-9.7,8.9,1.7,12.8,32.4,5.9,35.6-4.2,2-14.5-5.3-16.6-7-.6-.4-2.5-2-9.1-5.3h0Z"/>
          <path class="cls-2" d="M144.9,191.9c2.4.6,5.7,1.7,9.2,3.9,5.5,3.5,8.6,8,10.1,10.6,0,2-.5,7.9-5.1,13.2-6.9,7.9-20.2,3.4-21.3,3.3-1.9-2-4-4.9-5.7-12.9-1.5-7.3.9-11.7,1.8-14.4,1.4,0,3.4-.2,5.8-.9,2.4-.8,4.1-1.9,5.2-2.7h0Z"/>
          <path class="cls-2" d="M120.1,179.6c-1.7.9-5.7,2.8-11,2.5-5.8-.3-9.8-2.9-11.4-4-.7-1.5-2.6-6.1-1.2-11.6,2.1-8.4,9.9-11.7,10.8-12,2.2.8,7.4,2.9,11.6,8.2,3.8,4.8,4.9,9.8,5.2,12.1-1.3,1.6-2.7,3.2-4,4.9h0Z"/>
          <path class="cls-2" d="M120.4,185.3c.5,1.2,1.3,2.7,2.4,4.3,1.9,2.7,4.1,4.5,5.7,5.5.5,1.4,1.8,5.8-.2,10.8-3,7.8-11.3,9.7-12,9.8-9-.5-16.7-6-19.3-13.8-2.7-7.8.9-14.8,1.6-16.1,2.1-.7,4.5-1.3,7.3-1.6,6-.7,11.1.2,14.5,1.1h0Z"/>
          <ellipse class="cls-2" cx="134.7" cy="182.8" rx="10.6" ry="8.1"/>
          <path class="cls-2" d="M235.5,154c-1.7-.3-3.7-.9-5.6-.9-6.9-.4-11.2-1.8-12.1-7.6-.9-5.9,2.7-10.7,8.9-12.9,1.5-.5,3.2-2.1,4.6-2.7,3.7-1.7,5.4-3,9.6-3.6,7.7-1.2,14.8,4.1,16,11.8,1.1,7.6-3.6,14.8-11.2,15.9-3.7.6-6.3.5-10.1,0h0Z"/>
          <path class="cls-2" d="M224.5,116.9c-1.1.2-2.5.1-3.6.4-4.4,1-7.3,1-9-2.5-1.6-3.5-.2-7.2,3.2-9.6.8-.6,1.6-1.9,2.4-2.5,2-1.7,2.9-2.8,5.3-4,4.6-2.1,10-.1,12.1,4.4,2.1,4.6.4,9.9-4.1,12-2.2,1-3.8,1.5-6.3,1.8Z"/>
          <path class="cls-2" d="M199.9,187.3c-.8-.9-1.6-2-2.6-2.8-3.6-3-5.4-5.6-3.4-9.1,1.9-3.6,5.9-4.6,10.1-3.3,1,.3,2.6.2,3.6.4,2.7.6,4.2.6,6.6,2,4.6,2.5,6.3,8.3,3.8,12.9-2.5,4.6-8,6.5-12.6,4-2.2-1.2-3.6-2.3-5.4-4.1h0Z"/>
          <path class="cls-2" d="M177.1,142.5c0,.9-.2,2-.1,3,.3,3.6-.1,6-3.1,6.9-3,.9-5.8-.7-7.4-3.7-.4-.7-1.3-1.5-1.7-2.2-1.1-1.8-1.9-2.6-2.6-4.8-1.2-3.9,1.1-8.1,5-9.2,3.9-1.1,8,.8,9.2,4.8.6,1.9.7,3.3.7,5.3h0Z"/>
          <path class="cls-2" d="M185.1,101.2c-.4,1.7-1.1,3.6-1.4,5.5-.9,6.8-2.6,11.1-8.5,11.6-6,.5-10.4-3.5-12.2-9.8-.4-1.5-1.8-3.4-2.3-4.8-1.4-3.8-2.6-5.7-2.9-9.8-.6-7.7,5.2-14.4,12.9-15.1,7.7-.6,14.5,4.7,15.1,12.4.3,3.8,0,6.3-.8,10h0Z"/>
          <path class="cls-2" d="M213.2,74.2c-.4,1.7-1.1,3.6-1.4,5.5-.9,6.8-2.6,11.1-8.5,11.6-6,.5-10.4-3.5-12.2-9.8-.4-1.5-1.8-3.4-2.3-4.8-1.4-3.8-2.6-5.7-2.9-9.8-.6-7.7,5.2-14.4,12.9-15,7.7-.6,14.5,4.7,15.1,12.4.3,3.8,0,6.3-.8,10h0Z"/>
        </g>
      </g>
    </g>
  </g>
</svg>