<?xml version="1.0" encoding="UTF-8"?>
<svg xmlns="http://www.w3.org/2000/svg" version="1.1" viewBox="0 0 353 276">
  <defs>
    <style>
      .cls-1 {
        fill: #a98973;
      }

      .cls-2 {
        fill: #f3f3f3;
      }
    </style>
  </defs>
  <!-- Generator: Adobe Illustrator 28.7.9, SVG Export Plug-In . SVG Version: 1.2.0 Build 218)  -->
  <g>
    <g id="Capa_1">
      <g id="Capa_3">
        <rect class="cls-1" x="-20.3" y="-28.4" width="393.7" height="317.2"/>
      </g>
      <g id="Capa_2">
        <g>
          <path class="cls-2" d="M149.9,218.9c-.1,0-.2,0-.3-.1l-2.5-2.2c-.1,0-.2-.2-.2-.3,0-.1,0-.3.1-.4,5.2-6,9.9-12.6,13.9-19.6-3.6-1.9-8.4-5.4-11.8-11.3-2.5-4.3-3.9-9.2-4.1-14.2,0-.6.2-1.2.6-1.7.4-.4,1-.7,1.6-.7,1.2,0,2.2,1.1,2.2,2.2.1,4.3,1.4,8.5,3.5,12.2,3,5,7.1,8,10.1,9.7,1.1-2.1,2.2-4.4,3.2-6.7,5.9-13.2,9.3-27.3,10.2-41.8,0-1.1.8-2,1.8-2.2,0,0,.2,0,.3,0,1.1,0,2.2,1,2.2,2.4-.3,5.7-1.1,11.5-2.2,17.1-1.1,5.3-2.5,10.5-4.2,15.6,5.4-2.1,10.6-5.2,14.9-9.1,4.9-4.4,9-10,11.7-16.2.4-1,1.3-1.8,2.1-1.8s.2,0,.2,0c.5,0,1,.4,1.4.9.5.7.6,1.6.3,2.5-2.9,6.7-7.4,12.8-12.8,17.7-5.6,5.1-12.4,8.9-19.7,11.1-.7,1.8-1.5,3.6-2.2,5.4-5,11.3-11.7,21.8-19.9,31.2-.1.1-.2.2-.4.2h0Z"/>
          <path class="cls-2" d="M204.3,153.2c-2.9,6.6-7.3,12.7-12.6,17.5-5.6,5.1-12.4,8.9-19.8,11.1-.7,1.9-1.5,3.7-2.3,5.6-5,11.3-11.7,21.7-19.8,31.1l-2.5-2.2c5.4-6.2,10.1-12.9,14.2-20.1-3.5-1.8-8.5-5.3-12.1-11.3-2.5-4.2-3.9-9.1-4.1-14,0-1,.8-1.9,1.7-1.9.9,0,1.6.8,1.6,1.7,0,2.4.6,7.3,3.6,12.4,3.2,5.4,7.6,8.5,10.8,10.1,1.2-2.3,2.4-4.7,3.5-7.2,5.9-13.3,9.4-27.4,10.2-42,0-.9.7-1.6,1.4-1.7.9-.1,1.9.7,1.9,1.9-.3,5-.9,10.8-2.2,17.1-1.1,5.6-2.6,11.1-4.5,16.5,5.9-2.1,11.4-5.4,16-9.5,5-4.5,9.1-10.1,11.8-16.3.4-.9,1.2-1.5,1.8-1.5.8.1,1.7,1.3,1.2,2.8h0Z"/>
          <path class="cls-2" d="M192.4,118.6c1.2,9.4-5.5,18-15,19.2-9.5,1.3-18.2-5.3-19.5-14.7s3.8-38.4,13.3-39.7c9.5-1.3,19.9,25.8,21.2,35.1h0Z"/>
          <path class="cls-2" d="M222.6,90.4c-1.9,7.5-9.6,12.1-17.2,10.2-7.6-1.9-12.3-9.5-10.5-17,1.9-7.5,14.4-28.2,22.1-26.3,7.6,1.9,7.5,25.6,5.6,33.1Z"/>
          <path class="cls-2" d="M154.4,122.1s-1.1-10.5,2.1-21.2c1.9-6.3,4.9-12.1,8.9-17.9.5-.7,1.4-2.6.9-3.2-.8-.9-10.1,9.7-12.9,19-3.2,10.6-2.1,18-2.1,18,0,0,2.1,5.6,3.1,5.2h0Z"/>
          <path class="cls-2" d="M195.5,117.5s-.6-9.8-5.9-19.3c-3.2-5.8-7-11-12-16-.6-.6-1.9-2.3-1.4-3,.6-1,11.4,7.8,15.8,16.5,5,9.9,5.5,14.8,5.5,14.8,0,0-.9,7.2-1.9,7h0Z"/>
          <path class="cls-2" d="M219.7,100.5c1.1-1.2,3.2-3.4,4.9-6.7,8.2-16-2.9-35.4-1.2-36,1.2-.5,6.5,10,8.7,22.1.7,4,.7,12.4-7.8,18.6-2,1.4-4.2,2.5-4.6,2.1h0Z"/>
          <path class="cls-2" d="M208.6,135.6c-4.6-8.2-1.5-18.7,6.9-23.4,8.4-4.7,18.9-1.8,23.5,6.5s10.6,37.1,2.2,41.8c-8.4,4.7-28-16.6-32.6-24.9h0Z"/>
          <path class="cls-2" d="M242.4,118.2s4.9,9.4,5.8,20.4c.6,6.6-.1,13.1-1.8,19.9-.2.8-.4,2.9.3,3.3,1.1.5,5.9-12.7,5.1-22.4-.9-11-4.7-17.5-4.7-17.5,0,0-4-4.4-4.8-3.8h0Z"/>
          <path class="cls-2" d="M205.4,137.3s4.2,8.9,12.6,15.8c5.1,4.2,10.5,7.7,17,10.5.8.3,2.6,1.4,2.4,2.2-.2,1.2-13.5-3.1-20.8-9.5-8.2-7.3-10.5-11.8-10.5-11.8,0,0-1.8-7-.8-7.2h0Z"/>
          <path class="cls-2" d="M107.3,141.8c-1.1-1.1-1.1-2.8,0-3.9,2.7-3,7.3-7.1,14.1-9.9,7.1-3,13.5-3.3,17.7-3,1.6,0,2.8,1.5,2.6,3.1-.3,3-1.1,6.8-2.7,10.9-1.9,4.7-4.3,8.3-6.3,10.7-.7.8-1.7,1.2-2.8,1.3-3.4,0-8.8-.4-14.6-3.4-3.5-1.8-6.1-4-7.9-5.8h0Z"/>
          <path class="cls-2" d="M142.8,167.8c-.3,1.4-9.9,2.5-18.3.4-7.2-1.8-12-5.6-14.3-7.6-1.3-1.1-3.6-3.3-5-6.8-2.1-4.9-1.6-10.8-1.1-11,1.2-.6,5.3,5.5,10.6,8.4,5,2.7,11.2,3.6,14.5,4,.8.1,1.6.5,2.2,1.1,3.8,3.9,11.6,10.8,11.4,11.6h0Z"/>
          <path class="cls-2" d="M145.6,166.5l-9.8-10.9c-1.2-1.3-1.2-3.4,0-4.7,2.1-2.3,4-5.2,5.3-8.7,1.8-5,2.6-12.8,3.1-13.4.7-.9,5.3,5.8,8.3,9.4.5.6.8,1.3.9,2,.3,4.3.6,11.8-2.8,18.8-1.5,3.1-3.3,5.6-5,7.5h0Z"/>
          <path class="cls-2" d="M111.8,63.9c4.3,7.8,8.6,16.8,12.5,27,3.3,8.6,5.8,16.7,7.7,24.1-12.9.3-24.3-5.1-28.9-14.4-3.7-7.4-2-14.8-.2-22.3,1-4.4,2.8-11.9,8.4-14.2.2,0,.4-.1.5-.2h0Z"/>
          <path class="cls-2" d="M143.7,78.2c6.9,11.7,2.4,29.7-6.9,34.8-.4.2-.9.5-1.4.6-1.4-7.3-3.6-15.6-7.1-24.6-4.1-10.7-8.9-19.5-13.5-26.6,3.2.4,7.7,1.3,12.7,3.5,4.6,2,12,5.2,16.2,12.3h0Z"/>
        </g>
      </g>
    </g>
  </g>
</svg>