<?xml version="1.0" encoding="UTF-8"?>
<svg xmlns="http://www.w3.org/2000/svg" viewBox="0 0 353 276">
  <defs>
    <style>
      .cls-1 {
        fill: #a98973;
      }

      .cls-2 {
        fill: #f3f3f3;
      }
    </style>
  </defs>
  <g id="Capa_3" data-name="Capa 3">
    <rect class="cls-1" x="-20.33" y="-28.43" width="393.65" height="317.22"/>
  </g>
  <g id="Capa_2" data-name="Capa 2">
    <g>
      <path class="cls-2" d="M149.85,218.88c-.12,0-.23-.04-.33-.12l-2.53-2.19c-.1-.09-.16-.21-.17-.34,0-.13.03-.26.12-.37,5.24-6.01,9.9-12.59,13.87-19.56-3.57-1.93-8.36-5.42-11.82-11.29-2.52-4.3-3.95-9.22-4.12-14.24-.04-.61.19-1.23.61-1.68.41-.44.98-.69,1.56-.69,1.22.05,2.16,1.05,2.16,2.24.15,4.29,1.37,8.5,3.53,12.16,2.96,5.02,7.07,8.01,10.15,9.66,1.12-2.12,2.2-4.36,3.23-6.69,5.88-13.22,9.31-27.28,10.19-41.8.08-1.11.84-2.02,1.82-2.16.09-.01.18-.02.27-.02,1.08,0,2.23.97,2.24,2.41-.34,5.74-1.08,11.5-2.22,17.15-1.05,5.26-2.46,10.49-4.18,15.55,5.45-2.07,10.57-5.19,14.87-9.07,4.94-4.45,8.99-10.04,11.69-16.17.39-1.03,1.28-1.77,2.15-1.77.02,0,.16,0,.18.01.51.06,1,.4,1.35.92.47.71.58,1.62.33,2.51-2.95,6.73-7.36,12.84-12.77,17.73-5.6,5.05-12.41,8.89-19.71,11.11-.71,1.82-1.46,3.62-2.23,5.35-5.01,11.3-11.7,21.79-19.87,31.17-.1.11-.24.17-.38.17Z"/>
      <path class="cls-2" d="M204.33,153.21c-2.91,6.62-7.28,12.66-12.63,17.5-5.62,5.07-12.43,8.88-19.76,11.07-.72,1.86-1.49,3.71-2.31,5.55-5,11.27-11.66,21.71-19.79,31.05l-2.53-2.19c5.42-6.22,10.15-12.95,14.18-20.09-3.53-1.84-8.51-5.3-12.08-11.34-2.48-4.22-3.88-9.05-4.05-14-.06-1.04.79-1.89,1.73-1.85.85.03,1.6.79,1.6,1.74.08,2.41.57,7.28,3.6,12.41,3.18,5.39,7.64,8.46,10.79,10.09,1.25-2.34,2.41-4.73,3.48-7.16,5.9-13.26,9.35-27.38,10.24-41.97.06-.89.68-1.59,1.39-1.7.9-.14,1.93.69,1.94,1.9-.3,5.02-.95,10.77-2.21,17.05-1.12,5.6-2.62,11.1-4.5,16.49,5.9-2.09,11.39-5.35,16.02-9.53,5-4.5,9.08-10.15,11.81-16.34.36-.95,1.16-1.54,1.81-1.46.83.1,1.68,1.33,1.25,2.8Z"/>
      <path class="cls-2" d="M192.35,118.63c1.24,9.36-5.47,17.97-15,19.23-9.52,1.26-18.25-5.3-19.49-14.66-1.24-9.36,3.8-38.43,13.32-39.69,9.52-1.26,19.92,25.77,21.16,35.12Z"/>
      <path class="cls-2" d="M222.6,90.38c-1.86,7.51-9.57,12.06-17.21,10.16-7.64-1.9-12.32-9.52-10.46-17.03,1.86-7.51,14.43-28.17,22.07-26.27,7.64,1.9,7.46,25.63,5.6,33.14Z"/>
      <path class="cls-2" d="M154.42,122.1s-1.08-10.49,2.08-21.16c1.87-6.3,4.92-12.09,8.95-17.9.47-.68,1.41-2.58.9-3.16-.78-.89-10.15,9.67-12.93,18.98-3.16,10.58-2.07,18-2.07,18,0,0,2.07,5.61,3.06,5.24Z"/>
      <path class="cls-2" d="M195.51,117.46s-.65-9.8-5.93-19.33c-3.19-5.75-6.97-11.03-11.96-16.05-.58-.58-1.85-2.29-1.45-2.96.61-1.01,11.42,7.79,15.8,16.47,4.97,9.86,5.47,14.85,5.47,14.85,0,0-.89,7.19-1.93,7.01Z"/>
      <path class="cls-2" d="M219.67,100.51c1.15-1.16,3.21-3.43,4.9-6.74,8.19-16.01-2.88-35.4-1.24-36.04,1.21-.47,6.49,10.01,8.66,22.07.72,4.02.66,12.45-7.78,18.58-1.99,1.45-4.18,2.46-4.55,2.12Z"/>
      <path class="cls-2" d="M208.59,135.64c-4.59-8.25-1.51-18.72,6.89-23.39,8.39-4.67,18.92-1.77,23.51,6.48,4.59,8.25,10.59,37.14,2.19,41.81-8.39,4.67-28-16.65-32.59-24.89Z"/>
      <path class="cls-2" d="M242.44,118.16s4.86,9.36,5.84,20.44c.58,6.55-.13,13.05-1.75,19.94-.19.8-.37,2.92.32,3.28,1.05.54,5.88-12.72,5.05-22.41-.95-11-4.69-17.5-4.69-17.5,0,0-3.98-4.45-4.78-3.75Z"/>
      <path class="cls-2" d="M205.37,137.26s4.21,8.88,12.62,15.8c5.08,4.18,10.53,7.7,17.02,10.53.75.33,2.56,1.45,2.43,2.22-.2,1.16-13.49-3.05-20.75-9.51-8.25-7.34-10.54-11.8-10.54-11.8,0,0-1.82-7.02-.78-7.23Z"/>
      <path class="cls-2" d="M107.28,141.85c-1.07-1.09-1.11-2.77-.08-3.89,2.72-2.96,7.31-7.05,14.05-9.88,7.08-2.96,13.54-3.26,17.71-3.03,1.62.09,2.78,1.52,2.61,3.13-.32,3-1.07,6.77-2.72,10.89-1.89,4.7-4.32,8.26-6.32,10.7-.68.83-1.67,1.24-2.75,1.26-3.37.05-8.8-.42-14.56-3.36-3.49-1.78-6.1-3.96-7.95-5.83Z"/>
      <path class="cls-2" d="M142.8,167.78c-.31,1.36-9.93,2.5-18.26.36-7.17-1.84-11.98-5.56-14.31-7.64-1.32-1.12-3.55-3.33-5.04-6.83-2.09-4.9-1.57-10.81-1.09-11.03,1.24-.56,5.33,5.53,10.61,8.39,5.03,2.73,11.24,3.56,14.51,4.02.84.12,1.59.49,2.19,1.1,3.79,3.88,11.58,10.75,11.38,11.63Z"/>
      <path class="cls-2" d="M145.59,166.54l-9.77-10.89c-1.21-1.34-1.21-3.37,0-4.71,2.07-2.27,3.99-5.19,5.27-8.7,1.83-5.04,2.61-12.79,3.14-13.45.7-.88,5.26,5.82,8.29,9.37.49.57.81,1.28.86,2.04.29,4.27.64,11.81-2.82,18.82-1.54,3.12-3.34,5.6-4.97,7.5Z"/>
      <path class="cls-2" d="M111.84,63.92c4.28,7.79,8.61,16.8,12.54,27,3.29,8.56,5.8,16.67,7.73,24.12-12.89.33-24.27-5.12-28.93-14.44-3.67-7.36-1.97-14.76-.25-22.26,1.01-4.37,2.85-11.93,8.44-14.24.19-.08.36-.14.46-.18Z"/>
      <path class="cls-2" d="M143.69,78.21c6.91,11.7,2.4,29.73-6.88,34.8-.43.24-.93.51-1.42.63-1.43-7.27-3.64-15.64-7.11-24.64-4.11-10.66-8.95-19.52-13.46-26.57,3.22.43,7.74,1.35,12.68,3.5,4.65,2.02,12.04,5.24,16.2,12.28Z"/>
    </g>
  </g>
</svg>