<?xml version="1.0" encoding="UTF-8"?>
<svg id="Capa_2" data-name="Capa 2" xmlns="http://www.w3.org/2000/svg" viewBox="0 0 119.96 119.96">
  <path d="M47.21,106.81c-.06,0-.12-.02-.17-.06l-1.32-1.15c-.05-.05-.09-.11-.09-.18,0-.07.02-.14.06-.19,2.75-3.15,5.19-6.6,7.28-10.26-1.87-1.01-4.38-2.84-6.2-5.92-1.32-2.25-2.07-4.84-2.16-7.47-.02-.32.1-.64.32-.88.22-.23.51-.36.82-.36.64.02,1.13.55,1.13,1.17.08,2.25.72,4.46,1.85,6.38,1.56,2.64,3.71,4.2,5.32,5.07.59-1.11,1.16-2.29,1.69-3.51,3.09-6.93,4.89-14.31,5.35-21.93.04-.58.44-1.06.95-1.13.05,0,.1-.01.14-.01.56,0,1.17.51,1.18,1.27-.18,3.01-.57,6.03-1.16,9-.55,2.76-1.29,5.5-2.19,8.16,2.86-1.09,5.55-2.72,7.8-4.76,2.59-2.33,4.71-5.27,6.13-8.48.2-.54.67-.93,1.13-.93.01,0,.08,0,.1,0,.27.03.53.21.71.49.25.37.31.85.17,1.32-1.55,3.53-3.86,6.74-6.7,9.3-2.94,2.65-6.51,4.66-10.34,5.83-.37.95-.76,1.9-1.17,2.81-2.63,5.93-6.14,11.43-10.42,16.35-.05.06-.13.09-.2.09Z"/>
  <path d="M75.79,72.37c-1.53,3.47-3.82,6.64-6.62,9.18-2.95,2.66-6.52,4.66-10.36,5.81-.38.97-.78,1.95-1.21,2.91-2.62,5.91-6.12,11.39-10.38,16.29l-1.32-1.15c2.84-3.26,5.33-6.79,7.44-10.54-1.85-.97-4.47-2.78-6.34-5.95-1.3-2.21-2.04-4.75-2.12-7.34-.03-.55.42-.99.91-.97.45.02.84.41.84.91.04,1.26.3,3.82,1.89,6.51,1.67,2.83,4.01,4.44,5.66,5.29.66-1.23,1.26-2.48,1.83-3.76,3.1-6.96,4.91-14.36,5.37-22.02.03-.47.36-.83.73-.89.47-.07,1.01.36,1.02,1-.16,2.64-.5,5.65-1.16,8.94-.59,2.94-1.37,5.82-2.36,8.65,3.1-1.1,5.98-2.81,8.41-5,2.62-2.36,4.76-5.33,6.19-8.57.19-.5.61-.81.95-.77.44.05.88.7.66,1.47Z"/>
  <path d="M69.5,54.23c.65,4.91-2.87,9.42-7.87,10.09-4.99.66-9.57-2.78-10.22-7.69-.65-4.91,1.99-20.16,6.99-20.82,4.99-.66,10.45,13.52,11.1,18.42Z"/>
  <path d="M85.37,39.41c-.98,3.94-5.02,6.33-9.03,5.33-4.01-.99-6.46-4.99-5.49-8.93.98-3.94,7.57-14.78,11.58-13.78,4.01.99,3.91,13.45,2.94,17.38Z"/>
  <path d="M49.61,56.05s-.57-5.5,1.09-11.1c.98-3.31,2.58-6.34,4.69-9.39.25-.35.74-1.35.47-1.66-.41-.46-5.32,5.07-6.78,9.96-1.66,5.55-1.08,9.44-1.08,9.44,0,0,1.09,2.94,1.61,2.75Z"/>
  <path d="M71.16,53.61s-.34-5.14-3.11-10.14c-1.67-3.02-3.66-5.79-6.27-8.42-.3-.31-.97-1.2-.76-1.55.32-.53,5.99,4.09,8.29,8.64,2.61,5.17,2.87,7.79,2.87,7.79,0,0-.46,3.77-1.01,3.68Z"/>
  <path d="M83.84,44.72c.6-.61,1.68-1.8,2.57-3.54,4.3-8.4-1.51-18.57-.65-18.9.63-.25,3.4,5.25,4.54,11.58.38,2.11.34,6.53-4.08,9.75-1.05.76-2.19,1.29-2.39,1.11Z"/>
  <path d="M78.02,63.15c-2.41-4.33-.79-9.82,3.61-12.27,4.4-2.45,9.92-.93,12.33,3.4,2.41,4.33,5.55,19.48,1.15,21.93-4.4,2.45-14.69-8.73-17.09-13.06Z"/>
  <path d="M95.78,53.98s2.55,4.91,3.06,10.72c.3,3.44-.07,6.85-.92,10.46-.1.42-.19,1.53.17,1.72.55.28,3.09-6.67,2.65-11.75-.5-5.77-2.46-9.18-2.46-9.18,0,0-2.09-2.34-2.5-1.97Z"/>
  <path d="M76.33,64s2.21,4.66,6.62,8.29c2.66,2.19,5.53,4.04,8.93,5.52.4.17,1.34.76,1.28,1.16-.1.61-7.08-1.6-10.88-4.99-4.33-3.85-5.53-6.19-5.53-6.19,0,0-.95-3.68-.41-3.79Z"/>
  <path d="M24.88,66.41c-.56-.57-.58-1.45-.04-2.04,1.43-1.55,3.83-3.7,7.37-5.18,3.72-1.55,7.1-1.71,9.29-1.59.85.05,1.46.79,1.37,1.64-.17,1.57-.56,3.55-1.43,5.71-.99,2.47-2.27,4.33-3.31,5.62-.36.44-.88.65-1.44.66-1.77.02-4.62-.22-7.64-1.76-1.83-.93-3.2-2.08-4.17-3.06Z"/>
  <path d="M43.51,80.01c-.17.71-5.21,1.31-9.58.19-3.76-.96-6.29-2.92-7.51-4.01-.69-.59-1.86-1.75-2.64-3.58-1.09-2.57-.83-5.67-.57-5.79.65-.29,2.79,2.9,5.57,4.4,2.64,1.43,5.89,1.87,7.61,2.11.44.06.84.26,1.15.57,1.99,2.03,6.07,5.64,5.97,6.1Z"/>
  <path d="M44.97,79.36l-5.12-5.71c-.63-.7-.64-1.77,0-2.47,1.09-1.19,2.09-2.72,2.76-4.56.96-2.64,1.37-6.71,1.65-7.05.37-.46,2.76,3.05,4.35,4.92.26.3.42.67.45,1.07.15,2.24.34,6.19-1.48,9.87-.81,1.64-1.75,2.94-2.61,3.94Z"/>
  <path d="M27.27,25.53c2.24,4.09,4.52,8.81,6.58,14.16,1.73,4.49,3.04,8.74,4.05,12.65-6.76.17-12.73-2.68-15.17-7.57-1.93-3.86-1.03-7.74-.13-11.68.53-2.29,1.49-6.26,4.43-7.47.1-.04.19-.07.24-.09Z"/>
  <path d="M43.98,33.02c3.63,6.14,1.26,15.6-3.61,18.26-.23.12-.49.27-.75.33-.75-3.81-1.91-8.2-3.73-12.93-2.16-5.59-4.69-10.24-7.06-13.94,1.69.23,4.06.71,6.65,1.83,2.44,1.06,6.32,2.75,8.5,6.44Z"/>
</svg>