<?xml version="1.0" encoding="UTF-8"?>
<svg xmlns="http://www.w3.org/2000/svg" viewBox="0 0 353 276">
  <defs>
    <style>
      .cls-1 {
        fill: #a98973;
      }

      .cls-2 {
        fill: #f3f3f3;
      }
    </style>
  </defs>
  <g id="Capa_3" data-name="Capa 3">
    <rect class="cls-1" x="-28.15" y="-20.61" width="393.65" height="317.22"/>
  </g>
  <g id="Capa_2" data-name="Capa 2">
    <g>
      <path class="cls-2" d="M199.65,91.65c-8.97,6.61-11.02,14.19-12.57,13.4-2.52-1.28-.97-9.36,3.46-18.04,2.61-5.11,8.52-14.56,12.57-13.4,3.11.89,4.95,7.94,2.74,12.59-1.2,2.52-3.02,3.11-6.19,5.46Z"/>
      <path class="cls-2" d="M190.92,72.07c-.63,9.73-3.43,17.46-6.25,17.28-1.2-.08-1.08-2.63-3.96-17.94-1.55-8.23-2.4-11.87-.1-14.7,1.45-1.78,4.2-3.31,6.35-2.58,5.3,1.8,4.06,16.38,3.96,17.94Z"/>
      <path class="cls-2" d="M179.48,91.03c1.37,17.35,4.98,24.66,3.3,25.24-2.67.92-8.48-8.88-12.97-21.9-.95-2.76-8.29-22.11-3.3-25.24,2.16-1.35,6.06.69,8.24,2.67,4.43,4.02,3.99,9.79,4.73,19.23Z"/>
      <path class="cls-2" d="M225.37,175.3c4.69.94,7.72,8.02,6.5,13.31-2,8.67-15.47,12.67-19.26,9.25-2.88-2.6-.49-9.76,1.27-13.21.55-1.08,5.52-10.55,11.49-9.35Z"/>
      <path class="cls-2" d="M246.78,184.01c3.2,1.72,3.54,8.04,1.23,12.06-3.79,6.59-14.77,7.06-16.64,3.53-1.43-2.69,2.25-7.97,4.47-10.39.69-.76,6.88-7.38,10.95-5.2Z"/>
      <path class="cls-2" d="M187.72,155.97c2.7,3.95-.07,11.13-4.63,14.07-7.49,4.81-19.92-1.72-20.25-6.82-.25-3.88,6.46-7.33,10.13-8.57,1.14-.39,11.31-3.7,14.75,1.32Z"/>
      <path class="cls-2" d="M122.57,144.16c2.96,2.2,2.73,8.47.12,12.12-4.43,6.19-16.25,5.59-18.1,1.93-1.87-3.71,6.28-11.1,6.93-11.68,2.11-1.91,3.79-2.75,5.57-3.09.87-.16,3.62-.67,5.48.71Z"/>
      <path class="cls-2" d="M150.63,175.25c1,3.55-3.01,8.38-7.3,9.68-7.28,2.2-16.29-5.49-15.52-9.51.78-4.08,11.75-4.96,12.62-5.03,2.83-.23,4.68.13,6.3.95.79.4,3.28,1.67,3.91,3.91Z"/>
      <path class="cls-2" d="M196.98,221.86c-5.99,1.13-13.62-2.66-14.33-9.02-.73-6.51,6.23-11.94,11.44-11.92,2.85.01,5.4,1.64,8.89,3.88,2.36,1.52,3.55,2.27,4.03,3.42,1.69,4.03-2.92,12.29-10.03,13.64Z"/>
      <path class="cls-2" d="M173.32,181.73c0,6.1-5.15,12.89-11.53,12.4-6.53-.5-10.57-8.34-9.58-13.46.54-2.79,2.62-4.99,5.47-8.01,1.93-2.04,2.89-3.06,4.11-3.32,4.27-.91,11.53,5.15,11.53,12.4Z"/>
      <path class="cls-2" d="M153.92,170.18c-.56,0-1.11-.12-1.62-.35-2.2-1.02-3-3.96-1.8-6.55,1.2-2.59,3.97-3.86,6.17-2.85,2.19,1.02,3,3.96,1.79,6.55h0c-.55,1.2-1.46,2.16-2.54,2.71-.65.33-1.33.49-2,.49ZM155.04,163.07c-.59,0-1.38.51-1.82,1.47-.54,1.17-.25,2.29.34,2.57.37.17.78.02,1-.1.48-.24.91-.72,1.18-1.3h0c.54-1.17.25-2.29-.34-2.57-.11-.05-.23-.07-.36-.07Z"/>
      <path class="cls-2" d="M150.48,157.61c-.09,1.18-.92,1.32-2.8,4.55-1.76,3.02-1.43,3.58-2.41,4.57-2.31,2.32-6.84,1.9-9.66.85-3.46-1.29-7.78-4.81-7.53-8.92.31-5.31,8.09-9.07,14-8.04,4.3.75,8.6,4.21,8.39,6.99Z"/>
      <path class="cls-2" d="M170.22,150.72c-2.49,4.51-8.17,7.46-13.5,5.65-5.86-1.98-8.6-8.82-6.93-14.22,2.1-6.77,10.87-10.44,16.78-6.93,4.97,2.95,6.57,10.2,3.65,15.5Z"/>
      <path class="cls-2" d="M205.56,203.97c-1.25,0-2.55-.47-3.61-1.4-1-.89-1.66-2.07-1.84-3.33-.19-1.33.18-2.64,1.03-3.59,1.7-1.93,4.83-1.96,6.97-.07,2.15,1.89,2.51,5,.82,6.93-.86.98-2.09,1.47-3.37,1.47ZM204.49,197.17c-.44,0-.84.15-1.11.45-.35.4-.34.92-.3,1.19.08.55.39,1.1.86,1.51.88.78,2.14.88,2.74.2.59-.67.34-1.91-.55-2.69-.49-.43-1.09-.65-1.63-.65Z"/>
      <path class="cls-2" d="M216.19,140.5c-1.29,0-2.64-.48-3.75-1.45-2.23-1.97-2.61-5.19-.85-7.19,1.75-1.99,5.01-2.02,7.23-.06,2.23,1.97,2.61,5.19.85,7.19-.89,1.01-2.16,1.52-3.49,1.52ZM215.07,133.34c-.49,0-.93.16-1.23.5-.66.74-.39,2.1.59,2.95.97.86,2.35.95,3,.21.65-.74.39-2.1-.59-2.95-.53-.47-1.18-.71-1.77-.71Z"/>
      <path class="cls-2" d="M178.91,182.25c-2.7,2.07-1.5,10.46,3.55,14.56,4.72,3.84,12.61,3.74,14.22.8,1.62-2.95-3.22-8.46-6.14-10.97-2.91-2.5-9.04-6.38-11.63-4.39Z"/>
      <path class="cls-2" d="M212.67,201.47c-2.7,2.07-1.5,10.46,3.55,14.56,4.72,3.84,12.61,3.74,14.22.8,1.62-2.95-3.22-8.46-6.14-10.97-2.91-2.5-9.04-6.38-11.63-4.39Z"/>
      <path class="cls-2" d="M226.58,160.77c-2.7,2.07-1.5,10.46,3.55,14.56,4.72,3.84,12.61,3.74,14.22.8,1.62-2.95-3.22-8.46-6.14-10.97-2.91-2.5-9.04-6.38-11.63-4.39Z"/>
      <path class="cls-2" d="M218.8,118.87c-2.7,2.07-1.5,10.46,3.55,14.56,4.72,3.84,12.61,3.74,14.22.8,1.62-2.95-3.22-8.46-6.14-10.97-2.91-2.5-9.04-6.38-11.63-4.39Z"/>
      <path class="cls-2" d="M222.88,140.74c-1.2,2.47,2.14,6.38,6.51,11.49,4.43,5.18,9.16,10.72,12.06,9.58,3.66-1.44,5.29-13.87-1.15-19.92-5.53-5.19-15.77-4.54-17.43-1.15Z"/>
      <path class="cls-2" d="M215.45,142.89c-6.17-1.54-13.19,4.4-13.7,11.29-.47,6.22,4.38,12.97,10.62,13,5.81.02,10.14-5.8,10.74-11.18.6-5.37-2.36-11.78-7.66-13.1Z"/>
      <path class="cls-2" d="M187.72,170.69c-2.69,4.17,1.61,11.48,4.85,15.07,3.02,3.35,9.85,8.71,14.64,6.36,5.15-2.53,6.57-13.32,1.64-19.53-5.53-6.97-17.98-6.79-21.13-1.9Z"/>
      <path class="cls-2" d="M190.83,107.09c-2.69,4.17,1.61,11.48,4.85,15.07,3.02,3.35,9.85,8.71,14.64,6.36,5.15-2.53,6.57-13.32,1.64-19.53-5.53-6.97-17.98-6.79-21.13-1.9Z"/>
      <path class="cls-2" d="M174.86,139.55c.24,6.2,9.97,11.21,18.12,10.39,6.59-.66,14.59-5.38,14.38-11.43-.21-6.1-8.66-10.37-15.41-10.55-8.14-.22-17.33,5.42-17.09,11.59Z"/>
      <path class="cls-2" d="M132.1,119.3c-1.14,0-2.23-.43-2.99-1.3-1.51-1.71-1.19-4.46.7-6.13,1.9-1.67,4.67-1.63,6.17.07h0c1.51,1.71,1.19,4.46-.7,6.13-.93.82-2.08,1.23-3.18,1.23ZM132.99,113.63c-.39,0-.83.17-1.2.49-.64.56-.84,1.43-.43,1.89.41.46,1.29.37,1.94-.19.64-.56.84-1.43.43-1.89-.18-.2-.44-.29-.74-.29Z"/>
      <path class="cls-2" d="M129.38,98.42c2.7,2.07,1.5,10.46-3.55,14.56-4.72,3.84-12.61,3.74-14.22.8-1.62-2.95,3.22-8.46,6.14-10.97,2.91-2.5,9.04-6.38,11.63-4.39Z"/>
      <path class="cls-2" d="M125.29,120.29c1.2,2.47-2.14,6.38-6.51,11.49-4.43,5.18-9.16,10.72-12.06,9.58-3.66-1.44-5.29-13.87,1.15-19.92,5.53-5.19,15.77-4.54,17.43-1.15Z"/>
      <path class="cls-2" d="M132.72,122.44c6.17-1.54,13.19,4.4,13.7,11.29.47,6.22-4.38,12.97-10.62,13-5.81.02-10.14-5.8-10.74-11.18-.6-5.37,2.36-11.78,7.66-13.1Z"/>
      <path class="cls-2" d="M157.34,86.64c2.69,4.17-1.61,11.48-4.85,15.07-3.02,3.35-9.85,8.71-14.64,6.36-5.15-2.53-6.57-13.32-1.64-19.53,5.53-6.97,17.98-6.79,21.13-1.9Z"/>
      <path class="cls-2" d="M173.32,119.11c-.24,6.2-9.97,11.21-18.12,10.39-6.59-.66-14.59-5.38-14.38-11.43.21-6.1,8.66-10.37,15.41-10.55,8.14-.22,17.33,5.42,17.09,11.59Z"/>
    </g>
  </g>
</svg>