<?xml version="1.0" encoding="UTF-8"?>
<svg id="Capa_1" xmlns="http://www.w3.org/2000/svg" version="1.1" viewBox="0 0 108 117">
  <!-- Generator: Adobe Illustrator 29.8.7, SVG Export Plug-In . SVG Version: 2.1.1 Build 1)  -->
  <path d="M53.85,0c-.96.03-1.88.37-2.64.97L8.58,34.56C3.17,38.83,0,45.34,0,52.23v57.27c0,4.09,3.41,7.5,7.5,7.5h30c4.09,0,7.5-3.41,7.5-7.5v-30c0-.89.61-1.5,1.5-1.5h15c.89,0,1.5.61,1.5,1.5v30c0,4.09,3.41,7.5,7.5,7.5h30c4.09,0,7.5-3.41,7.5-7.5v-57.27c0-6.89-3.17-13.41-8.58-17.67L56.78.97c-.83-.66-1.87-1-2.93-.97ZM54,10.23l39.86,31.4c3.25,2.56,5.14,6.46,5.14,10.6v55.77h-27v-28.5c0-5.74-4.76-10.5-10.5-10.5h-15c-5.74,0-10.5,4.76-10.5,10.5v28.5H9v-55.77c0-4.14,1.89-8.04,5.14-10.6L54,10.23Z"/>
</svg>