<?xml version="1.0" encoding="UTF-8"?>
<svg id="Capa_1" xmlns="http://www.w3.org/2000/svg" version="1.1" viewBox="0 0 48 48">
  <!-- Generator: Adobe Illustrator 29.8.7, SVG Export Plug-In . SVG Version: 2.1.1 Build 1)  -->
  <polygon points="23.79 21.78 22.11 23.74 15.54 14.13 18.51 14.11 23.79 21.78"/>
  <polygon points="25.37 24.08 32.78 34.85 29.69 34.83 23.69 26.05 25.37 24.08"/>
  <path d="M24,0C10.75,0,0,10.75,0,24s10.75,24,24,24,24-10.74,24-24S37.26,0,24,0ZM28.19,36.23l-5.87-8.59-7.36,8.57h-3.56l9.34-10.88-8.59-12.56,7.53-.05,5.29,7.68,6.58-7.67h3.56l-8.56,9.97,9.3,13.52h-7.66,0Z"/>
</svg>