<svg width="452" height="186" viewBox="0 0 452 186" fill="none" xmlns="http://www.w3.org/2000/svg">
<g filter="url(#filter0_d_674_303)">
<path d="M434.086 108.094C427.887 103.088 419.773 99.7527 410.239 98.2199C412.612 97.3929 414.807 96.3674 416.803 95.1435L416.959 95.0442C419.531 93.3461 422.34 91.3227 424.659 88.7975C428.974 88.5163 431.982 85.8589 432.832 82.8816C433.752 79.6673 433.247 76.2766 430.443 74.3359C431.288 65.9004 430.04 52.8722 424.245 46.0631C417.82 38.5208 408.372 34.1928 398.315 34.1928C397.374 34.1928 388.937 34.2589 383.427 36.3044C382.577 36.6187 381.834 36.9054 381.194 37.1645C379.639 35.301 377.643 32.0756 377.029 27.3727C376.696 24.7979 376.502 22.5099 376.33 20.4975C375.776 13.92 375.2 7.11093 368.076 5.53961C367.543 5.42382 366.984 5.36318 366.424 5.36318C363.422 5.36318 360.199 7.08887 357.347 10.215C355.372 12.3817 353.806 14.9344 352.714 17.6856C349.884 10.7884 347.274 4.96621 340.382 4.96621C337.584 4.96621 328.426 6.58715 328.055 27.4609C328.044 27.9185 328.049 28.3706 328.055 28.8172C327.081 27.4554 325.859 26.5181 325.257 26.0605C323.745 24.9082 322.093 23.9544 321.189 23.5574C319.731 22.9179 318.143 22.576 316.594 22.576C313.699 22.576 310.982 23.7614 308.948 25.9116C307.457 27.4885 306.639 29.3465 306.279 31.1549C303.82 32.8034 302.319 35.4553 301.91 38.8957L301.28 36.6352H260.247L260 37.5284V36.6352H164.827V38.6035C162.357 36.9881 159.849 36.6352 158.128 36.6352H64.4448V41.6634C59.4515 38.4546 52.7203 36.6352 44.7999 36.6352H4.04675V99.3943H4.13823V135.099H22.7607V176.135H68.0498V135.099H76.6158C76.5835 135.783 76.5674 136.466 76.5674 137.161C76.5674 149.224 81.2755 159.353 90.1913 166.454C98.9295 173.417 111.515 177.095 126.581 177.095C141.647 177.095 154.038 173.494 162.776 166.68C165.16 164.822 167.242 162.743 169.018 160.483V176.135H214.307V173.445C216.82 175.534 219.591 176.135 221.932 176.135C224.272 176.135 226.957 175.556 229.465 173.572V176.135H321.684C337.987 176.135 350.137 169.745 354.77 159.501C356.642 162.054 358.87 164.386 361.463 166.454C370.201 173.417 382.787 177.095 397.853 177.095C412.918 177.095 425.31 173.494 434.048 166.68C443.029 159.678 447.774 149.704 447.774 137.828C447.774 125.952 443.039 115.306 434.086 108.078V108.094Z" fill="#F3F3F3"/>
<path d="M9.42175 42.1661H44.7943C59.4781 42.1661 68.5176 48.7601 68.5176 58.4692C68.5176 68.1783 59.4781 74.7007 44.7943 74.7007H36.1153V93.8984H9.42175V42.1661ZM41.2484 61.4354C44.2132 61.4354 46.1663 60.3989 46.1663 58.767C46.1663 57.135 44.2132 56.2473 41.3184 56.2473H36.1099V61.4354H41.2484Z" fill="#141127"/>
<path d="M69.8163 71.5139V42.1661H96.5098V74.9267C96.5098 77.893 98.2477 79.8943 100.707 79.8943C103.166 79.8943 104.828 77.893 104.828 74.9267V42.1661H131.516V71.5139C131.516 85.3746 119.146 94.6372 100.631 94.6372C82.1165 94.6372 69.8163 85.3746 69.8163 71.5139Z" fill="#141127"/>
<path d="M135.062 42.1661H158.135C169.633 42.1661 166.598 65.5154 170.214 65.5154V42.1661H196.902V93.8984H174.551C165.436 93.8984 164.57 66.6236 161.751 66.6236V93.8984H135.062V42.1661Z" fill="#141127"/>
<path d="M213.542 93.898V62.1739H199.148V42.1603H254.628V62.1739H240.235V93.898H213.542Z" fill="#141127"/>
<path d="M264.311 42.1661H297.225L311.618 93.8984H284.924L283.262 82.1162H278.269L276.606 93.8984H249.918L264.311 42.1661ZM282.25 74.7007L280.733 63.8779L279.286 74.7007H282.25Z" fill="#141127"/>
<path d="M28.138 170.636V129.6H9.5155V103.709H81.2829V129.6H62.6604V170.636H28.138Z" fill="#141127"/>
<path d="M81.9413 137.177C81.9413 116.562 97.8465 102.757 126.294 102.757C154.742 102.757 171.115 116.849 171.115 137.85C171.115 158.85 155.022 171.597 126.574 171.597C98.1263 171.597 81.9413 157.792 81.9413 137.177ZM126.574 144.846C134.435 144.846 136.587 141.968 136.587 137.844C136.587 134.586 135.28 131.421 126.482 131.421C117.685 131.421 116.469 134.492 116.469 137.844C116.469 141.968 118.713 144.846 126.574 144.846Z" fill="#141127"/>
<path d="M221.923 170.636C208.262 170.636 214.159 135.35 208.918 135.35V170.636H174.391V103.709H205.173C222.86 103.709 217.43 138.708 221.735 138.708C226.04 138.708 220.799 103.709 238.577 103.709H269.268V170.636H234.832V135.35C230.807 135.35 235.676 170.636 221.918 170.636H221.923Z" fill="#141127"/>
<path d="M274.98 103.709H321.114C339.36 103.709 351.429 112.243 351.429 124.996C351.429 129.793 349.653 133.911 346.468 137.269C349.648 140.626 351.429 144.844 351.429 149.735C351.429 162.294 339.543 170.636 321.674 170.636H274.98V103.709ZM316.153 128.64C319.99 128.64 322.519 127.301 322.519 125.283C322.519 123.265 319.99 121.925 316.25 121.925H309.513V128.635H316.159L316.153 128.64ZM316.153 152.513C319.99 152.513 322.519 151.174 322.519 149.062C322.519 146.95 319.99 145.804 316.25 145.804H309.513V152.513H316.159H316.153Z" fill="#141127"/>
<path d="M353.215 137.177C353.215 116.562 369.12 102.757 397.568 102.757C426.015 102.757 442.389 116.849 442.389 137.85C442.389 158.85 426.295 171.597 397.847 171.597C369.4 171.597 353.215 157.792 353.215 137.177ZM397.847 144.846C405.709 144.846 407.861 141.968 407.861 137.844C407.861 134.586 406.553 131.421 397.756 131.421C388.958 131.421 387.742 134.492 387.742 137.844C387.742 141.968 389.986 144.846 397.847 144.846Z" fill="#141127"/>
<path d="M423.989 76.0074C424.72 73.9344 425.226 71.7897 425.554 69.645C427.836 54.7808 416.084 38.6321 397.941 38.6321C397.941 38.6321 389.698 38.6376 384.93 40.4074C380.588 42.0173 379.657 42.8498 379.657 42.8498C379.657 42.8498 372.539 37.2482 371.667 27.0319C370.758 16.3359 371.016 10.9272 366.695 9.97339C363.128 9.18497 352.813 17.9292 355.364 27.5722C358.065 37.7995 372.716 43.1475 378.178 43.335C378.269 43.335 377.742 43.357 377.65 43.3515C368.062 42.9491 356.257 38.5052 349.859 26.3813C343.887 15.0678 344.92 9.96236 340.255 9.5268C338.388 9.35037 333.54 14.8527 333.335 26.5357C333.077 40.9863 343.44 54.7202 359.248 57.2288C348.11 57.4493 337.548 49.0965 334.809 39.5418C332.41 31.1669 324.457 33.6535 320.239 38.7478C318.716 41.0138 316.418 43.9856 315.918 48.1096L315.902 47.9773C310.672 46.6651 310.058 41.2619 311.565 38.7478C313.222 35.9856 315.493 39.244 316.752 37.3529C317.995 35.4839 314.535 34.2268 315.848 31.8065C316.886 29.8933 319.211 30.4557 321.062 32.7713C322.213 34.2103 324 34.8113 323.989 32.3578C323.984 30.7424 319.77 28.73 318.754 28.2779C317.086 27.5446 314.799 26.8113 312.808 28.923C310.812 31.0291 311.581 34.0449 311.581 34.0449C310.322 34.2875 306.798 34.7727 307.223 40.9642C307.621 46.8084 314.422 51.9249 316.117 52.6306C317.22 58.133 321.621 65.2508 332.894 74.607C350.381 89.1183 370.876 95.9604 397.952 93.744C408.051 92.917 414.664 89.4546 418.925 84.7241C419.851 85.088 420.916 85.292 422.041 85.292C425.667 85.292 428.605 83.1693 428.605 80.545C428.605 78.4168 426.668 76.6139 423.999 76.0129L423.989 76.0074ZM419.797 76.0791C417.274 76.7407 415.471 78.4884 415.471 80.545C415.471 81.1128 415.611 81.6587 415.864 82.1604C411.366 86.2568 404.355 88.159 398.942 89.1238C389.606 90.7889 377.489 89.1238 364.99 84.9557C353.663 81.1845 348.148 75.853 347.4 75.1198C341.142 68.9723 340.594 65.8848 343.881 66.2873C346.071 66.5519 352.619 70.4223 352.619 70.4223C352.619 70.4223 355.277 72.3189 364.532 75.5443C373.787 78.7696 390.871 77.5843 390.871 77.5843C390.978 71.8338 394.761 61.248 401.444 58.6237C408.874 55.7126 418.237 57.8518 420.12 69.3031C420.54 71.8724 420.389 74.1163 419.802 76.0791H419.797Z" fill="#141127"/>
<path d="M411.283 69.4232C409.621 69.4232 408.173 70.377 407.436 71.7774C407.377 71.8932 407.318 72.0034 407.27 72.1247C407.243 72.2295 407.226 72.3343 407.226 72.4445C407.226 73.0841 407.732 73.6078 408.356 73.6078C408.593 73.6078 408.808 73.5362 408.991 73.4094C409.05 73.3487 409.11 73.2936 409.174 73.244C409.648 72.858 410.25 72.632 410.901 72.632C412.123 72.632 413.167 73.4369 413.549 74.5562C413.586 74.6609 413.613 74.7657 413.64 74.8814C413.807 75.2508 414.173 75.5045 414.593 75.5045C415.012 75.5045 415.362 75.2619 415.54 74.909C415.588 74.6995 415.62 74.479 415.636 74.2584C415.647 74.1426 415.653 74.0269 415.653 73.9056C415.653 71.4301 413.694 69.4232 411.278 69.4232H411.283Z" fill="#141126"/>
<path d="M20.488 1.332C21.736 1.332 22.876 1.596 23.908 2.124C24.964 2.628 25.792 3.348 26.392 4.284C27.016 5.22 27.328 6.264 27.328 7.416C27.328 10.464 25.948 12.384 23.188 13.176V13.32C26.332 14.04 27.904 16.104 27.904 19.512C27.904 20.808 27.58 21.96 26.932 22.968C26.308 23.952 25.444 24.72 24.34 25.272C23.236 25.824 22.024 26.1 20.704 26.1H4V1.332H20.488ZM11.956 10.98H17.428C17.956 10.98 18.388 10.8 18.724 10.44C19.084 10.056 19.264 9.588 19.264 9.036V8.676C19.264 8.148 19.084 7.704 18.724 7.344C18.364 6.96 17.932 6.768 17.428 6.768H11.956V10.98ZM11.956 20.34H18.004C18.532 20.34 18.964 20.16 19.3 19.8C19.66 19.416 19.84 18.948 19.84 18.396V18.036C19.84 17.484 19.66 17.028 19.3 16.668C18.964 16.284 18.532 16.092 18.004 16.092H11.956V20.34Z" fill="#F3F3F3"/>
<path d="M31.7675 4.86V0H38.9315V4.86H31.7675ZM31.7675 26.1V7.092H38.9315V26.1H31.7675Z" fill="#F3F3F3"/>
<path d="M53.3318 6.66C56.8118 6.66 59.4638 7.476 61.2878 9.108C63.1358 10.74 64.0598 13.236 64.0598 16.596V17.82H49.8038C49.8038 19.188 50.1038 20.22 50.7038 20.916C51.3278 21.612 52.2998 21.96 53.6198 21.96C54.8198 21.96 55.6958 21.708 56.2478 21.204C56.8238 20.7 57.1118 20.028 57.1118 19.188H64.0598C64.0598 21.492 63.1838 23.292 61.4318 24.588C59.6798 25.884 57.1238 26.532 53.7638 26.532C50.2358 26.532 47.4998 25.716 45.5558 24.084C43.6118 22.428 42.6398 19.932 42.6398 16.596C42.6398 13.332 43.5878 10.86 45.4838 9.18C47.3798 7.5 49.9958 6.66 53.3318 6.66ZM53.6198 11.232C51.3638 11.232 50.1038 12.3 49.8398 14.436H56.8238C56.8238 13.452 56.5358 12.672 55.9598 12.096C55.4078 11.52 54.6278 11.232 53.6198 11.232Z" fill="#F3F3F3"/>
<path d="M80.6195 6.66C82.8275 6.66 84.4835 7.272 85.5875 8.496C86.6915 9.72 87.2435 11.484 87.2435 13.788V26.1H80.0795V14.652C80.0795 13.836 79.8635 13.188 79.4315 12.708C79.0235 12.204 78.4355 11.952 77.6675 11.952C76.7795 11.952 76.0595 12.24 75.5075 12.816C74.9555 13.392 74.6795 14.1 74.6795 14.94V26.1H67.5155V7.092H73.3835L73.8515 9.972C74.5955 8.964 75.5675 8.16 76.7675 7.56C77.9915 6.96 79.2755 6.66 80.6195 6.66Z" fill="#F3F3F3"/>
<path d="M95.5829 26.1L88.3829 7.092H96.0869L99.5789 18.936H99.8309L103.323 7.092H110.379L103.107 26.1H95.5829Z" fill="#F3F3F3"/>
<path d="M121.429 6.66C124.909 6.66 127.561 7.476 129.385 9.108C131.233 10.74 132.157 13.236 132.157 16.596V17.82H117.901C117.901 19.188 118.201 20.22 118.801 20.916C119.425 21.612 120.397 21.96 121.717 21.96C122.917 21.96 123.793 21.708 124.345 21.204C124.921 20.7 125.209 20.028 125.209 19.188H132.157C132.157 21.492 131.281 23.292 129.529 24.588C127.777 25.884 125.221 26.532 121.861 26.532C118.333 26.532 115.597 25.716 113.653 24.084C111.709 22.428 110.737 19.932 110.737 16.596C110.737 13.332 111.685 10.86 113.581 9.18C115.477 7.5 118.093 6.66 121.429 6.66ZM121.717 11.232C119.461 11.232 118.201 12.3 117.937 14.436H124.921C124.921 13.452 124.633 12.672 124.057 12.096C123.505 11.52 122.725 11.232 121.717 11.232Z" fill="#F3F3F3"/>
<path d="M148.717 6.66C150.925 6.66 152.581 7.272 153.685 8.496C154.789 9.72 155.341 11.484 155.341 13.788V26.1H148.177V14.652C148.177 13.836 147.961 13.188 147.529 12.708C147.121 12.204 146.533 11.952 145.765 11.952C144.877 11.952 144.157 12.24 143.605 12.816C143.053 13.392 142.777 14.1 142.777 14.94V26.1H135.613V7.092H141.481L141.949 9.972C142.693 8.964 143.665 8.16 144.865 7.56C146.089 6.96 147.373 6.66 148.717 6.66Z" fill="#F3F3F3"/>
<path d="M159.877 4.86V0H167.041V4.86H159.877ZM159.877 26.1V7.092H167.041V26.1H159.877Z" fill="#F3F3F3"/>
<path d="M185.437 26.1L184.825 23.4C183.433 25.488 181.417 26.532 178.777 26.532C176.209 26.532 174.229 25.692 172.837 24.012C171.445 22.332 170.749 19.848 170.749 16.56C170.749 13.296 171.445 10.836 172.837 9.18C174.229 7.5 176.209 6.66 178.777 6.66C180.961 6.66 182.737 7.392 184.105 8.856V0H191.269V26.1H185.437ZM181.009 11.952C178.945 11.952 177.913 13.188 177.913 15.66V17.568C177.913 20.016 178.945 21.24 181.009 21.24C182.065 21.24 182.857 20.868 183.385 20.124C183.913 19.38 184.177 18.408 184.177 17.208V16.02C184.177 14.82 183.913 13.848 183.385 13.104C182.857 12.336 182.065 11.952 181.009 11.952Z" fill="#F3F3F3"/>
<path d="M205.453 6.66C208.789 6.66 211.405 7.512 213.301 9.216C215.221 10.896 216.181 13.356 216.181 16.596C216.181 19.836 215.221 22.308 213.301 24.012C211.405 25.692 208.789 26.532 205.453 26.532C202.117 26.532 199.501 25.692 197.605 24.012C195.709 22.332 194.761 19.86 194.761 16.596C194.761 13.332 195.709 10.86 197.605 9.18C199.501 7.5 202.117 6.66 205.453 6.66ZM205.453 11.52C203.101 11.52 201.925 12.876 201.925 15.588V17.64C201.925 20.328 203.101 21.672 205.453 21.672C207.829 21.672 209.017 20.328 209.017 17.64V15.588C209.017 12.876 207.829 11.52 205.453 11.52Z" fill="#F3F3F3"/>
<path d="M228.673 6.66C231.217 6.66 233.365 7.164 235.117 8.172C236.893 9.156 237.781 10.692 237.781 12.78H231.121C231.121 12.084 230.809 11.592 230.185 11.304C229.753 11.064 229.213 10.944 228.565 10.944C226.837 10.944 225.973 11.352 225.973 12.168C225.973 12.624 226.273 12.948 226.873 13.14C227.473 13.332 228.457 13.536 229.825 13.752C231.505 13.992 232.909 14.28 234.037 14.616C235.165 14.928 236.149 15.504 236.989 16.344C237.829 17.16 238.249 18.312 238.249 19.8C238.249 22.224 237.337 23.952 235.513 24.984C233.713 26.016 231.349 26.532 228.421 26.532C226.741 26.532 225.157 26.304 223.669 25.848C222.181 25.368 220.969 24.636 220.033 23.652C219.097 22.668 218.629 21.42 218.629 19.908H225.289V20.052C225.313 20.868 225.649 21.444 226.297 21.78C226.969 22.092 227.677 22.248 228.421 22.248C230.413 22.248 231.409 21.78 231.409 20.844C231.409 20.364 231.097 20.016 230.473 19.8C229.849 19.584 228.829 19.356 227.413 19.116C225.709 18.828 224.305 18.516 223.201 18.18C222.121 17.844 221.173 17.28 220.357 16.488C219.541 15.672 219.133 14.544 219.133 13.104C219.133 10.776 220.009 9.12 221.761 8.136C223.537 7.152 225.841 6.66 228.673 6.66Z" fill="#F3F3F3"/>
<path d="M263.029 6.66C265.933 6.66 268.297 7.152 270.121 8.136C271.945 9.096 272.857 10.668 272.857 12.852V20.268C272.857 20.676 272.953 21.012 273.145 21.276C273.337 21.54 273.625 21.672 274.009 21.672H275.305V25.812C275.233 25.86 275.041 25.944 274.729 26.064C274.441 26.16 274.021 26.256 273.469 26.352C272.917 26.472 272.281 26.532 271.561 26.532C270.169 26.532 269.017 26.328 268.105 25.92C267.217 25.488 266.605 24.9 266.269 24.156C265.357 24.876 264.337 25.452 263.209 25.884C262.081 26.316 260.761 26.532 259.249 26.532C254.785 26.532 252.553 24.756 252.553 21.204C252.553 19.356 253.045 17.952 254.029 16.992C255.037 16.008 256.477 15.336 258.349 14.976C260.221 14.616 262.669 14.436 265.693 14.436V13.5C265.693 12.756 265.429 12.192 264.901 11.808C264.397 11.424 263.737 11.232 262.921 11.232C262.177 11.232 261.529 11.364 260.977 11.628C260.449 11.892 260.185 12.312 260.185 12.888V13.032H253.129C253.105 12.912 253.093 12.744 253.093 12.528C253.093 10.728 253.945 9.3 255.649 8.244C257.377 7.188 259.837 6.66 263.029 6.66ZM265.693 17.82C263.653 17.82 262.141 18.048 261.157 18.504C260.197 18.936 259.717 19.524 259.717 20.268C259.717 21.468 260.533 22.068 262.165 22.068C263.101 22.068 263.917 21.816 264.613 21.312C265.333 20.808 265.693 20.184 265.693 19.44V17.82Z" fill="#F3F3F3"/>
</g>
<defs>
<filter id="filter0_d_674_303" x="0" y="0" width="451.773" height="185.094" filterUnits="userSpaceOnUse" color-interpolation-filters="sRGB">
<feFlood flood-opacity="0" result="BackgroundImageFix"/>
<feColorMatrix in="SourceAlpha" type="matrix" values="0 0 0 0 0 0 0 0 0 0 0 0 0 0 0 0 0 0 127 0" result="hardAlpha"/>
<feOffset dy="4"/>
<feGaussianBlur stdDeviation="2"/>
<feComposite in2="hardAlpha" operator="out"/>
<feColorMatrix type="matrix" values="0 0 0 0 0 0 0 0 0 0 0 0 0 0 0 0 0 0 0.25 0"/>
<feBlend mode="normal" in2="BackgroundImageFix" result="effect1_dropShadow_674_303"/>
<feBlend mode="normal" in="SourceGraphic" in2="effect1_dropShadow_674_303" result="shape"/>
</filter>
</defs>
</svg>
