<?xml version="1.0" encoding="UTF-8"?>
<svg id="Capa_2" data-name="Capa 2" xmlns="http://www.w3.org/2000/svg" viewBox="0 0 215.77 83.14">
  <defs>
    <style>
      .cls-1 {
        fill: #fff;
      }
    </style>
  </defs>
  <path class="cls-1" d="M211.86,62.76c0,5.59-2.29,10.28-6.62,13.58-4.17,3.17-10.11,4.85-17.18,4.85s-13.11-1.71-17.28-4.95c-.96-.75-1.82-1.58-2.58-2.46-2.53,4.33-8.12,6.99-15.46,6.99h-43.42v-.65c-1.05.52-2.07.65-2.84.65s-1.82-.14-2.88-.68v.68h-22.31v-6.03c-.57.57-1.18,1.11-1.84,1.62-4.17,3.17-10.11,4.85-17.18,4.85s-13.11-1.71-17.28-4.95c-4.3-3.34-6.57-8.11-6.57-13.77,0-.09,0-.19,0-.28h-2.64v18.57H13.44v-18.57H4.8v-16.16h-.04v-29.72h19.56c3.49,0,6.29.68,8.45,1.78v-1.78h44.11c.93,0,1.74.16,2.45.43v-.43h63.98c.36-.91.94-1.66,1.69-2.22.21-.85.64-1.7,1.35-2.44,1.07-1.1,2.5-1.71,4.02-1.71.81,0,1.63.17,2.39.5.23.1,1.3.58,2.3,1.41.46-9.14,4.94-9.88,6.34-9.88,3.12,0,4.55,2.18,5.75,4.84.45-.81,1.01-1.57,1.64-2.25,1.45-1.55,3.11-2.4,4.69-2.4.31,0,.61.03.9.09,3.78.82,4.09,4.44,4.34,7.35.08.9.17,1.93.32,3.08.23,1.7.89,2.93,1.5,3.73.19-.07.38-.14.6-.22,2.66-.96,6.68-.99,7.13-1,4.85,0,9.42,2.04,12.52,5.6,2.72,3.12,4.07,7.06,3.78,10.94,1.29,1,2.08,2.45,2.08,4.06,0,2.94-2.55,5.25-5.88,5.42-1.08,1.1-2.34,1.99-3.5,2.74l-.09.06c-.36.21-.73.41-1.12.6,3.61.83,6.72,2.23,9.2,4.18,4.32,3.4,6.6,8.24,6.6,13.98Z"/>
  <g>
    <g>
      <g>
        <path d="M201.81,32.13s-.15,1.1-.32,1.42c-.17-.02-.47-.05-.65-.05-.3,0-.58.03-.86.09.08-.71.06-1.48-.08-2.33-.99-5.9-5.94-7.01-9.87-5.51-3.53,1.35-5.53,6.81-5.59,9.77,0,0-3.05.21-6.56.05-2.53-.11-5.3-.41-7.35-1.1-4.89-1.66-6.05-2.73-6.05-2.73,0,0-4.36-2.9-6.1-3-1.75-.11-2.8.64-.98,2.37,1.82,1.73,6.77,6.07,13.38,8.22,4.46,1.45,8.83,2.31,12.72,2.46,1.87.07,3.62-.03,5.22-.31,3.17-.55,7.37-1.69,9.66-4.31.3.29,1.02.62,1.47.77-.93,1.37-2.45,2.44-3.84,3.34-1.52.91-3.42,1.59-5.79,1.93-.48.07-.98.13-1.5.17-12.61,1.01-22.17-2.08-30.3-8.7-3.12-2.54-5.09-6.15-5.79-9.59-.43.03-5.96-2.91-6.16-5.79-.2-2.81,1.44-3.03,2.03-3.15,0,0-.36-1.37.57-2.33s2.12-.84,2.9-.51c.48.2,2.43,1.36,2.32,2.03-.14.85-.92.93-1.46.28-.86-1.05-2.02-1.44-2.5-.57-.61,1.1,1.06,1.83.58,2.61-.55.88-2.03-.87-2.8.39-.7,1.14,1.8,3.93,4.23,4.53-.03-1.36.17-2.64.59-3.76,1.37-3.58,4.67-4.03,6.08,0,1.45,4.15,6.76,6.66,8.3,6.85-3.38-1.35-8.81-6.27-8.69-12.84.1-5.31,1.64-7.73,3.22-7.73,2.18,0,2.59,2.67,5.05,7.98,2.35,5.06,8.05,6.64,9.41,7.16.04.02.07-.05.03-.06-3.04-1.36-6.9-4.25-7.09-7.05-.31-4.53,3.26-8.18,4.92-7.82,2.01.43,1.56,2.94,2.2,7.77.64,4.84,3.93,7.06,3.93,7.06,0,0,.34-.27,2.36-1,2.22-.8,6.06-.81,6.06-.81,8.36,0,14.01,7.09,13.09,13.79Z"/>
        <path d="M203.95,35.78c0,1.26-1.39,2.28-3.11,2.28-.44,0-.87-.07-1.25-.19-.02,0-.04-.01-.05-.02-.46-.15-.85-.39-1.16-.68-.41-.39-.65-.87-.65-1.39,0-1.04.95-1.92,2.25-2.19.27-.06.56-.09.86-.09.18,0,.36.01.53.03,0,0,.02,0,.03,0,1.45.19,2.55,1.12,2.55,2.24Z"/>
      </g>
      <path d="M197.17,33.36c0,.06,0,.12,0,.18,0,.12-.03.23-.05.34-.09.18-.28.31-.5.31s-.42-.13-.51-.33c-.01-.06-.03-.11-.05-.17-.2-.58-.76-1-1.41-1-.35,0-.67.12-.92.32-.03.03-.07.05-.1.08h0c-.1.07-.21.1-.34.1-.33,0-.6-.27-.6-.6,0-.06,0-.11.02-.17.03-.06.06-.12.09-.18.39-.73,1.16-1.23,2.05-1.23,1.29,0,2.33,1.04,2.33,2.33Z"/>
    </g>
    <g>
      <g>
        <path d="M8.36,19.45h16.4c6.81,0,11,2.99,11,7.38s-4.19,7.35-11,7.35h-4.03v8.69h-12.38v-23.41ZM23.12,28.17c1.38,0,2.28-.47,2.28-1.21s-.91-1.14-2.25-1.14h-2.42v2.35h2.38Z"/>
        <path d="M36.37,32.73v-13.28h12.38v14.83c0,1.34.8,2.25,1.95,2.25s1.91-.91,1.91-2.25v-14.83h12.38v13.28c0,6.27-5.74,10.47-14.32,10.47s-14.29-4.19-14.29-10.47Z"/>
        <path d="M66.63,19.45h10.7c5.33,0,3.92,10.57,5.6,10.57v-10.57h12.38v23.41h-10.37c-4.23,0-4.63-12.34-5.94-12.34v12.34h-12.38v-23.41Z"/>
        <path d="M103.02,42.86v-14.36h-6.68v-9.06h25.73v9.06h-6.68v14.36h-12.38Z"/>
        <path d="M126.57,19.45h15.26l6.68,23.41h-12.38l-.77-5.33h-2.31l-.77,5.33h-12.38l6.68-23.41ZM134.89,34.18l-.7-4.9-.67,4.9h1.38Z"/>
      </g>
      <g>
        <path d="M17.04,77.6v-18.57h-8.64v-11.72h33.28v11.72h-8.64v18.57h-16.01Z"/>
        <path d="M41.99,62.45c0-9.33,7.38-15.58,20.57-15.58s20.79,6.38,20.79,15.88-7.46,15.28-20.66,15.28-20.7-6.25-20.7-15.58ZM62.69,65.92c3.65,0,4.64-1.3,4.64-3.17,0-1.48-.61-2.91-4.69-2.91s-4.64,1.39-4.64,2.91c0,1.87,1.04,3.17,4.69,3.17Z"/>
        <path d="M106.91,77.6c-6.34,0-3.6-15.97-6.03-15.97v15.97h-16.01v-30.29h14.28c8.2,0,5.68,15.84,7.68,15.84s-.43-15.84,7.81-15.84h14.23v30.29h-15.97v-15.97c-1.87,0,.39,15.97-5.99,15.97Z"/>
        <path d="M131.52,47.31h21.39c8.46,0,14.06,3.86,14.06,9.63,0,2.17-.82,4.04-2.3,5.55,1.48,1.52,2.3,3.43,2.3,5.64,0,5.68-5.51,9.46-13.8,9.46h-21.65v-30.29ZM150.62,58.59c1.78,0,2.95-.61,2.95-1.52s-1.17-1.52-2.91-1.52h-3.12v3.04h3.08ZM150.62,69.4c1.78,0,2.95-.61,2.95-1.56s-1.17-1.48-2.91-1.48h-3.12v3.04h3.08Z"/>
        <path d="M167.8,62.45c0-9.33,7.38-15.58,20.57-15.58s20.79,6.38,20.79,15.88-7.46,15.28-20.66,15.28-20.7-6.25-20.7-15.58ZM188.5,65.92c3.65,0,4.64-1.3,4.64-3.17,0-1.48-.61-2.91-4.69-2.91s-4.64,1.39-4.64,2.91c0,1.87,1.04,3.17,4.69,3.17Z"/>
      </g>
    </g>
  </g>
</svg>