<?xml version="1.0" encoding="UTF-8"?>
<svg id="Capa_1" xmlns="http://www.w3.org/2000/svg" version="1.1" viewBox="0 0 64 64">
  <!-- Generator: Adobe Illustrator 29.8.7, SVG Export Plug-In . SVG Version: 2.1.1 Build 1)  -->
  <path d="M32,0C14.33,0,0,14.33,0,32s14.33,32,32,32,32-14.33,32-32S49.67,0,32,0ZM31.92,60.84c-15.91,0-28.86-12.93-28.86-28.84S16.01,3.15,31.92,3.15s28.84,12.96,28.84,28.86-12.93,28.84-28.84,28.84Z"/>
  <path d="M55.71,31.11c0-7.74-5.36-16.11-13.11-16.11-4.59,0-8.29,3.26-9.48,4.12l-1.11.78-1.13-.78c-1.12-.77-4.16-4.03-9.52-4.03h0c-8.06,0-13.23,8.76-13.23,16.54v.36c0,13.11,10.66,23.8,23.78,23.8h0c13.12,0,23.8-10.67,23.8-23.78,0-.61.05-.32,0-.91ZM42.65,42.25c-2.21,3.8-6.19,6.07-10.66,6.07h0c-4.45,0-8.44-2.27-10.66-6.07-2.15-3.71-2.25-8.19-.26-11.98,1.99-3.8,5.72-6.27,9.98-6.6,4.63-.36,8.89,1.79,11.38,5.75h0c2.5,3.98,2.59,8.78.23,12.83ZM45.45,26.33c-.34.1-.67.14-.97.14-.78,0-1.48-.3-2.01-.86-.81-.87-1.1-2.26-.71-3.4.36-1.03,1.17-1.67,2.29-1.84,2-.3,3.19.97,3.5,2.37.31,1.4-.32,3.08-2.09,3.58ZM36.9,30.18c-1.4-1.21-3.15-1.83-4.9-1.83-1.05,0-2.12.23-3.13.68-2.27,1.01-3.89,3.1-4.35,5.61-.46,2.51.33,5.05,2.13,6.81,1.94,1.91,4.7,2.61,7.37,1.88,2.65-.73,4.65-2.71,5.35-5.32h0c.77-2.89-.17-5.9-2.44-7.83Z"/>
</svg>