<?xml version="1.0" encoding="UTF-8"?>
<svg id="Capa_1" data-name="Capa 1" xmlns="http://www.w3.org/2000/svg" viewBox="0 0 69.28 77.46">
  <defs>
    <style>
      .cls-1 {
        fill: #47b4d2;
      }
    </style>
  </defs>
  <path class="cls-1" d="M64.4,14.95c-3.15-2.76-6.35-3.32-8.45-3.32-1.89,0-3.53.42-5,1.05C49.45,5.04,44.06.01,37.14.01c-1.41,0-2.85.24-4.28.66-5.3,1.62-8.03,5.78-9.68,9.82-1.83-1.53-4.22-2.7-7.4-2.7-2.25,0-4.49.66-6.71,1.92C-3.27,16.77.51,43.49.66,44.6c2.97,19.95,14.65,32.86,29.8,32.86,10.96,0,21.24-6.89,28.91-19.38.18-.3,18.36-31.48,5.03-43.13ZM51.7,53.38c-6.29,10.27-14.05,15.1-21.24,15.1-9.8,0-18.51-8.99-20.91-25.16-.78-5.33-1.26-22.8,4.01-25.82.84-.48,1.59-.72,2.22-.72,4.1,0,4.07,9.05,8.75,9.05.57,0,1.2-.15,1.95-.45,4.07-1.71,3.27-14.38,8.99-16.12.6-.18,1.17-.27,1.68-.27,3.27,0,4.82,3.38,5.18,6.59.39,3.38-1.62,8.48.54,10.6,1.02,1.05,1.95,1.44,2.85,1.44,3.71,0,6.5-7.01,10.24-7.01.78,0,1.62.33,2.55,1.11,5.75,5.06-3.35,26.06-6.8,31.66h0Z"/>
</svg>