<?xml version="1.0" encoding="UTF-8"?>
<svg id="Capa_1" xmlns="http://www.w3.org/2000/svg" version="1.1" viewBox="0 0 218.64 236.66">
  <!-- Generator: Adobe Illustrator 29.8.6, SVG Export Plug-In . SVG Version: 2.1.1 Build 1)  -->
  <defs>
    <style>
      .st0 {
        fill: #141127;
      }
    </style>
  </defs>
  <path class="st0" d="M199.63,213.56c-3.41-.98-6.67-1.2-10.19-2.45-19.92-7.05-23.78-22.13-27.05-38.66,0-.06-.02-.13-.03-.19-.37-1.85-.72-3.74-1.1-5.63-.91-4.59-1.92-9.24-3.34-13.8-2.56-8.25-9.31-25.12-19.19-26.21-3.52-.38-5.56,1.22-8.73,1.84-2.8.54-5.6.46-8.35,1.5-2.75,1.06-4.3,2.97-6.08,5.18-12.54,1.77-26.11,1.77-37.7-3.15-2.83-1.2-6.86-4.48-9.26-9.67-.4-.88-.83-2.38-1.18-4.33.51-.35.98-.75,1.41-1.23l4.68-5.18c2.81-3.12,2.81-7.85,0-10.97l-4.68-5.2c-.18-.19-.37-.38-.56-.56,1.69-6.48,4.91-12.81,10.52-17.49,7.5-6.24,15.46-6.65,21.81-5.39,6.12,1.23,12.15,3.36,18.02,5.45,2.21.8,6.25,2.05,8.14,3.13,1.22.7,3.66,4.64,4.43,6.03,6.44,11.58,5.96,25.69.75,37.64l.05-.05c3.21-1.07,6.56-1.42,9.83-.45.77.22,2.64,1.25,3.25,1.2,1.04-.1,5.12-2,6.33-2.56,6.94-3.17,14.26-7.59,20.24-12.33.5-.38,2.72-2.08,2.88-2.45.51-1.22-.61-3.26-.27-4.6.1-.26,2.16-1.3,2.64-1.71,1.5-1.36,3.15-6.46,3.85-8.57,1.38-4.22,1.73-8.17-.83-12.01-.45-.67-1.66-1.79-1.74-2.43,1.12-6.06,1.34-12.3.64-18.39-.27-2.35-.69-4.68-1.25-6.97-.03-.14-.06-.29-.11-.43-2.21-8.84-6.57-17.06-13.29-23.55-.08-.45,1.57-1.41,1.95-1.76,12.2-11.02,1.01-30.41-14.61-26.45-6.99,1.76-12.49,9.08-11.43,16.37l-.21.42c-14.29-1.2-28.46,2.91-39.94,11.37-5.29,3.9-9.67,8.7-13.83,13.78-3.26.51-6.08.78-8.7,2.96-2.3,1.9-5.18,8.51-6.32,11.45-1.02,2.67-1.63,5.08-.61,7.9.16.4.56.99.82,1.55.21.42.34.8.26,1.07-.08.29-1.47,1.89-1.79,2.37-2.01,2.96-3.85,6.08-5.37,9.34-1.28,2.8-2.33,5.69-3.05,8.68-.14.56-.59,2.32-.69,2.83-.13.74-.26,1.47-.37,2.29-.7.24-1.41.56-2.05.99l-11.32,7.55c-3.18,2.13-3.18,6.8,0,8.91l11.32,7.55c.66.45,1.36.77,2.09,1.01.4,2.14.9,4.25,1.49,6.33.11.35.21.53.16.54-3.63.29-6.41,3.44-6.78,6.99-.26,2.62.93,4.51-.62,6.88-1.95,2.99-3.9,4.22-3.49,8.49.08.91,1.01,2.86.88,3.28-.21.67-2.48,2.75-3.07,3.45-7.88,9.34-14.28,20.29-16.39,32.47-1.01-.13-1.17-1.38-1.63-2.03-1.79-2.61-5.36-4.13-8.31-2.48-.72.42-1.81,1.73-2.4,1.73-.74,0-.86-.72-1.28-1.07-1.76-1.54-2.96-2.25-5.4-1.65-2.45.61-4.16,2.61-4.96,4.92-.38,1.15-.4,3.25-1.52,3.61-2.24.72-3.18.1-5,2.29-4.75,5.74.93,18.58,4.88,23.76,4.38,5.74,12.71,9.91,19.63,6.09,2.38-1.33,4-3.33,5.23-5.72,1.28-.75,12.3,5.53,14.37,6.38,2.88,1.17,5.95,1.79,8.83,2.93,4.27,11.48,17.24,13.14,26.01,5.48,21.55,1.92,45.6,2.94,66.37-4.09.88-.3,3.82-1.28,4.38-1.74.32-.26.14-.18,0-.38-.64-.99-2.69-2.43-3.65-3.47-9.32-10.01-12.12-24.24-13.13-37.49l-3.33,8.81c-7.21,16.07-22.51,26.32-39.99,27.9-.8.06-2.91.27-3.57.21-.29-.05-.5-.03-.67-.32.56-.99.96-2.13,1.31-3.21,1.73-5.4,4.43-16.33-2.37-19.22-2.13-.9-3.53-.32-5.66-.45-1.55-4.62-4.59-8.25-9.93-6.38-2.62.93-3.68,2.89-5.4,4.86-2.69-1.18-4.33-1.76-7.04-.13-5.55,3.37-6.17,13.7-5.68,19.51-4.64-1.42-9.19-4.22-11.85-8.39-4.84-7.63-2.49-19.03.45-26.99,3.49-9.4,9.58-17.96,16.44-25.17,10.76,5.48,22.43,8.6,34.36,9.87,1.97.21,3.95.37,5.93.46.16.02.32.02.48.02,11.42.61,22.98-.38,34.12-2.51-1.38-8.25-4.05-17.83-9.47-24.35-.88-1.07-2.83-1.98-1.57-3.5,1.74-2.11,4.64,1.9,5.6,3.23,7.4,10.07,9.13,23.22,10.3,36.06.08.91.16,1.82.24,2.73.46,5.36.9,10.62,1.66,15.53,2.56,16.44,9.34,29.66,25.3,36.3,3.41,1.42,9.9,3.74,13.4,2.49,6.86-4.43,14.57-8.75,21.06-13.7,1.68-1.28,3.84-3.74.58-4.67ZM102.7,51.05c-.13.54-2.46,3.77-2.97,4.75-.75,1.49-1.57,3.49-2.03,5.08-.27.93-.98,5.12-1.33,5.47-.27.27-1.02.29-1.39.21-1.02-.34-.21-3.44,0-4.27.58-2.49,3.98-11.06,6.06-12.28.8-.46,1.84.21,1.66,1.04ZM115.99,59.22c-.86,1.79-1.69,3.9-2.3,5.8-.42,1.3-.78,3.97-1.33,4.99-.46.86-1.6.98-1.89,0-.56-1.97,2.22-8.91,3.15-10.98.45-.99,2.4-5.16,3.28-5.42.66-.19,1.41.1,1.44.85.05.91-1.82,3.68-2.35,4.76ZM133.15,68.67c-.72,1.98-2.22,6.08-3.39,7.67-.9,1.2-2.53.29-2.06-1.07,2.81-4.52,4.32-9.66,5.79-14.74.14-.3.46-.56.78-.61h.02c.7-.11,1.28.48,1.23,1.22-.11,1.55-1.76,5.87-2.37,7.53ZM145.32,78.88c-.3.62-1.58,3.09-1.97,3.44h-.02c-.56.53-1.84.51-2.08-.27-.24-.83,1.41-2.91,1.85-3.81,1.23-2.43,2.05-4.86,2.8-7.45.27-.94.82-4.51,1.58-4.75,1.07-.34,1.47.24,1.44,1.23-.08,2.85-2.32,8.95-3.61,11.61ZM161.35,74.98c-.26,3.31-3.04,11.06-5.16,13.59-.93,1.1-2.25,1.01-2.3-.51,1.74-2.77,3.34-5.61,4.27-8.78.5-1.76.62-4.06,1.12-5.58.14-.45.58-.82,1.02-.94,1.25.18,1.14,1.22,1.06,2.22ZM173.01,82.88c-.24,3.41-2,8.14-3.71,11.08-.21.35-1.07,1.79-1.28,1.97-.72.61-2.06.05-1.89-.98.11-.62,1.71-2.78,2.11-3.63,1.1-2.22,1.89-4.88,2.33-7.32.14-.8.16-3.34.78-3.57,1.85-.62,1.74,1.18,1.65,2.45ZM155,4.09c10.66-.58,16.96,13.42,8.63,20.27-3.44,2.85-4.37.46-7.36-1.34-1.9-1.17-4.17-2.25-6.27-3.01-3.09-1.1-6.25-.58-6.25-4.64,0-6.03,5.4-10.97,11.24-11.29ZM91.02,43.13c.98-.56,5.21.16,6.73.4.05,0,.1.02.13.02,2.29.34,4.57.88,6.86,1.25.26-.11,2.67-3.95,2.73-4.35.05-.22.05-.5.05-.82-.05-1.26-.4-3.09-.43-4.11-.05-1.42-.26-3.76,1.9-2.88l.58,5.34c1.01-1.34,2.03-2.7,3.15-3.95.5-.54,2.03-1.73,2.25-2.09.7-1.12.72-6,1.93-6.76.48-.29,1.25-.05,1.41.51.16.51-.56,2.61-.67,3.39-.03.18-.22.59.21.4.51-.22,2.21-1.69,2.96-2.17.96-.61,2.59-1.3,3.36-1.97,1.28-1.09,1.69-3.57,4.05-3.34l-.3,1.77c1.25-.66,2.73-1.25,4.09-1.63,3.18-.91,5.98-.93,9.23-.34l-11.62,3.36,3.47.78c.5.51.42,1.26-.3,1.49-1.39.46-4.83-.62-6.6-.46-1.45.13-5.02,2.32-6.11,3.37-.18.18-.43.18-.34.56.64-.19,1.42-.32,2.08-.4.61-.06,2.51-.29,2.96-.19,1.14.21,1.26,1.52,0,1.95-2.05.7-5.47.22-7.82,1.06-2.17.78-3.69,3.41-5.16,5.13-.05.05-.08.1-.13.14.85-.03,1.89-.38,2.93-.75,1.14-.4,2.25-.8,3.1-.83.3,0,.54.06.72.19.34.24.43.69.27,1.2-.19.37-1.28.72-1.71.88-1.85.69-6.08,1.31-7.47,2.19-.42.27-2.17,2.91-2.37,3.6-.02.06-.02.1-.02.13l.13.03,22.56,6.8c.21-1.04.91-2.13,1.1-3.15.34-1.82-1.42-5.21-1.93-7.16-.34-1.33-.78-2.96,1.25-2.05l2.16,5.45,2.53-5.68c-.02-.21-.05-.48-.11-.8-.1-.5-.24-1.09-.38-1.73-.43-1.87-.94-4.03-.56-4.83.22-.45.9-.51,1.3-.3.75.38.69,3.77,1.28,4.64.24-.21.46-.45.66-.72.83-1.23,2.46-3.69,2.4-5.1-.05-1.15-1.17-5.02.53-5.18,1.41-.13.8,2.89,1.34,3.69,1.41-1.07,4.43-5.47,6.12-5.53.43-.02.83.21,1.28.21.06.3-.03.46-.19.7-.66,1.01-2.73,2.57-3.66,3.63-.45.51-.88,1.12-1.28,1.68,1.17.14,3.17-.96,4.21-.32.38.35.37.82.03,1.2-.9,1.01-4.83,1.12-6.19,1.89-1.23.69-2.43,3.6-3.37,4.73l5.26-1.87c.77.05,1.34.7.85,1.45-.38.58-1.28.91-2.35,1.25-.64.18-1.34.37-2.03.59-.03.02-.06.02-.1.03h-.02c-1.49.45-2.91,1.07-3.61,2.25-.38.62-1.77,3.74-1.93,4.38-.11.42-.03.26.19.19,1.36-.42,4.65-2.29,5.8-2.06.46.08.75.4.72.88-.02.11-.06.19-.11.29-.42.91-6.59,3.04-7.75,3.81l-1.63,4.29,18.95,8.3,1.15-4-3.33-8.35c.11-.61.67-.83,1.25-.66.98.29,2.21,4.96,3.01,5.88.43-1.5,1.73-4.73,1.44-6.17-.38-1.87-2.93-4.84-3.57-6.72-.06-.19-.1-.38-.08-.54.02-.13.03-.24.08-.34.02-.03.03-.06.05-.1.24-.45.82-.61,1.34-.3.08.06.26.32.48.72.02.05.05.1.08.14.14.24.29.51.45.8.62,1.25,1.36,2.8,1.6,3.23.24.05.26-.21.3-.4.1-.4.21-1.1.3-1.89.05-.32.08-.66.11-.99,0-.05,0-.1.02-.14.06-.98.11-1.9,0-2.37-.32-1.61-3.82-4.62-3.9-6.17-.02-.26-.03-.64.19-.8,1.3-.91,2.59,2.69,3.57,3.09-.11-.9-.1-1.97-.22-2.85-.21-1.6-1.15-3.93-1.17-5.34,0-.69,1.34.35,1.6.58,1.61,1.45,1.61,6.28,1.97,8.39.53-.46,2.86-3.63,3.15-1.47.19,1.38-2.43,3.61-3.12,4.78l-.27,2.72-.02.14-.13,1.25-.21,2.06c.51-.08,1.12-.69,1.74-1.3.42-.42.83-.83,1.25-1.09.06-.05.11-.08.18-.11.37-.21.72-.27,1.04-.06.19.14.43.42.43.64t.02.03s0,.1-.03.14c-.08.37-.5.86-1.06,1.41-1.33,1.3-3.47,2.81-4.05,3.5-.27,1.93-1.26,4.14-1.49,6.01-.03.27-.02.38.29.29,1.34-.4,3.52-2.91,4.84-2.27,1.31.64-1.07,2.19-1.6,2.56-1.06.74-3.65,1.81-4.33,2.57-.34.4-1.63,3.98-1.55,4.3l14.49,8.62c.27-.02.98-2.65,1.02-3.1.26-2.14-1.71-4.65-2.54-6.62-.43-1.06-1.34-2.64.5-2.67,1.06.3,1.74,4.05,2.89,4.72.08-2.21.72-4.81.38-7-.26-1.68-3.58-4.92-4.22-6.64-.18-.48-.22-.98.16-1.38l.02-.02c.24-.21.4-.22.69-.08.37.18.8.75,1.23,1.42.58.86,1.14,1.87,1.52,2.3.16.19.27.29.42.03-.05-.34-.1-.69-.14-1.02-.19-1.25-.37-2.49-.62-3.73-.02-.1-.03-.18-.06-.27-.11-.61-.26-1.23-.42-1.84-.72-2.69-2.01-5.2-2.8-7.83-.06-.21-.24-.67,0-.8,3.15,3.29,4.75,7.42,5.6,11.78.03.1.05.21.06.3.26,1.39.43,2.8.56,4.22v.08l.03-.05,1.25-1.53c1.07,1.1.8,2,.22,2.8-.53.75-1.31,1.41-1.47,2.08-.22,1.02.05,2.59-.03,3.69-.11,1.49-.37,2.99-.59,4.44,1.07-.05,3.07-2.78,4.06-1.98.88.7-.4,1.81-.9,2.29-.85.82-3.17,2.08-3.65,2.88-.69,1.15-.74,3.31-1.25,4.6.14.75,4.84,3.23,5.48,4.35.26.45.34.99,0,1.41l-1.33-.06c-20.48-14.69-44.26-25.23-69.09-30.32-.11-.02-.21-.05-.32-.06-3.04-.61-6.08-1.15-9.15-1.6-1.1-.16-2.21-.3-3.31-.45-1.06-.21-.75-1.33,0-1.74ZM79.97,60.72c.48-2.27,1.3-4.6,2.33-6.76.48-1.02,1.02-2.01,1.6-2.94.5-.8,1.95-3.15,2.8-3.33.56-.13,1.23.11,1.39.69.06.26-.26.82-.66,1.42-.58.85-1.33,1.81-1.57,2.21-1.55,2.56-2.78,5.6-3.57,8.47-.29,1.02-.4,4.48-1.89,4.06-1.49-.4-.67-2.75-.45-3.82ZM27.73,211.96c-2.17,6.46-7.36,8.14-12.9,4.01-4.37-3.25-9.64-12.3-8.99-17.62.64-5.31,5.87,1.93,7.56-1.12.85-1.52-2.03-8.83.64-9.61,1.73-.51,2.48.82,3.15,2.09.69,1.26,1.6,4.99,3.02,5.28,2.46.51,2.62-6.48,4.49-6.99,1.23-.34,2.46,1.63,2.93,2.53,2.61,5.23,1.93,15.96.1,21.43ZM60.14,202.51c2.65-3.84,3.98,2.59,5.18,3.63,2.73,2.32,4.11-4.48,4.7-5.98.58-1.49,2.54-5.05,4.49-3.01,1.92,2.01-.24,8.68,1.02,10.11h.02v.02c2.08,2.21,5.32-3.36,7.2-3.68,2.3-.38,2.51,3.69,2.4,5.18-.69,8.14-11.05,28.41-21.39,19.84-5.16-4.27-7.21-20.93-3.61-26.11ZM67.27,137.8c-.06.32-.1.64-.13.96-.14,1.28-.16,2.61-.42,3.84-.66,3.33-3.44,6.2-3.61,9.8-.54,1.3-2.67.58-2.96-.69-.64-2.78,2.48-6.43,3.25-8.89.48-1.49.56-5.92,1.6-8.52.4-1.06.96-1.81,1.76-1.95h.02c.75-.14,1.84.43,1.84,1.25-.4,1.47-1.06,2.65-1.34,4.21ZM79.71,141.37c-.32,1.58-.42,3.18-.66,4.78-.02.19-.05.38-.08.58-.05.34-.11.69-.19,1.02-.38,1.79-1.09,3.57-1.65,5.34-.06.24-.14.46-.21.7-.29,1.01-.48,3.6-1.3,4.03-.8.45-1.92.46-2.33-.51-.62-1.42.43-4.49,1.38-7.12.48-1.38.94-2.62,1.12-3.45.3-1.42.37-2.91.53-4.37.02-.22.05-.43.1-.66.02-.26.05-.53.1-.78.22-1.25.62-3.9,2.09-4.24,3.33-.77,1.42,3.04,1.1,4.67ZM96.42,142.47c-.1,5.82-.27,11.59-1.23,17.33-.45,2.75-3.41,2.32-3.31.06.13-3.02.99-6.27,1.18-9.29.19-2.89-.16-5.96.22-8.86.1-.8.66-1.89,1.5-2.06.85-.18,1.73.38,1.84,1.26.06.56-.21,1.02-.21,1.55ZM112.81,160.46c-.22,2-2.93,2-3.17,0-.3-2.64-.03-6.14-.18-8.91-.11-2.08-.54-4.21-.62-6.3-.03-1.06-.32-4.88.75-5.2,3.02-.91,2.3,2.67,2.43,4.4.35,4.78,1.33,11.38.78,16.01ZM147.86,206.91c-1.45-.21-2-2.3-.66-2.99,6.35-1.57,12.68-3.36,18.66-6.04,1.6.08,2.83,1.81,1.22,3.02-1.74,1.28-8.39,3.34-10.74,4.06-1.76.54-6.92,2.19-8.47,1.95ZM181.08,213.53c-.88.96-4.43,3.13-5.71,3.93-3.13,1.95-8.86,5.12-12.33,6.03-1.87.5-3.36-.45-2.32-2.37,6.27-2.7,12.33-5.87,17.88-9.9.77-.59,2.08-.19,2.64.5.45.58.3,1.3-.16,1.81Z"/>
  <path class="st0" d="M200.85,164.11c-.09.34.14.4.29.59,4.31,5.58,16.34,13.78,17.07,21.02.71,7.05-5.46,10.24-11.44,11.45-8.72,1.76-17.95.24-26.45-1.88l-1.69,5.72c-12.2-11.15-12-29.02-15.86-43.99,9.56-4.22,18.55-10.31,24.35-19.17,6.65,4.96,15.07,5.92,22.9,3.36,2.56-.84,6.66-3.87,8.08,0,1.06,2.87-.51,10.9-1.34,14.05-.59,2.25-2.39,7.9-4.19,9.23-2.46,1.82-8.82.03-11.74-.39h.02ZM202.16,146.21c-.28.02-.59.17-.83.32-.74,1.78-.61,3.84-1.09,5.82-.48,1.98-1.39,3.9-2.12,5.79.29,1.7,2.1,2.35,3.15.78,1.15-1.7,2.59-6.65,2.74-8.72.12-1.68.47-4.13-1.86-3.99h0Z"/>
  <path class="st0" d="M147.95,127.4c6.98-2.37,13.8-6.1,19.88-10.22,2.07-1.4,4.95-4.11,6.9-5.14,4.47-2.37,6.68,2.78,6.97,6.39.12,1.48-.21,3.16.13,4.61.32,1.36,1.87,2.85,2.52,4.19,3.49,7.25-3.79,14.3-8.97,18.41-4.15,3.28-8.79,5.83-13.5,8.21-1.36-3.18-2.24-6.63-3.55-9.86-2.14-5.26-5.15-10.51-8.88-14.81-.24-.28-1.72-1.51-1.49-1.77h0ZM169.6,120.33c-.63.14-1.33.96-1.28,1.61.04.49,1.3,2.03,1.62,2.7.83,1.71,1.06,3.77,1.84,5.46.91,1.97,2.53,3.61,3.48,5.79.37.85.48,2.53,1.43,2.73,1.54.32,1.93-1.75,1.74-2.94-.48-3.03-2.69-4.53-3.83-7.03-.57-1.24-.78-2.61-1.26-3.87-.56-1.47-1.76-4.9-3.75-4.45h.02ZM161.3,125.68c-1.07.06-1.75.92-1.47,1.97.12.45,1.58,2.56,1.97,3.37,1.26,2.68,3.05,6.88,3.97,9.65.58,1.77.58,5.81,3.11,5,1.58-.5.81-2.76.53-3.9-.65-2.61-4.69-12.82-6.18-14.75-.42-.54-1.2-1.38-1.93-1.34h0Z"/>
  <path class="st0" d="M95.8,92.91c2.71-.24,4.8.19,7.05,1.72,2.65,1.8,7.96,7.65,4.61,10.74-2.74,2.54-5.1-2.37-6.8-3.82-2.21-1.9-5.36-2.49-7.86-.76-2.04,1.42-2.77,4.63-5.91,4.06s-2.24-4.05-1.17-6.01c1.97-3.56,6.11-5.57,10.06-5.93h0Z"/>
</svg>