<?xml version="1.0" encoding="UTF-8"?>
<svg id="Capa_1" xmlns="http://www.w3.org/2000/svg" version="1.1" viewBox="0 0 121.07 118.27">
  <!-- Generator: Adobe Illustrator 29.8.7, SVG Export Plug-In . SVG Version: 2.1.1 Build 1)  -->
  <defs>
    <style>
      .st0 {
        fill: #141127;
      }
    </style>
  </defs>
  <path class="st0" d="M72.3,33.62c2.49-.24,4.88.82,6.34,2.87.82,1.16,1.99,4.03-.1,4.5-1.89.41-2.06-1.83-3.31-2.76-1.44-1.08-3.32-.98-4.74.1-1.14.88-1.14,3.27-3.18,2.61-2.18-.7-.68-3.58.28-4.76,1.18-1.45,2.84-2.37,4.71-2.55h0Z"/>
  <path class="st0" d="M62.96,42.11c1.93,1.93,1.38,5.18-1.08,6.37l-3.22,1.55c-1.49.72-3.22.72-4.71,0l-3.23-1.55c-2.45-1.19-3.01-4.44-1.08-6.37l3.46-3.46c1.77-1.77,4.64-1.77,6.4,0,0,0,3.46,3.46,3.46,3.46Z"/>
  <path class="st0" d="M45.75,37c.74,1.28,1.61,3.64-.55,3.99-1.77.29-1.55-.82-2.2-1.81-1.2-1.86-4.13-2.31-5.76-.75-.64.62-.84,1.7-1.27,2.18v-.02c-.73.81-2.64.45-2.88-.63-.57-2.53,2.42-5.42,4.65-6.07,3.05-.89,6.4.33,8.01,3.11Z"/>
  <path class="st0" d="M34.66,99.81c-.58.65-1.56.54-2.18-.03-.71-.65-.65-2.01-.98-2.93-.43-1.24-1.64-2.98-3.11-1.91-1.87,1.36.7,5.74-1.97,5.85-1.52.06-1.64-2-2.98-2.22-2.18-.35-1.71,3.22-1.48,4.47.88,4.67,4.76,11.59,10.25,11.35,5.49-.23,6.82-8.71,6.42-13.12-.07-.86-.63-3.38-1.38-3.83-1.73-1.07-2.03,1.75-2.58,2.37,0,0,0,0,0,0ZM114.01,23.39c7.15-1.73,7.39,9.32,6.91,13.79-1.46,13.55-9.65,25.02-20.56,32.7,2.2,11.14,2.39,25.28-3.92,35.18-1.28,2-2.21,3.45-3.4,5.54-3.18,5.58-9.69,10.03-16.05,6.3-.55-.33-2.02-1.71-2.16-1.73-.3-.06-4.07.77-4.85.87-7.78.94-16.74,1.01-24.55.2-2.26-.24-4.57-.85-6.8-.83-5.99,5.6-13.38,2.16-17.32-3.91-1.12-1.72-2.19-3.59-3.24-5.34-2.88-4.77-4.79-9.79-5.14-15.44-2.44,2.53-7.09,6.51-10.7,3.91-4.8-3.46-.64-15.24,1.36-19.68,3.71-8.18,9.55-15.48,15.46-22.16.08-.29.05-.58.02-.88-.23-2.09-1.17-4.65-1.45-6.93C15.23,26.04,25.11,8.4,43.39,2.26c17.22-5.79,35.9-.34,45.79,15.11,4.79,7.46,6.71,16.47,5.88,25.31v.02c1.21-1.1,2.36-2.32,3.44-3.54,3.49-3.92,10.75-14.63,15.51-15.77ZM89.25,109.42c1.14-1.88,4.19-8.89,2.26-10.57-2.04-1.79-3.16,3.54-5.22,1.49-.72-.71-.05-2.42-.17-3.55-.14-1.24-.81-2.55-2.29-2.1-1.91.57-1.64,4.81-3.01,5.37-2.53,1.06-1.93-3.99-4.31-2.62-1.75,1-1.59,6.83-1.33,8.61,1.38,9.37,9.09,11.48,14.07,3.37ZM79.22,55.27c5.21-4.61,8.66-11.36,8.39-18.44-.57-14.77-15.7-23.7-27.84-13.68-.54.45-2.98,3.09-3.2,3.14-.65.12-1.35-1.2-1.73-1.56-16.57-15.52-36.21,3.07-27.98,21.83,1.72,3.9,4.58,7.19,7.98,9.7.35.27,1.38.66,1.37,1.06,0,.3-2.74,3.81-3.18,4.47-4.85,7.44-8.35,18.28-7.44,27.19.11,1.04.38,2.06.56,3.07,2.72-2.16,6.8-.97,8.02,2.23,1.67-.51,2.61-1.1,4.4-.4,4.23,1.66,4.18,9.51,3.79,13.25,9.49,2.17,19.58,2.36,29.01-.2-.14-2.76-.42-5.5.27-8.21.95-3.76,3.71-6.48,7.68-4.47,1.57-3.01,4.81-4.22,7.9-2.56v-.02h.01c1.75-11.03-1.78-22-7.96-31.04-.35-.5-2.47-3.1-2.47-3.31,0-.4,1.97-1.64,2.42-2.05h0Z"/>
</svg>