<?xml version="1.0" encoding="UTF-8"?>
<svg id="Capa_1" xmlns="http://www.w3.org/2000/svg" version="1.1" viewBox="0 0 287.1 308.87">
  <!-- Generator: Adobe Illustrator 29.8.7, SVG Export Plug-In . SVG Version: 2.1.1 Build 1)  -->
  <defs>
    <style>
      .st0 {
        fill: #141127;
      }
    </style>
  </defs>
  <g>
    <path class="st0" d="M280.89,244.06c-13.26-15.32-36.56-31.19-40.8-53.03-2.45-12.58-.53-23.25-4.77-36.8-3.36-10.76-8.78-19.89-15.56-27.3-17.53-19.28-44.07-26.97-66.58-21.29-17.93,4.51-33.31,17.51-39.54,39.9-.05.22-.13.47-.18.8,0,.04-.02.05-.02.09-1.48,5.26-1.92,7.89-2.36,11.1-.16,1.19-.27,2.25-.35,3.23l-11.63,7.76c-3.62,2.43-3.62,7.76.02,10.19l12.93,8.6c.95.62,1.97,1.06,3.01,1.31.57,1.15,1.21,2.7,1.88,4.33.33.79.68,1.59,1.04,2.37-14.17-.84-29.78-5.51-37.22-18.7,7.8-31.5,14.85-63.11,22.3-94.69.26-1.1.27-4.57,2.05-4.4,11.58,3.4,21.18,8.18,29.38,17.39,3.52,4.64,4.73,4.91,9.35,1.42,15.07-8.53,34.2-5.94,46.84,5.68,2.43,2.19,6.35,7.36,7.65,1.39-3.27-36.69-29.16-67.75-62.02-83.07-5.04-2.37-10.34-4.66-15.76-5.88-.99-.22-1.39-.66-1.31-1.7.18-2.34,1.7-6.78,1.52-8.91-1.1-5.75-7.3-4.62-8.44.46-.35,1.1-.86,3.05-1.11,4.2-.26,1.21-.04,3.65-1.39,3.93-33.2-4.25-68.46,5.72-92.73,29.05-5.19,4.2-30.41,33-7.87,22.86,17.66-6.03,36.07,2.34,45.65,17.53.27.16.8.37,1.13.38,1.86.18,5.11-2.63,6.92-3.47,7.76-3.54,25.42-5.95,33.04-2.54l-22.26,95.95c-14.52-6.59-15.89,17.04-12.14,25.91.42,1.26,1.73,2.41.2,3.58-3.54,2.72-7.47,1.31-10.04-1.88-2.85-3.54-.77-6.98-2.52-10.57-1.55-3.16-5.72-4.42-8.24-1.61-3.07,3.47-2.15,11.3-.29,15.25,4.66,10.03,18.02,13.53,27.17,7.91,1.19.33,2.9,3.76,3.71,4.86,5.08,6.46,11.43,13.28,18.79,17.15-3.16,5.46-5.68,11.27-7.36,17.37-.31,1.13-1.31,1.77-2.34,1.77-.58,0-1.17-.2-1.64-.64-1.88-1.7-4.84-2.39-7.29-1.59-1.24.4-2.41,2.36-3.34,2.19-1.61-.27-2.89-4.69-8.33-2.52-5.04,2.03-4.78,8.31-5.37,8.78-.82.68-3.82-.53-6.5,3.27-4.86,6.94,2.1,22.24,7.49,27.68,7.45,7.52,19.01,8.93,24.69-.37.58-.93,1.73-1.33,2.78-.97,4.84,1.66,9.15,4.58,13.82,6.65,2.32,1.02,7.76,2.1,9.4,3.18.89.58,1.59,3.18,2.54,4.38,6.98,8.84,17.11,8.75,25.44,2.15.47-.38,1.08-.57,1.68-.49,18.88,2.06,38.68,2.37,57.41-.91,22.64-3.96,45.36-15.32,50.88-39.48h.04c9.53,3.58,34.92,6.08,40.43-4.6,2.89-5.61-.29-10.45-3.89-14.61v.02ZM123.2,21.45c17.02,16.56,24.27,44.81,18.79,67.73-.62,1.04-2.08,1.02-2.03-.35,3.69-24.51-3.4-48.5-18.24-67.62.47,0,1.08-.09,1.48.24ZM59.47,69.82c-.6,1.41-1.17,4.18-3.4,3.09-.33-.35-.18-1.19-.13-1.66,5.33-20.27,26.39-50.6,48.3-53.62.82,1.26-1.44,1.39-2.28,1.72-19.8,8.66-35.66,30.55-42.49,50.47ZM74.54,285.9c-9.28,10.15-22.83-10.12-21.71-19.19.73-5.9,6.41,2.94,8.56-1.55.46-.99-2.65-9.02.64-10.04v-.02c3.58-1.1,4.2,7.56,6.37,8.11,3.67.93,2.68-11.32,7.16-6.57,4.42,4.69,3.62,24.21-1.02,29.27h0ZM130.34,298.24c-6.54,6.48-14.37,4.88-17.79-3.69-1.94-4.88-3.25-18.32-.44-22.72,3.07-4.78,4.91,2.68,5.86,3.45,4.2,3.41,4.46-8.97,7.71-10.06,5.62-1.88,1.94,10.01,3.63,11.32,3.73,2.89,6.74-7.16,9.75-2.83,3.29,4.69-4.82,20.65-8.73,24.53h0ZM142.31,292.23c2.36-6.5,7.09-20.45-.82-24.67-2.98-1.61-6.43-.31-6.72-.51-.2-.15-1-3.31-2.01-4.62-3.29-4.31-8.47-3.91-12.22-.44-.82.75-1.99,2.99-2.56,3.14-.64.15-2.3-1.35-4.25-1.21-7.72.58-10.04,11.52-9.84,19.05.04,1.73-1.81,2.87-3.4,2.14-13.46-6.28-14.41-18.96-10.28-33.29,4.86-16.95,19.17-33.98,33.36-44.08.49-.35,1.3-.8,2.19-1.3,2.1-1.17,4.71-2.57,4.95-3.56.66-2.67-2.45-5.17-4.04-7.4-1.61-2.25-3.07-5-4.11-8.25.58-.4,1.11-.86,1.61-1.41l5.35-5.94c3.23-3.56,3.23-8.97.02-12.53l-5.37-5.94c-1-1.11-2.21-1.94-3.54-2.43.55-2.61,1.31-5.15,2.26-7.56v-.02c.8-2.34,1.73-4.57,2.28-5.66,13.11-26.44,49-28.67,64.23-2.92.18.31.37.64.55.95,9.73,17.35,5.92,36.61-4.97,52.41-.55.79-.55,1.81-.04,2.59.33.51.66,1.02.97,1.53,4.44,7.18,7.38,14.92,8.89,22.72,6.56,33.4-12.8,68.3-52.5,69.19v.02Z"/>
    <path class="st0" d="M144.63,163.6c-2.63,2.15-6.15-.17-5.21-3.59,1.82-6.64,9.9-9.97,16.27-8.67,4.34.89,12.92,9.6,8.62,13.36-4.47,3.91-5.55-5.96-12.26-5.96-4.7,0-5.11,2.96-7.42,4.86h0Z"/>
  </g>
  <g>
    <path class="st0" d="M213.06,86.93c-.21,0-.41-.02-.62-.07-1.47-.34-2.39-1.81-2.05-3.29l5.11-22.05c.34-1.47,1.81-2.39,3.29-2.05,1.47.34,2.39,1.81,2.05,3.29l-5.11,22.05c-.29,1.27-1.42,2.12-2.67,2.12Z"/>
    <path class="st0" d="M18.27,30.35c-.21,0-.41-.02-.62-.07-1.47-.34-2.39-1.81-2.05-3.29l2.97-12.82c.34-1.47,1.81-2.39,3.29-2.05,1.47.34,2.39,1.81,2.05,3.29l-2.97,12.82c-.29,1.27-1.42,2.12-2.67,2.12Z"/>
    <path class="st0" d="M183.6,39.08c-.21,0-.41-.02-.62-.07-1.47-.34-2.39-1.81-2.05-3.29l2.87-12.4c.34-1.47,1.81-2.39,3.29-2.05,1.47.34,2.39,1.81,2.05,3.29l-2.87,12.4c-.29,1.27-1.42,2.12-2.67,2.12Z"/>
  </g>
</svg>