<?xml version="1.0" encoding="UTF-8"?>
<svg id="Capa_1" xmlns="http://www.w3.org/2000/svg" version="1.1" viewBox="0 0 231.69 209.78">
  <!-- Generator: Adobe Illustrator 29.8.6, SVG Export Plug-In . SVG Version: 2.1.1 Build 1)  -->
  <defs>
    <style>
      .st0 {
        fill: #fff;
      }

      .st1 {
        fill: #141127;
      }
    </style>
  </defs>
  <g>
    <path class="st0" d="M136.97,171.46c-.45-.12-1.01-.03-1.71.37-3.08,1.75-2.8,11.94-2.34,15.05.07.44.14.87.23,1.31-.1-.44-.17-.87-.24-1.33-.45-3.11-.73-13.3,2.34-15.05.72-.42,1.28-.49,1.73-.35Z"/>
    <path class="st0" d="M144.14,174.67c-.33.86-.75,1.5-1.35,1.75-.42.17-.79.24-1.1.24.31,0,.68-.09,1.08-.26.59-.24,1.01-.89,1.36-1.73Z"/>
    <path class="st0" d="M149.36,166.88c-.38-.03-.84-.02-1.33.14-.19.05-.37.14-.54.24-.1.07-.23.14-.33.24-.05.02-.09.07-.12.1v.02s-.07.05-.09.07c-.03.02-.07.05-.09.09-.07.05-.14.12-.19.19-.14.19-.28.38-.4.61-.1.17-.21.35-.3.54-.03.07-.07.16-.09.23-.14.26-.24.52-.33.8-.14.35-.26.72-.37,1.08.56-1.94,1.29-3.79,2.83-4.25.49-.14.94-.17,1.35-.12Z"/>
    <path class="st0" d="M160.34,173.68c-.68-.14-1.31.14-1.9.59.59-.49,1.22-.75,1.9-.59Z"/>
    <path class="st1" d="M138.95,65.3c1.43,2.03,3.48,7.06-.17,7.86-3.3.73-3.6-3.2-5.78-4.82-2.5-1.89-5.8-1.71-8.28.17-1.99,1.54-1.97,5.71-5.56,4.56-3.81-1.22-1.19-6.26.51-8.32,2.06-2.53,4.96-4.14,8.23-4.46,4.37-.44,8.53,1.42,11.06,5Z"/>
    <path class="st1" d="M111.57,75.12c3.37,3.37,2.39,9.07-1.9,11.13l-5.63,2.71c-2.6,1.26-5.63,1.26-8.23,0l-5.63-2.71c-4.3-2.06-5.26-7.76-1.89-11.13l6.03-6.05c3.09-3.09,8.11-3.09,11.2,0l6.05,6.05Z"/>
    <path class="st0" d="M42.92,173.9c-.12-.05-.26-.09-.4-.1-3.83-.61-3.01,5.63-2.59,7.81.07.33.14.66.21,1-.09-.35-.16-.68-.23-1.01-.42-2.18-1.24-8.42,2.59-7.81.16.02.3.07.42.12Z"/>
    <path class="st0" d="M45.85,194.74c-.37-.45-.7-.93-1.01-1.42.26.4.54.79.84,1.15.05.09.1.17.17.26Z"/>
    <path class="st0" d="M53.44,166.98c-.7-.23-1.47-.12-2.27.47-3.27,2.38,1.22,10.03-3.44,10.22h-.19c-.07,0-.16,0-.24-.02-.02,0-.03-.02-.05-.02.14.02.3.02.47.02,4.67-.19.17-7.85,3.44-10.22.82-.59,1.59-.7,2.29-.45Z"/>
    <path class="st0" d="M65.69,171.42c-2.2-.35-2.69,3.58-3.57,4.54-.09.1-.19.19-.3.26.1-.09.19-.17.28-.28.87-.96,1.36-4.93,3.58-4.53Z"/>
    <path class="st1" d="M64.38,72.46c-1.28,1.43-4.6.79-5.03-1.1-1-4.4,4.23-9.47,8.14-10.59,5.33-1.57,11.17.58,13.98,5.42,1.29,2.24,2.81,6.36-.94,6.97-3.11.51-2.73-1.43-3.84-3.16-2.11-3.25-7.24-4.04-10.07-1.31-1.14,1.08-1.47,2.97-2.22,3.81v-.03h-.02Z"/>
    <path class="st1" d="M158.43,174.27c.59-.45,1.22-.73,1.9-.59-.68-.16-1.31.1-1.9.59ZM148.02,167c-1.54.45-2.27,2.31-2.83,4.25.1-.37.23-.73.37-1.08.09-.28.19-.54.33-.8.02-.07.05-.16.09-.23.09-.19.19-.37.3-.54.12-.23.26-.42.4-.61.05-.07.12-.14.19-.19.03-.03.05-.07.09-.09.02-.02.05-.05.09-.07v-.02s.07-.09.12-.1c.1-.1.23-.17.33-.24.17-.1.35-.19.54-.24.49-.16.94-.17,1.33-.14-.4-.05-.86-.02-1.35.12ZM142.77,176.4c-.4.17-.77.26-1.08.26.31,0,.68-.07,1.1-.24.59-.24,1.01-.89,1.35-1.75-.35.84-.77,1.49-1.36,1.73ZM135.24,171.81c-3.08,1.75-2.8,11.94-2.34,15.05.07.45.14.89.24,1.33-.09-.44-.16-.87-.23-1.31-.45-3.11-.73-13.3,2.34-15.05.7-.4,1.26-.49,1.71-.37-.45-.14-1.01-.07-1.73.35ZM62.1,175.95c-.09.1-.17.19-.28.28.1-.07.21-.16.3-.26.87-.96,1.36-4.89,3.57-4.54-2.22-.4-2.71,3.57-3.58,4.53ZM51.15,167.44c-3.27,2.38,1.22,10.03-3.44,10.22-.17,0-.33,0-.47-.02.02,0,.03.02.05.02.09.02.17.02.24.02h.19c4.67-.19.17-7.85,3.44-10.22.8-.59,1.57-.7,2.27-.47-.7-.24-1.47-.14-2.29.45ZM44.84,193.32c.31.49.65.96,1.01,1.42-.07-.09-.12-.17-.17-.26-.3-.37-.58-.75-.84-1.15ZM39.91,181.59c.07.33.14.66.23,1.01-.07-.33-.14-.66-.21-1-.42-2.18-1.24-8.42,2.59-7.81.14.02.28.05.4.1-.12-.05-.26-.1-.42-.12-3.83-.61-3.01,5.63-2.59,7.81ZM152.39,54.1c-.03.05-.07.09-.12.14.07.17.12.33.17.51.16-.21.35-.4.35-.4-.12-.12-.28-.26-.4-.24ZM152.89,54.44s-.03-.02-.05-.03c.03.03.09.09.16.16-.03-.05-.07-.09-.1-.12ZM164.69,74.25c.87.7,1.75,1.42,2.62,2.08v-.03c-.7-.54-1.59-1.24-2.62-2.04Z"/>
  </g>
  <g>
    <path class="st0" d="M190.26,62.2c.02.37.03.72.05,1.08.02.23-.05.79-.05,1.22.31-.03.65-.03.98-.03.14,0,.3,0,.44.02l-1.42-2.29ZM185.05,63.02c-.37-1.71-.7-3.46-1.01-5.19.61,3.55,1.08,6.34,1.22,7.11l-.21-1.92ZM182.69,49.88l-.05-.09c.23,1.24.44,2.5.65,3.74-.19-1.21-.4-2.43-.59-3.65ZM178.88,57.18c.86,2.6,1.73,5.23,2.66,7.81-.52-1.56-1.52-4.49-2.66-7.81ZM167.31,76.3c-.7-.54-1.59-1.24-2.62-2.04.87.7,1.75,1.42,2.62,2.08.3.23.61.45.91.68-.24-.21-.54-.44-.91-.72ZM152.89,54.44s-.03-.02-.05-.03c.03.03.09.09.16.16-.03-.05-.07-.09-.1-.12ZM152.39,54.1c-.03.05-.07.09-.12.14.07.17.12.33.17.51.16-.21.35-.4.35-.4-.12-.12-.28-.26-.4-.24Z"/>
    <path class="st1" d="M185.57,90.16l-1.9,2.81c.1.07.19.1.24.1.37.03.73-1.01.94-1.33.12-.21.98-1.33.93-1.43l-.21-.16Z"/>
    <path class="st1" d="M229.82,52.53c-.63-.91-2.03-2.17-2.83-2.99-13.3-13.47-31.33-19.17-49.96-14.52-1,.24-1.97.52-2.95.86-4.07,1.29-8,3.15-11.67,5.45-4.28,2.67-8.2,5.96-11.57,9.7-2.38,2.64-4.47,5.49-6.22,8.53-.52.89-1.21,1.92-.31,2.85.45.47,1.21,1.03,1.94,1.54.52.38,1.05.75,1.45,1.07,2.27,1.8,4.54,3.6,6.83,5.4,3.98,3.15,8,6.29,12.02,9.4.3.24.59.49.91.72,5.03,3.93,10.08,7.81,15.15,11.67.17.14.72.56,1.07.77l1.9-2.81-13.7-10.31c-.19-.44,1.82-3.06,2.18-3.51,5.23-6.15,12.78-8.83,20.13-7.74,3.51.51,6.99,1.89,10.14,4.16.79.56,1.45,1.38,2.24,1.97l.1.23-8.37,9.73c1.31-.07,2.62-.03,3.91.12.21-.21.47-.38.68-.59,2.59-2.57,5-5.66,7.46-8.37.47-.51.93-1.01,1.4-1.52,5.19-5.66,10.5-11.25,15.61-17.02.17-.21.56-.61.98-1.08.79-.89,1.73-1.99,1.8-2.39.05-.3-.16-1.07-.31-1.29ZM168.8,77.44s-.12-.09-.31-.23c-.07-.05-.16-.12-.26-.19-.24-.21-.54-.44-.91-.72-.7-.54-1.59-1.24-2.62-2.04-1.05-.82-2.24-1.75-3.48-2.73-.35-.26-.68-.54-1.03-.8-5.24-4.09-11.1-8.67-12.15-9.51-.1-.09-.16-.12-.17-.14,1.35-2.24,2.88-4.35,4.58-6.33.16-.21.35-.4.35-.4,0,0,.02.02.05.05.03.03.09.09.16.16.17.19.44.47.79.86.14.14.28.3.44.47,2.41,2.53,7.32,7.71,11.22,11.83.59.63,1.17,1.22,1.71,1.8.28.3.56.59.82.87,1.9,1.99,3.18,3.36,3.2,3.37-.91,1.15-1.71,2.38-2.38,3.67ZM174.69,70.25c-.16-.23-.35-.49-.58-.8-.21-.28-.44-.58-.68-.93-.26-.37-.56-.75-.86-1.19-.77-1.05-1.66-2.29-2.6-3.62-.61-.82-1.21-1.64-1.78-2.46-.24-.33-.49-.68-.73-1.01-3.43-4.77-7.01-9.79-8.49-11.88,1.54-1.28,3.16-2.45,4.84-3.5.56-.35,1.12-.7,1.7-1.01l12.02,24.41c-1,.59-1.94,1.26-2.83,1.99ZM181.94,66.13s-.02-.05-.03-.1c-.03-.09-.09-.24-.17-.45-.03-.16-.1-.35-.19-.58-.52-1.56-1.52-4.49-2.66-7.81-.19-.56-.37-1.12-.56-1.66-.05-.19-.12-.4-.21-.61-.12-.35-.24-.72-.35-1.07-1.4-4.07-2.78-8.25-3.67-10.91-.07-.17-.12-.35-.17-.51-.07-.19-.14-.38-.19-.56-.05-.17-.1-.33-.16-.47-.05-.17-.1-.31-.16-.45-.05-.14-.09-.28-.12-.38-.05-.14-.09-.24-.1-.31.98-.35,1.97-.68,2.99-.96,1.49-.45,3.01-.82,4.54-1.1.09.77.96,5.98,1.92,11.6.23,1.24.44,2.5.65,3.74.1.61.21,1.21.31,1.8.07.38.14.75.19,1.14.03.19.07.4.1.59.05.26.09.52.14.77.61,3.55,1.08,6.34,1.22,7.11,0,.05.02.09.02.12.02.05.02.07.02.07-1.15.24-2.27.58-3.36,1ZM193.8,64.59c-.7-.07-1.42-.1-2.13-.1-.14-.02-.3-.02-.44-.02-.33,0-.66,0-.98.03,0-.44-.73-18.87-.94-27.16.16-.02.31-.02.47-.02,2.6,0,5.16.21,7.65.59-.33,1.63-3.34,24.62-3.64,26.67ZM202.11,66.76c-1.1-.51-2.27-.93-3.46-1.26,2.18-8.53,4.46-17.07,6.96-25.52,2.57.87,5.05,1.97,7.41,3.27-.84,1.78-10.66,23.05-10.91,23.51ZM209.69,71.97c-1.01-1.03-2.15-1.99-3.37-2.85l13.79-21.13.02-.02c2.2,1.73,4.26,3.67,6.13,5.77l-16.57,18.23Z"/>
    <path class="st1" d="M201.42,87.38c-18.84-1.85-20.57,19.07-5.28,26.49-.31,2.22-5.16-.73-6.45-1.56-5.82-3.86-8.18-10.97-6.64-17.62-5.61.44-11.43.24-17.13-.72-.59-3.95-.54-8,.16-11.99l-11.87-9.09c-1.42,9.16-6.24,17.62-12.9,23.99-.44.42-.87.82-1.33,1.22-.8.73-4.25,2.88-4.25,3.58.02.37,3.72,4.91,4.32,5.78,10.8,15.8,16.99,34.97,13.91,54.25v.03c-5.42-2.9-11.06-.79-13.82,4.47-6.94-3.51-11.74,1.26-13.42,7.81-1.19,4.74-.7,9.52-.47,14.35-16.48,4.47-34.11,4.14-50.7.35.7-6.54.77-20.24-6.62-23.16-3.13-1.22-4.75-.19-7.69.7-2.13-5.59-9.26-7.67-14.02-3.88-.31-1.78-.79-3.57-.98-5.38-1.59-15.57,4.53-34.52,13.02-47.52.75-1.15,5.56-7.29,5.56-7.81,0-.7-1.78-1.38-2.39-1.83-5.94-4.39-10.94-10.15-13.95-16.97-14.4-32.79,19.94-65.27,48.88-38.15.68.63,1.9,2.95,3.04,2.73.37-.07,4.65-4.7,5.57-5.47,16.01-13.21,34.97-7.6,43.74,7.03l11.87-9.49c-1.22-2.64-2.62-5.19-4.19-7.65-.45-.72-.93-1.4-1.4-2.08C138.39,4.4,106.69-4.35,77.36,5.49c-31.95,10.73-49.21,41.58-45.04,74.66.51,3.98,2.15,8.46,2.55,12.11.05.52.1,1.03-.05,1.54-10.33,11.69-20.52,24.43-27,38.73-3.51,7.76-10.78,28.36-2.38,34.39,6.31,4.54,14.42-2.41,18.7-6.82.59,9.86,3.93,18.65,8.98,26.98,1.84,3.04,3.69,6.31,5.64,9.31,6.71,10.35,19.19,16.34,29.53,7.51.16-.14.3-.26.45-.4.1-.1.19-.19.3-.28,3.9-.03,7.92,1.05,11.87,1.45,13.65,1.43,29.31,1.31,42.92-.35,1.36-.17,7.93-1.63,8.46-1.52.14.02,1.15.91,2.13,1.75.19.16.37.31.54.45.44.37.82.66,1.1.82,11.11,6.52,22.49-1.26,28.07-11.01,2.08-3.65,3.69-6.17,5.92-9.68.56-.87,1.08-1.77,1.57-2.67.24-.44.47-.87.68-1.31,6.55-12.78,7.86-28.7,6.57-43.48,14.45.51,31.79-15.19,33.19-31.6.59-6.94-2.66-17.39-10.66-18.7ZM127.95,18.61c1.63,0,2.95,4.18,2.95,5.8s-1.33,2.97-2.95,2.97-2.97-1.33-2.97-2.97,1.33-5.8,2.97-5.8ZM90.43,21.41c2.24,0,4.04,5.68,4.04,7.9s-1.8,4.04-4.04,4.04-4.02-1.8-4.02-4.04,1.8-7.9,4.02-7.9ZM75.68,13.51c1.89,0,3.44,4.86,3.44,6.76s-1.56,3.44-3.44,3.44-3.44-1.56-3.44-3.44,1.54-6.76,3.44-6.76ZM35.52,114.42c0-2.22,1.8-7.9,4.02-7.9s4.02,5.68,4.02,7.9-1.8,4.02-4.02,4.02-4.02-1.8-4.02-4.02ZM69.13,182.71c-.02.26-.02.52-.05.79,0,.12,0,.23-.02.35-.02.16-.02.31-.03.49-.03.26-.05.52-.09.8,0,.09-.02.17-.02.26-.05.52-.12,1.05-.21,1.57,0,.03,0,.05-.02.09-.07.45-.14.94-.24,1.4-.03.21-.09.42-.12.61-.09.37-.17.73-.28,1.1-.05.28-.14.56-.23.84-.07.28-.14.54-.23.82-.09.26-.17.52-.28.79-.09.28-.17.54-.28.8-.03.05-.05.1-.07.16-.17.45-.38.91-.59,1.35-.16.31-.33.65-.51.94-.16.31-.35.63-.56.91-.05.1-.1.17-.17.26-.05.09-.1.17-.17.26-.14.21-.3.4-.45.59-.09.1-.17.21-.26.3-.05.07-.12.14-.17.21-.1.12-.21.23-.33.33-.03.05-.09.1-.14.16-.3.31-.61.58-.94.84-.28.19-.54.37-.84.54-.28.17-.56.31-.87.45-.05.02-.12.05-.17.07-.14.07-.28.12-.44.17-.21.07-.42.14-.63.21-.02,0-.05.02-.09.02h-.02s-.07.02-.09.02-.05.02-.09.02h-.02s-.07.02-.1.02c-.02,0-.02.02-.03.02-.03.02-.09.02-.14.03-.42.09-.84.14-1.29.16s-.89.02-1.35-.02c-.28-.02-.56-.05-.84-.1-.17-.02-.35-.05-.52-.1-.19-.02-.38-.07-.56-.12-.21-.05-.4-.1-.59-.17-.07-.02-.14-.03-.21-.07-.07-.02-.12-.03-.17-.05-.26-.09-.52-.19-.79-.31-.28-.12-.56-.26-.84-.4-.03-.02-.09-.03-.12-.07-.24-.12-.47-.24-.7-.4-.19-.12-.4-.24-.61-.38-.19-.12-.38-.26-.59-.42-.38-.28-.77-.58-1.14-.91-.02-.02-.03-.03-.05-.03-.09-.09-.19-.19-.28-.28-.12-.12-.24-.24-.38-.37-.24-.23-.47-.47-.7-.72-.47-.49-.91-1-1.33-1.54-.05-.07-.12-.16-.19-.24-.37-.45-.7-.93-1.01-1.42-.31-.45-.61-.93-.89-1.4-.3-.49-.58-.98-.84-1.49-.28-.51-.52-1-.75-1.5-.12-.24-.24-.51-.35-.77-.1-.24-.21-.49-.31-.75-.02-.05-.05-.1-.07-.16l-.02-.02c-.12-.3-.23-.59-.33-.89-.12-.3-.23-.59-.31-.89-.05-.19-.14-.4-.19-.59-.09-.26-.17-.52-.24-.79-.09-.26-.16-.52-.21-.77-.05-.24-.12-.47-.17-.7-.09-.35-.16-.68-.23-1.01-.42-2.18-1.24-8.42,2.59-7.81.16.02.3.07.42.12.1.03.21.09.3.14.1.05.19.1.28.17.14.1.28.21.4.33.58.58,1.03,1.36,1.57,1.99.1.12.21.23.33.33.12.12.24.23.38.31.03.03.07.07.1.07.14.1.3.19.45.24.05.03.12.05.19.07.03.02.07.03.12.03.02,0,.05.02.07.02.03.02.07.02.1.02.14.02.3.02.47.02,4.67-.19.17-7.85,3.44-10.22.82-.59,1.59-.7,2.29-.45.05,0,.1.03.16.05.05.02.1.03.16.05.17.07.33.17.49.28.14.09.26.17.38.3.09.07.17.16.24.24.1.09.19.17.26.28.17.17.31.38.45.59.09.1.16.23.21.33.09.12.14.23.19.33.07.14.14.26.21.4.09.17.17.37.24.54.05.14.1.26.14.38l.02.02c.14.38.23.82.31,1.29.1.54.21,1.12.33,1.68.09.38.19.75.33,1.1.17.42.4.79.72,1.07.3.26.63.45.98.59.16.07.33.12.51.16.35.07.72.09,1.05,0,.35-.07.7-.21,1-.45.1-.09.19-.17.28-.28.87-.96,1.36-4.93,3.58-4.53.09.03.19.05.3.09.21.07.42.17.66.31.16.1.31.26.47.45.07.09.14.21.19.31.17.24.3.51.42.8.07.16.14.33.21.51.12.31.24.65.33.98.16.52.31,1.07.42,1.59.07.33.14.65.19.93.03.16.05.3.07.42.03.14.05.26.05.37.03.12.05.23.05.33.03.4.07.82.07,1.26.02.23.03.45.02.7.03.72.02,1.47-.02,2.24ZM161.98,181.65c-.35,1.43-.84,2.94-1.38,4.37v.02c-1.07,2.88-2.32,5.47-3.09,6.73-.28.45-.56.89-.86,1.29-.17.26-.37.52-.58.79-.09.14-.19.28-.3.42-.12.17-.26.35-.44.52-.03.07-.09.12-.14.17-.05.07-.1.14-.16.19-.3.35-.59.7-.91,1.01l-.02.02c-.09.1-.19.19-.28.26-.16.17-.31.33-.47.47-.02.02-.05.05-.09.09h-.02s-.07.05-.1.09c-.02.03-.05.05-.09.07-.17.17-.37.35-.56.49-.59.49-1.19.91-1.8,1.26-.02.02-.05.03-.07.03-.51.3-1.03.56-1.54.77-.23.09-.45.19-.68.26-.03.02-.09.02-.12.03-.19.05-.37.12-.56.17-.09.02-.16.03-.24.05-.12.03-.24.07-.37.09-.16.03-.3.07-.45.09-.26.05-.52.09-.77.1-.26.02-.51.03-.77.03h-.12c-.33,0-.66-.02-.98-.07-.3-.02-.58-.07-.86-.14t-.03-.02c-.05-.02-.1-.02-.16-.03-.03,0-.09-.02-.12-.02-.02-.02-.03-.02-.05-.02-.05-.02-.09-.02-.14-.03-.03-.02-.07-.02-.1-.03-.09-.02-.17-.05-.24-.07-.12-.03-.23-.07-.35-.12-.1-.03-.19-.07-.3-.12-.03-.02-.07-.03-.1-.05-.24-.09-.49-.19-.72-.31-.28-.14-.54-.3-.82-.45,0,0-.02,0-.02-.02-.31-.17-.59-.38-.89-.63-.3-.23-.59-.49-.89-.77-.28-.26-.56-.56-.84-.87-.54-.63-1.03-1.31-1.5-2.08-.17-.3-.35-.61-.52-.93v-.02c-.05-.12-.12-.24-.19-.37-.02-.05-.05-.12-.09-.17-.02-.07-.05-.12-.09-.19-.14-.3-.28-.59-.42-.93-.17-.42-.35-.87-.51-1.33v-.02c-.05-.14-.1-.3-.16-.45-.05-.19-.1-.38-.17-.59-.02-.05-.03-.09-.03-.14-.03-.12-.07-.24-.09-.35-.1-.37-.19-.72-.28-1.1-.09-.3-.16-.59-.19-.91-.1-.44-.17-.87-.24-1.33-.45-3.11-.73-13.3,2.34-15.05.72-.42,1.28-.49,1.73-.35.26.07.47.21.68.42.1.09.21.21.3.33.1.12.19.24.28.4.17.28.33.58.49.91.26.52.51,1.07.79,1.56.07.12.14.24.23.35.38.58.82,1.01,1.43,1.17.16.05.33.07.52.07.31,0,.68-.09,1.08-.26.59-.24,1.01-.89,1.36-1.73v-.02c.1-.21.17-.42.24-.66v-.02c.09-.23.16-.45.23-.7v-.02c.03-.12.07-.24.1-.38.05-.17.12-.38.17-.58.02-.07.03-.14.05-.21.07-.28.16-.56.24-.84.56-1.94,1.29-3.79,2.83-4.25.49-.14.94-.17,1.35-.12.12.02.23.03.33.07.12.03.23.07.33.12s.21.1.31.17c.05.03.1.07.17.12.07.05.16.12.23.19.07.09.16.16.21.24.07.09.14.16.19.24.19.28.35.58.47.91.17.44.3.89.35,1.36.03.12.05.24.07.37.19,1.63-.56,3.91-.16,5.37.09.33.24.61.47.84.21.23.44.38.65.51.09.07.17.1.26.14.1.05.23.1.35.12.56.14,1.08-.02,1.57-.33.24-.14.49-.33.72-.56.12-.09.24-.21.37-.35.23-.23.45-.49.72-.73v-.02c.23-.26.47-.51.72-.73.24-.24.47-.45.72-.66h.02c.59-.49,1.22-.75,1.9-.59.12.03.24.07.37.12.24.09.51.26.77.49.19.17.35.37.49.59.14.21.24.47.33.75.49,1.49.26,3.67-.31,6.01ZM162.05,149.12c-1.47,0-2.66-1.21-2.66-2.67s1.19-5.23,2.66-5.23,2.67,3.76,2.67,5.23-1.19,2.67-2.67,2.67Z"/>
  </g>
</svg>