<?xml version="1.0" encoding="UTF-8"?>
<svg id="Capa_1" xmlns="http://www.w3.org/2000/svg" version="1.1" viewBox="0 0 218.64 236.66">
  <!-- Generator: Adobe Illustrator 29.8.6, SVG Export Plug-In . SVG Version: 2.1.1 Build 1)  -->
  <defs>
    <style>
      .st0 {
        fill: #141127;
      }
    </style>
  </defs>
  <path class="st0" d="M207.09,78.1c-3.08-2.06-5.51-2.09-7.21-5.87-1.71-3.84-.72-6.77-1.39-10.42-.94-4.86-5.73-4.88-9.07-2.31-5.36,4-5.14,11.54-4.42,17.36-6.28,1.91-11.62,6.39-7.16,13.96-2.53,3.93-.81,8.79,3.05,11.21-2.92,5.1-.31,10.33,4.75,10.79,2.18.18,3.62-.64,3.39.31-.35,1.38-3.1,1.91-5.16,1.78-5.74-.35-9.84-5.8-7.82-12.09-3.47-2.44-4.57-7.74-2.53-11.41-.17-.72-3.67-1.49-4.53-1.3C189.84,48.57,157.08,6.46,114.6,1.01,63.7-7.87,10.63,43.58,39.91,93.15,22.19,111.07,2.99,135.66.64,161.63c-1.12,17.41,12.86,16.68,22.55,6.7,2.83,16.17,13.91,29.82,28.72,36.59-10.7,8.51-8.33,33.67,9.21,26.99,4.99,6.18,15.16,6.37,20.2.29,11.52,4.17,19.76-7.03,15.71-17.65h16.09c-4.53,10.51,4.55,21.8,15.67,17.69,4.97,6.04,15.12,5.84,20.09-.33,17.51,6.7,19.91-18.11,9.52-26.83,30.11-12.74,35.49-49.9,27.29-78.32l.33-.17c27.09,3.41,44.46-31.82,21.05-48.5ZM90.91,222.65c-.46,1.36-1.52,2.37-2.9,2.79-1.49.46-3.14.17-4.4-.79-.62-.48-1.1-1.08-1.56-1.67-.97-1.21-1.63-1.95-2.83-1.72-1.05.18-1.32,1.17-1.67,2.79-.17.72-.31,1.47-.62,2.09-1.08,2.15-2.99,3.39-5.16,3.39-.13,0-.26-.02-.39-.02-2.44-.17-4.48-1.85-5.36-4.4-.15-.44-.26-.94-.35-1.41-.22-1.25-.4-2.02-1.23-2.37-1.25-.51-2.04.29-3.23,1.65-.53.61-1.1,1.25-1.74,1.67-1.65,1.1-3.27,1.34-4.57.7s-2.07-2.09-2.18-4.06c-.33-6.26,4.22-11.95,8.88-14.81,7.93-4.84,20.11-3.25,26.06,3.41,2.72,3.05,4.68,8.66,3.25,12.75ZM157.76,222.45c-.18,1.16-.81,2.11-1.76,2.68-1.01.61-2.28.7-3.45.28-1.74-.62-2.4-1.52-3.05-2.39-.33-.44-.64-.86-1.12-1.27-.59-.51-1.28-.7-1.93-.51-.66.2-1.19.77-1.43,1.56-.15.5-.22.92-.29,1.3-.2,1.05-.39,1.95-1.49,3.28-1.1,1.36-2.72,2.11-4.39,2.11-.28,0-.55-.02-.83-.06-2.04-.29-3.73-1.65-4.53-3.6-.22-.51-.33-1.12-.46-1.78-.24-1.16-.48-2.37-1.25-2.68-1.41-.57-2.04.13-3.14,1.5-.46.59-.94,1.19-1.56,1.65-1.39,1.03-3.54,1.69-5.45.51-3.54-2.22-2.53-8.17-.99-11.62,1.78-3.98,5.47-7.05,10.37-8.62,5.91-1.91,12.83-1.34,17.62,1.43,5.12,2.99,10.17,9.32,9.12,16.2ZM157.98,181.06c-13.07,19.54-45.69,21.54-66.83,19.1-18.97-2.17-38.59-10.04-43.38-30.44-4.35-18.48,4.17-44.15,16.37-58.34.99-1.16,2.57-2.44,3.39-3.54,1.84-2.48-1.49-3.19-3.19-4.22-17.07-10.29-21.67-33.75-12.75-50.98.2-.39.4-.75.62-1.14,5.23-9.32,14.63-16.13,25.54-16.57,8.83-.37,17.34,3.73,23.16,10.2.59.66,2.97,4,3.39,4.18.18.07.44.11.7.11.22,0,.44-.04.61-.07.64-.15,2.35-2.81,2.95-3.5,12.09-14.28,32.3-14.57,44.81-.64,2.09,2.33,3.84,4.92,5.21,7.67,8.46,16.63,4.48,39.62-11.71,50.06-.92.59-4.02,2-4.37,2.72-.77,1.61,1.74,3.19,2.73,4.31,14.94,16.77,26.22,50.89,12.74,71.09Z"/>
  <path class="st0" d="M156.83,54.11c-.05-.09-.09-.2-.17-.28-.39-.61-.97-.84-1.69-1.03-4.02-.99-10.79-1.01-15.07-1.17-7.1-.26-17.82-.81-24.53,1.19-1.01.29-3.14,1.5-3.87,1.5-.86,0-2.48-.68-3.49-.79-.77-.07-1.85-.11-2.9-.11-.84,0-1.65.04-2.28.11-1.01.13-2.94.84-3.8.79-.7-.05-2.42-1.14-3.32-1.43-2.86-.95-7.34-1.3-10.4-1.43-6.53-.26-13.36.04-19.89.48-2.88.2-6.83.2-9.6.81-.4.09-1.17.4-1.47.68-.07.07-.15.15-.22.24-.99,1.36-.86,5.01.11,6.17.39.46,1.41.94,1.87,1.43.99,1.03.94,3.63,1.23,5.06,1.91,9.63,5.27,16.85,16.28,17.49,9.14.51,14.96-1.89,19.05-7.1,2.24-2.84,3.96-6.51,5.45-11.01.83-2.53.55-4.17,3.19-5.63,2.73-1.52,7.65-1.19,9.78,1.27.81.92.99,2.81,1.38,3.98,1.43,4.24,3.12,8.15,5.52,11.29,3.08,4.04,7.34,6.77,13.71,7.21,13.32.92,18.96-4.2,21.49-16.85.29-1.52.28-4.55,1.28-5.65.62-.66,1.74-1.1,2.2-1.91.62-1.06.68-4.15.15-5.3ZM67.09,74.1c-.28.4-.7.61-1.14.61-.28,0-.55-.07-.79-.24-.62-.44-.79-1.28-.35-1.91l11.01-16.06c.42-.62,1.28-.79,1.91-.35.62.42.79,1.28.37,1.91l-11.01,16.04ZM87.88,58.06l-8.24,11.98c-.26.39-.7.61-1.14.61-.26,0-.53-.07-.77-.24-.62-.44-.79-1.28-.35-1.93l8.22-11.98c.42-.62,1.28-.79,1.91-.35.62.42.79,1.28.37,1.91ZM123.39,74.12c-.28.39-.7.59-1.14.59-.28,0-.55-.07-.79-.24-.62-.44-.79-1.28-.35-1.91l11.01-16.06c.42-.62,1.28-.79,1.91-.35.62.42.79,1.28.37,1.91l-11.01,16.06ZM144.18,58.06l-8.24,11.98c-.26.39-.7.61-1.14.61-.26,0-.53-.07-.77-.24-.62-.44-.79-1.28-.35-1.93l8.22-11.98c.42-.62,1.28-.79,1.91-.35.62.42.79,1.28.37,1.91Z"/>
  <path class="st0" d="M115.9,77.36c3.08,3.06,2.2,8.24-1.71,10.13l-5.14,2.46c-2.37,1.14-5.12,1.14-7.49,0l-5.12-2.46c-3.93-1.89-4.81-7.07-1.72-10.13l5.49-5.51c2.83-2.83,7.38-2.83,10.2,0l5.49,5.51Z"/>
</svg>