<?xml version="1.0" encoding="UTF-8"?>
<svg id="Capa_1" xmlns="http://www.w3.org/2000/svg" version="1.1" viewBox="0 0 131.07 112.3">
  <!-- Generator: Adobe Illustrator 29.8.7, SVG Export Plug-In . SVG Version: 2.1.1 Build 1)  -->
  <defs>
    <style>
      .st0 {
        fill: #141127;
      }
    </style>
  </defs>
  <path class="st0" d="M128.33,76.8c-7.26-8.39-20.02-17.08-22.34-29.04-1.34-6.89-.29-12.73-2.61-20.15-1.84-5.89-4.81-10.89-8.52-14.95C85.26,2.1,70.73-2.11,58.4,1c-9.82,2.47-18.24,9.59-21.65,21.85-.03.12-.07.26-.1.44,0,.02-.01.03-.01.05-.81,2.88-1.05,4.32-1.29,6.08-.09.65-.15,1.23-.19,1.77l-6.36,4.26c-1.99,1.32-1.99,4.24,0,5.57l7.08,4.72c.52.34,1.08.58,1.65.71.31.63.66,1.48,1.03,2.37.34.81.71,1.65,1.09,2.36.61,1.15.3,2.57-.75,3.34-8.7,6.34-16.07,15.18-18.94,25.63-.17.62-.72.97-1.28.97-.32,0-.64-.11-.9-.35-1.03-.93-2.65-1.31-3.99-.87-.68.22-1.32,1.29-1.83,1.2-.88-.15-1.58-2.57-4.56-1.38-2.76,1.11-2.62,4.55-2.94,4.81-.45.37-2.09-.29-3.56,1.79-2.66,3.8,1.15,12.18,4.1,15.16,4.08,4.12,10.41,4.89,13.52-.2.32-.51.95-.73,1.52-.53,2.65.91,5.01,2.51,7.57,3.64,1.27.56,4.25,1.15,5.15,1.74.49.32.87,1.74,1.39,2.4,3.82,4.84,9.37,4.79,13.93,1.18.26-.21.59-.31.92-.27,10.34,1.13,21.18,1.3,31.44-.5,12.4-2.17,24.84-8.39,27.86-21.62h.02c5.22,1.96,19.12,3.33,22.14-2.52,1.58-3.07-.16-5.72-2.13-8ZM15.33,99.71c-5.08,5.56-12.5-5.54-11.89-10.51.4-3.23,3.51,1.61,4.69-.85.25-.54-1.45-4.94.35-5.5h0c1.96-.61,2.3,4.13,3.49,4.43,2.01.51,1.47-6.2,3.92-3.6,2.42,2.57,1.98,13.26-.56,16.03ZM45.89,106.47c-3.58,3.55-7.87,2.67-9.74-2.02-1.06-2.67-1.78-10.03-.24-12.44,1.68-2.62,2.69,1.47,3.21,1.89,2.3,1.87,2.44-4.91,4.22-5.51,3.08-1.03,1.06,5.48,1.99,6.2,2.04,1.58,3.69-3.92,5.34-1.55,1.8,2.57-2.64,11.31-4.78,13.43ZM52.44,103.18c1.29-3.56,3.88-11.2-.45-13.51-1.63-.88-3.52-.17-3.68-.28-.11-.08-.55-1.81-1.1-2.53-1.8-2.36-4.64-2.14-6.69-.24-.45.41-1.09,1.64-1.4,1.72-.35.08-1.26-.74-2.33-.66-4.23.32-5.5,6.31-5.39,10.43.02.95-.99,1.57-1.86,1.17-7.37-3.44-7.89-10.38-5.63-18.23,2.66-9.28,10.5-18.61,18.27-24.14.27-.19.71-.44,1.2-.71,1.15-.64,2.58-1.41,2.71-1.95.36-1.46-1.34-2.83-2.21-4.05-.88-1.23-1.68-2.74-2.25-4.52.32-.22.61-.47.88-.77l2.94-3.25c1.76-1.94,1.76-4.91,0-6.86l-2.94-3.25c-.55-.61-1.21-1.06-1.94-1.33.3-1.43.72-2.82,1.24-4.14h0c.44-1.29.95-2.51,1.25-3.11,7.18-14.48,26.83-15.7,35.17-1.6.1.17.2.35.3.52,5.33,9.5,3.24,20.05-2.72,28.7-.3.43-.3.99-.02,1.42.18.28.36.56.53.84,2.43,3.93,4.04,8.17,4.87,12.44,3.59,18.29-7.01,37.4-28.75,37.89Z"/>
  <path class="st0" d="M53.71,32.74c-1.44,1.18-3.37-.09-2.85-1.97,1-3.63,5.42-5.46,8.91-4.75,2.38.49,7.07,5.26,4.72,7.32-2.45,2.14-3.04-3.27-6.71-3.27-2.57,0-2.8,1.62-4.06,2.66h0Z"/>
</svg>