<?xml version="1.0" encoding="UTF-8"?>
<svg id="Capa_1" xmlns="http://www.w3.org/2000/svg" version="1.1" viewBox="0 0 158.51 106.83">
  <!-- Generator: Adobe Illustrator 29.8.7, SVG Export Plug-In . SVG Version: 2.1.1 Build 1)  -->
  <path d="M157.96,85.94l-4.36-6.17c-.21-.3-.45-.56-.72-.79.47-.92.88-3.92.88-3.93,2.55-18.6-13.13-38.31-36.35-38.31,0,0-10.66.01-16.83,2.24-5.62,2.03-6.55,2.78-6.55,2.78,0,0-9.13-6.17-10.92-19.61-1.79-13.43-.53-20.38-6.12-21.59-4.62-1-14.54,9.13-13.68,21.72.54,7.77,11.26,15.81,19.71,19.58.11.05.02.22-.09.18-3.76-1.44-19.62-5.82-26.13-19.89C49.97,7.42,48.84,0,42.78,0c-4.4,0-8.69,6.73-8.96,21.47-.33,18.24,14.75,31.9,24.13,35.66-4.29-.54-19.03-7.51-23.05-19.04-3.91-11.2-13.1-9.95-16.89,0-1.18,3.1-1.72,6.67-1.65,10.45-6.75-1.68-13.71-9.43-11.76-12.59,2.15-3.49,6.25,1.37,7.78-1.07,1.34-2.15-3.31-4.19-1.61-7.24,1.34-2.42,4.56-1.34,6.95,1.58,1.49,1.81,3.64,1.59,4.04-.78.31-1.85-5.11-5.06-6.43-5.63-2.16-.93-5.48-1.24-8.06,1.42-2.58,2.66-1.59,6.47-1.59,6.47-1.63.31-6.18.92-5.63,8.73.56,8.01,15.92,16.17,17.11,16.09,1.95,9.56,7.42,19.56,16.09,26.63,22.57,18.38,49.14,26.95,84.16,24.16,1.44-.12,2.84-.28,4.17-.47,6.57-.96,11.85-2.84,16.08-5.37,3.48-2.24,7.23-4.89,9.83-8.16.44.03.88,0,1.33-.1l7.37-1.66c2.07-.46,3-2.88,1.77-4.61ZM117.41,101.03c-4.45.77-9.32,1.04-14.51.85-10.79-.39-22.92-2.79-35.31-6.82-18.35-5.96-32.12-18.02-37.16-22.83-5.05-4.8-2.13-6.88,2.72-6.59,4.86.29,16.96,8.35,16.96,8.35,0,0,3.23,2.97,16.81,7.59,5.68,1.93,13.38,2.76,20.41,3.06,9.76.43,18.23-.14,18.23-.14.16-8.24,5.71-23.4,15.52-27.15,10.9-4.17,24.64-1.1,27.4,15.29.32,1.91.42,3.69.3,5.35-.32.08-.63.2-.94.35l-3.46,1.75c-2.08,1.06-3.03,3.51-2.19,5.69l1.4,3.62c.03.08.07.17.11.25-6.46,6.85-17.74,9.89-26.29,11.38Z"/>
  <path d="M140.87,78.45c0,.17,0,.34-.02.51-.02.32-.07.64-.14.94-.26.51-.79.86-1.4.86s-1.17-.37-1.41-.9c-.03-.16-.08-.32-.13-.47-.57-1.62-2.11-2.78-3.92-2.78-.97,0-1.86.33-2.56.88-.1.07-.19.15-.27.24h0c-.27.18-.59.29-.94.29-.92,0-1.68-.75-1.68-1.68,0-.16.02-.31.06-.46.07-.17.15-.34.24-.5,1.09-2.03,3.24-3.4,5.7-3.4,3.58,0,6.47,2.9,6.47,6.47Z"/>
</svg>